<?xml version="1.0" encoding="UTF-8" standalone="no"?>
<!-- Created with Inkscape (http://www.inkscape.org/) -->

<svg
   width="128"
   height="128"
   id="svg2"
   sodipodi:version="0.32"
   inkscape:version="1.3.2 (1:1.3.2+202311252150+091e20ef0f)"
   version="1.0"
   sodipodi:docname="Building1.svg"
   inkscape:output_extension="org.inkscape.output.svg.inkscape"
   xmlns:inkscape="http://www.inkscape.org/namespaces/inkscape"
   xmlns:sodipodi="http://sodipodi.sourceforge.net/DTD/sodipodi-0.dtd"
   xmlns:xlink="http://www.w3.org/1999/xlink"
   xmlns="http://www.w3.org/2000/svg"
   xmlns:svg="http://www.w3.org/2000/svg"
   xmlns:rdf="http://www.w3.org/1999/02/22-rdf-syntax-ns#"
   xmlns:cc="http://creativecommons.org/ns#"
   xmlns:dc="http://purl.org/dc/elements/1.1/">
  <defs
     id="defs4">
    <radialGradient
       r="8.2519293"
       fy="222.04396"
       fx="14.207293"
       cy="222.04396"
       cx="14.207293"
       gradientTransform="scale(1.39523,0.716728)"
       gradientUnits="userSpaceOnUse"
       id="radialGradient1968"
       xlink:href="#linearGradient2057"
       inkscape:collect="always" />
    <linearGradient
       inkscape:collect="always"
       id="linearGradient2057">
      <stop
         style="stop-color:#000000;stop-opacity:1;"
         offset="0"
         id="stop2059" />
      <stop
         style="stop-color:#000000;stop-opacity:0;"
         offset="1"
         id="stop2061" />
    </linearGradient>
  </defs>
  <sodipodi:namedview
     id="base"
     pagecolor="#ffffff"
     bordercolor="#666666"
     borderopacity="1.0"
     gridtolerance="10000"
     guidetolerance="10"
     objecttolerance="10"
     inkscape:pageopacity="0.0"
     inkscape:pageshadow="2"
     inkscape:zoom="5.6568542"
     inkscape:cx="-3.6239223"
     inkscape:cy="78.400464"
     inkscape:document-units="px"
     inkscape:current-layer="layer1"
     showgrid="false"
     width="744.09px"
     inkscape:window-width="1920"
     inkscape:window-height="1012"
     inkscape:window-x="0"
     inkscape:window-y="0"
     showguides="true"
     inkscape:guide-bbox="true"
     inkscape:showpageshadow="2"
     inkscape:pagecheckerboard="0"
     inkscape:deskcolor="#d1d1d1"
     inkscape:window-maximized="1" />
  <metadata
     id="metadata7">
    <rdf:RDF>
      <cc:Work
         rdf:about="">
        <dc:format>image/svg+xml</dc:format>
        <dc:type
           rdf:resource="http://purl.org/dc/dcmitype/StillImage" />
      </cc:Work>
    </rdf:RDF>
  </metadata>
  <g
     inkscape:label="Layer 1"
     inkscape:groupmode="layer"
     id="layer1">
    <path
       d="M 48.4375,13.125 29.40625,24.21875 28.9375,44.125 12.59375,54.53125 12.625,79.6875 4.4375,82.5 4.5,88.625 l 55.65625,37.3125 64.65625,-22.78125 0.0312,-6.25 -10.3125,-7.21875 c -0.0565,-0.351254 -0.23494,-0.691629 -0.46875,-0.90625 l -4.78125,-3.6875 v -5.375 -0.03125 L 109.25,61.9375 91,49 90.21875,33.09375 71.0625,20.125 v -0.21875 c 3.537221,0.95221 7.021304,0.837201 10.5625,0.46875 -0.995931,-0.677362 -2.305037,-0.847407 -3.59375,-2.0625 2.338418,-0.113544 3.985851,-1.834982 5.4375,-2.6875 -4.133322,0.591634 -8.213622,1.779879 -12.40625,0 V 14.5 C 70.812533,14.000065 70.791612,14.125067 70.375,14.625 L 70.34375,19.65625 60.6875,13.125 Z"
       style="fill:#926b2e;fill-rule:evenodd;stroke-width:1px;fill-opacity:1;stroke:none"
       id="path2" />
  </g>
  <g
     inkscape:label="Layer 1 copy"
     inkscape:groupmode="layer"
     id="g1"
     style="display:inline">
    <path
       style="fill:#5c2700;fill-opacity:1;fill-rule:evenodd;stroke:none;stroke-width:1px;stroke-linecap:butt;stroke-linejoin:miter;stroke-opacity:1"
       d="M 48.4375,13.125 29.40625,24.21875 28.9375,44.125 12.59375,54.53125 12.625,79.6875 4.4375,82.5 4.5,88.625 l 55.65625,37.3125 64.65625,-22.78125 0.0312,-6.25 -10.3125,-7.21875 c -0.0565,-0.351301 -0.23491,-0.6916 -0.46875,-0.90625 l -4.78125,-3.6875 v -5.375 -0.03125 L 109.25,61.9375 91,49 90.21875,33.09375 71.0625,20.125 v -0.21875 c 3.537691,0.952337 7.020833,0.83725 10.5625,0.46875 -0.996063,-0.677452 -2.304866,-0.847245 -3.59375,-2.0625 2.338729,-0.113559 3.985658,-1.834869 5.4375,-2.6875 -4.133872,0.591713 -8.213064,1.780116 -12.40625,0 V 14.5 c -0.25,-0.500001 -0.270833,-0.374999 -0.6875,0.125 L 70.34375,19.65625 60.6875,13.125 Z m 1.03125,0.375 11,0.09375 L 64,15.96875 53.53125,16.0625 Z M 48.40625,13.65625 52.5,16.25 34.875,27.375 30.25,24.34375 Z m 5.28125,2.5 h 10.59375 l 4.4375,2.96875 -10.6875,-0.25 z m 17.375,0.03125 c 2.790896,0.890374 7.588983,1.35177 10.9375,0.0625 -0.547503,0.977279 -3.543237,1.665418 -4.6875,1.65625 0.463274,0.727877 1.839863,1.725228 3.15625,2.15625 -2.79248,0.678323 -6.394347,0.06818 -9.40625,-0.53125 z M 52.78125,16.40625 56.90625,19 40.4375,31 35.03125,27.46875 Z m 5.4375,2.625 10.75,0.28125 1.375,0.9375 v 1.96875 l -7.65625,-0.375 z m -1.0625,0.125 4.65625,2.9375 -15.5,12.71875 -5.71875,-3.71875 z M 71.0625,20.71875 73.5,22.375 71.0625,22.25 Z m -8.21875,1.21875 7.5,0.4375 -0.03125,3 -2.65625,-0.40625 z M 62.0625,22.25 66.71875,25.1875 53.1875,39.3125 46.46875,34.90625 Z m 9,0.1875 2.75,0.15625 6.28125,4.21875 -9.03125,-1.34375 z M 30.03125,24.90625 37.625,29.9375 v 1.625 l -3.375,-2.25 v 1.625 l -4.28125,-2.84375 z m 37.8125,0.1875 2.46875,0.375 v 1.1875 z m -0.875,0.25 L 70.3125,27.4375 59,43.09375 53.3125,39.375 Z m 4.09375,0.25 L 80.40625,27 87.0625,31.5 71.125,27.15625 71.0625,27.125 Z m -0.3125,2 0.125,0.03125 6.65625,9.5 -8.3125,2.84375 -3.5625,-5.125 z m 0.53125,0.15625 10,2.84375 3.34375,4.125 -6.9375,2.375 z M 29.96875,28.375 33.5,30.6875 v 3 l -3.59375,-2.375 z m 7.84375,1.6875 12.75,8.46875 V 40.125 l -4.5,-3 v 1.5625 L 40.75,35.21875 V 33.625 l -2.96875,-1.96875 z m -3.03125,0.09375 5.46875,3.65625 0.09375,14.625 -5.75,-3.90625 z M 81.75,30.71875 89.71875,33 l -4.9375,1.6875 z m -48.0625,0.09375 0.5625,0.375 -0.03125,2.96875 -0.5625,-0.375 z m -3.78125,0.71875 3.59375,2.375 v 0.03125 l 0.09375,0.03125 0.625,0.40625 -0.03125,2.84375 -4.3125,-2.8125 z M 35.5,32 v 12.0625 l 3.875,2.78125 -0.125,-12.3125 z m 0.3125,0.5625 3.125,2.1875 0.125,11.5625 -3.25,-2.40625 z m 53.9375,1.125 c 0.06432,1.135002 0.104059,2.298419 0.125,3.375 l -3.6875,1.21875 v -2.0625 l -0.9375,0.3125 v -1.3125 z M 29.84375,34.65625 33.25,36.875 v 2.4375 l -3.4375,-2.25 z m 35.625,0.40625 3.59375,4.96875 -9.3125,3.15625 z m 19.59375,0.21875 0.03125,1.3125 -5.40625,1.875 -0.03125,1.9375 L 74.09375,42.25 74.125,39.03125 Z M 40.75,35.5 42.96875,36.96875 V 39.9375 L 40.75,38.46875 Z m 44.875,1.4375 v 14.625 L 80.03125,53.25 80.25,38.96875 Z m -52.1875,0.03125 0.75,0.5 -0.03125,2.4375 -0.75,-0.5 z m 9.71875,0.125 L 46.0625,39 46.03125,41.9375 43.125,40.03125 Z m 46.75,0.15625 0.15625,3.1875 -3.875,1.25 v -3.21875 c 1.23647,-0.412657 2.481042,-0.819294 3.71875,-1.21875 z m -60.09375,0.0625 4.34375,2.84375 V 42.5 l -4.375,-2.84375 z m 16.78125,0.65625 5.46875,3.65625 0.09375,14.625 -5.75,-3.90625 z m 4.15625,0.6875 7.90625,5.25 L 58.625,47 52.5625,43 v -1.5625 l -1.84375,-1.21875 z m 33.9375,0 -3.75,1.28125 v 11.875 l 3.875,-1.15625 z m -43.9375,0.0625 2.21875,1.46875 v 0.03125 l 3.0625,2 -0.03125,2.75 -5.25,-3.4375 z M 73.9375,39.125 v 3.1875 l -3.46875,1.15625 V 41.25 l -6.5,2.25 -0.03125,2.125 -0.65625,0.21875 L 63.3125,42.75 Z m 10.3125,0.1875 0.28125,11.03125 -3.25,1 -0.0625,-11.21875 z m -36.9375,0.5 V 51.875 l 3.875,2.78125 -0.125,-12.3125 z M 29.78125,39.875 33.25,42.15625 V 45.25 l -3.53125,-2.3125 z m 17.84375,0.5 3.125,2.1875 0.125,11.5625 -3.25,-2.40625 z m 32.03125,0.25 v 3.1875 l -9.1875,2.96875 v -3.125 z m 10.40625,0 0.125,2.59375 -4,1.28125 V 41.90625 Z M 40.75,41.78125 43.0625,43.3125 h -0.09375 v 2.34375 L 40.75,44.21875 Z m 29.15625,0.1875 v 14.625 L 64.3125,58.28125 64.5,44 Z M 33.4375,42.28125 34.15625,42.75 34.125,44.8125 40.75,49.40625 v -2.3125 l 2.21875,1.4375 v 3.125 L 33.40625,45.375 Z M 63.125,42.8125 v 3.03125 l 0.09375,0.03125 -4.03125,1.3125 0.03125,-3.03125 z m -33.40625,0.375 7.59375,5.03125 V 49.625 l -7.625,-5.3125 z M 52.5625,43.3125 54.75,44.75 v 2.96875 l -2.1875,-1.4375 z M 43.15625,43.375 46,45.25 45.96875,47.625 43.125,45.78125 Z m 47.03125,0.03125 0.15625,2.75 -4.15625,1.375 v -2.8125 z m -21.21875,0.28125 -3.75,1.28125 v 11.875 l 3.875,-1.15625 z M 79.65625,44 79.625,46.625 l -5.53125,1.78125 0.03125,-2.625 z m -11.125,0.34375 0.25,11.03125 -3.25,1.03125 L 65.5,45.1875 Z M 40.75,44.5 42.96875,45.9375 V 46 h 0.09375 l 2.90625,1.90625 v 2.3125 L 40.75,46.84375 Z m -11.5,0.28125 3.0625,2.125 -14.34375,10.28125 -4.0625,-2.625 z m 25.6875,0.09375 3.6875,2.4375 -0.03125,2.9375 -3.6875,-2.4375 z m 9,0.90625 V 48.875 l -4.78125,1.5625 0.03125,-3.0625 z m 10,0.0625 v 2.625 l -3.46875,1.125 v -2.625 z m 16.40625,0.53125 0.09375,2.28125 -4.25,1.40625 v -2.34375 z m -37.78125,0.1875 6,3.96875 -0.03125,2.625 L 52.5625,49.25 Z m 27.0625,0.28125 -0.03125,2.84375 -9.125,2.96875 v -2.875 z m -47.0625,0.25 4.46875,3.125 L 22.84375,60.3125 18.125,57.28125 Z m 4.9375,1.25 13,8.59375 v 1.90625 L 37.46875,49.75 Z m 5.65625,0.3125 2.8125,1.84375 -0.03125,2.125 6.625,4.59375 v -2.375 l 2.25,1.46875 V 59.5 L 43.125,51.78125 Z m 47.3125,0.1875 0.125,2.9375 -6.625,2.15625 -3.375,0.375 0.03125,-0.6875 5.5625,-1.78125 V 50.25 Z M 63.9375,49.0625 63.90625,51.71875 63.3125,51.90625 V 49.25 Z m -0.8125,0.25 0.03125,2.65625 -4.03125,1.3125 0.03125,-2.65625 z m -10.5625,0.21875 2.1875,1.4375 V 53.375 L 52.5625,51.9375 Z M 79.59375,49.875 79.5625,52.21875 73.96875,54.03125 74,51.6875 Z m 11.4375,0.40625 1.6875,1.15625 L 91.0625,51.25 Z m -53.75,0.09375 4.1875,2.90625 -14,10 L 23,60.40625 Z m 17.65625,0.71875 3.59375,2.375 -0.03125,2.375 -3.59375,-2.375 z m 36.15625,0.4375 2,0.1875 7.15625,4.9375 -21.96875,-0.8125 -1.125,-0.78125 14,-1.59375 z M 73.8125,51.75 v 2.34375 l -3.34375,1.09375 v -2.34375 z m -9.90625,0.09375 -0.0625,5.5625 -4.8125,1.5625 0.125,-5.5625 z M 90.59375,52 l 0.0625,1.1875 -5.75,0.65625 z M 52.5625,52.21875 58.5,56.125 58.46875,58.40625 52.5625,54.5625 Z m 27,0.1875 v 1.5625 l 0.875,-0.28125 v 0.65625 L 76.125,54.8125 69.28125,58.71875 V 57.25 l 1.1875,-0.375 v -1.5 z m -37.875,1.0625 4.53125,3.15625 -13.8125,9.84375 -4.78125,-3.0625 z m -28.375,1.71875 5.0625,3.28125 v 2.875 L 13.34375,58.0625 H 13.3125 Z m 62.78125,0.15625 1.28125,0.875 -29.03125,20.5 -5.3125,-3.40625 13.5,-9.5 2.15625,1.5 z m 2.59375,0.8125 21.78125,0.65625 6.5625,4.53125 -25,-2.84375 z M 77.59375,56.375 81.125,58.78125 53.75,80.21875 48.46875,76.8125 Z M 55,56.4375 58.46875,58.71875 58.4375,61.875 54.96875,59.59375 Z m -8.53125,0.34375 4.65625,3.25 -13.59375,9.75 -4.96875,-3.21875 z m 4.21875,0.28125 7.75,5.125 -0.03125,2.15625 L 56.8125,63.25 51.90625,59.8125 51.875,59.78125 51.6875,59.625 l -0.03125,0.03125 -1,-0.71875 z m 18.40625,0.25 0.03125,1.46875 -10.0625,3.25 0.03125,-2.9375 4.75,-1.5625 V 59 Z m -55.78125,0.96875 9.75,6.34375 v 3.3125 L 22.75,67.71875 V 65.25 L 16.25,60.9375 16.21875,63.5 13.3125,61.59375 Z m 5.25,0.3125 9.6875,6.25 V 67.75 l -9.71875,-6.3125 z m 63.25,0.3125 10.5625,1.3125 4.28125,5.6875 -8.09375,2.78125 z m -0.21875,0.15625 6.8125,9.65625 -7.84375,2.71875 -5.21875,-7.375 -0.1875,0.1875 5.25,7.21875 -9.28125,3.1875 -3.40625,-4.5625 7.625,-6.03125 z M 68.5,59.15625 63.3125,62.125 v -1.28125 z m -17.15625,1.03125 4.9375,3.4375 -13.40625,9.59375 -5.21875,-3.375 z m 41.4375,0.0625 9.25,1.15625 1.65625,2.0625 -6.875,2.375 z m -29.65625,0.65625 0.03125,1.3125 -4.125,2.34375 0.03125,-2.34375 z m 39.25,0.53125 5.34375,0.65625 -3.84375,1.3125 z m -85.59375,0.34375 5.46875,3.65625 0.09375,18.125 -3.8125,-2.59375 0.03125,-1.03125 2.8125,2.03125 -0.125,-15.75 -3.75,-2.53125 v 15.5 l 0.875,0.625 v 1.0625 l -1.78125,-1.21875 z m -3.46875,0.0625 0.1875,0.125 V 64.875 L 13.3125,64.75 Z m 0.375,0.25 2.53125,1.65625 v 2.90625 l -2.5625,-1.6875 z M 108.5,62.21875 108.5312,66 97.0312,69.90625 97.0625,66.25 Z M 17.8125,64.25 l 3.125,2.1875 0.125,15 -3.25,-2.40625 z m 5.4375,0.5 10.8125,7.03125 V 72.5 L 28.5,68.8125 l -0.03125,2.65625 -5.25,-3.4375 z M 28.4375,64.96875 39.5,72.125 v 2.9375 L 28.40625,67.84375 Z M 13.3125,65 l 2.90625,1.90625 -0.03125,3.40625 -2.90625,-1.875 z m 95.21875,1.1875 0.0312,3.15625 -5.71875,1.9375 0.0312,-3.1875 z M 96.875,66.3125 v 3.625 L 85.96875,73.65625 86,70.125 88.71875,69.1875 88.75,69.15625 Z M 22.75,68 28.3125,71.625 H 28.25 v 2.84375 l -5.53125,-3.5625 z m 79.9375,0.15625 v 3.1875 l -11.40625,3.875 0.03125,-3.1875 z M 13.28125,68.6875 13.5,68.84375 V 71.875 l -0.09375,-0.0625 -0.125,0.03125 z m 0.40625,0.25 2.5,1.625 -0.03125,3.03125 -2.5,-1.625 z m 94.875,0.625 0.0312,3.09375 -11.625,3.9375 L 97,73.46875 Z M 29.03125,69.65625 34.5,73.3125 l 0.09375,18.125 -5.75,-3.90625 z M 85.8125,70.1875 v 3.53125 L 79.96875,75.6875 H 79.8125 V 75.75 L 74.28125,77.625 74.3125,74.25 Z M 67.5,70.25 70.9375,74.71875 61.375,78.03125 59.96875,76.25 Z M 22.71875,71.15625 23.0625,71.375 v 3.40625 L 22.71875,74.5625 Z M 23.25,71.5 l 5.21875,3.40625 -0.03125,3.375 -5.21875,-3.40625 z m 6.5,0.0625 v 15.5 l 3.875,2.78125 -0.125,-15.75 z m -1.3125,0.125 0.03125,0.03125 V 74.625 l -0.0625,-0.03125 z m 5.8125,0.21875 10.125,6.625 V 79.125 L 41.25,77.0625 v 2.71875 L 35,75.6875 V 73.125 l -0.78125,-0.5 z m -20.96875,0.0625 2.875,1.875 V 77.125 l -2.875,-1.84375 z m 77.84375,0.125 v 3.1875 L 79.96875,79.0625 80,75.875 Z m -61.0625,0.03125 3.125,2.1875 0.125,15 -3.25,-2.40625 z m 9.625,0.125 10.125,6.53125 v 3 L 39.65625,75.1875 Z m 68.90625,0.59375 0.0312,3.46875 -5.78125,1.96875 0.0312,-3.5 z m -11.78125,0.6875 v 3.125 L 85.96875,80.3125 86,77.1875 Z M 74.125,74.3125 v 3.375 L 63.21875,81.375 63.25,78.125 71.375,75.28125 Z m -51.40625,0.5 5.53125,3.625 v 3.03125 L 22.71875,77.875 Z m 79.96875,0.03125 V 78.3125 L 101.15625,78.84375 99.25,77.375 c -0.513177,0.208905 -1.71966,0.351671 -0.96875,1.96875 l 0.40625,0.3125 -3.65625,1.25 v -1 l -3.6875,1.25 0.03125,-2.46875 z m -89.40625,0.6875 0.21875,0.125 v 3.0625 L 13.28125,78.5625 Z m 0.40625,0.25 2.46875,1.59375 -0.03125,2.5625 2.25,1.53125 V 81.875 l -4.71875,-3.0625 z m 66.125,0.15625 v 3.15625 L 68.53125,82.9375 68.5625,79.75 Z M 35,75.96875 c 1.494919,0.98504 2.999835,1.959069 4.5,2.9375 v 2.875 L 34.96875,78.875 Z m 24.78125,0.4375 1.375,1.6875 -6.1875,2.125 z m 48.84375,0.125 0.0312,3.1875 -4.4375,1.5 -2.90625,-2.25 z M 85.8125,77.25 v 3.125 l -11.53125,3.90625 0.03125,-3.125 z m 13.5625,0.53125 14.5,11.46875 c 0.28835,0.49396 0.53514,1.321284 -0.4375,0.9375 l -0.5625,-0.40625 0.75,-0.53125 -0.46875,-0.21875 -0.59375,0.5 L 98.78125,79.25 C 97.989147,78.389158 98.7432,77.803439 99.375,77.78125 Z m -57.59375,0.125 5.46875,3.65625 0.09375,18.125 -5.75,-3.90625 z m -19.0625,0.21875 0.34375,0.21875 v 3.3125 l -0.375,-0.25 z m 40.34375,0.0625 v 3.25 L 54.25,84.40625 54.21875,81.3125 Z m -39.8125,0.28125 5.15625,3.375 v 3.25 L 23.21875,81.75 Z M 44.5625,78.625 53.25,84.3125 53.28125,87.59375 47.75,83.96875 V 81.375 L 44.53125,79.25 Z m 46.625,0.125 v 2.46875 l -11.21875,3.8125 0.03125,-2.5 z m -77.90625,0.0625 9.875,6.4375 H 23.0625 v 2.65625 l -9.78125,-6.5 z M 50,78.875 53.21875,80.96875 53.25,84 49.96875,81.875 Z m -10.3125,0.15625 c 0.510307,0.333103 1.02374,0.665252 1.53125,1 V 82.875 l -1.5625,-1 z m -4.71875,0.125 c 2.063572,1.331331 4.127549,2.664182 6.1875,4 l 0.03125,3.4375 -6.21875,-4.0625 z M 42.5,79.8125 v 15.5 l 3.875,2.78125 -0.125,-15.75 z m 25.875,0 V 83 L 58.34375,86.40625 58.375,83.1875 Z m 30.53125,0 2.90625,2.21875 -4.8125,1.625 0.03125,-3.21875 z m 9.75,0.125 V 83 l -1.46875,0.5 -2.75,-2.15625 z M 12.625,80.15625 v 1.6875 l 41.03125,27.375 24.5625,-8.71875 4.375,3.46875 v 0.0625 l -3.71875,1.375 5.53125,5.125 -24.375,8.8125 L 5.5,82.625 Z m 30.1875,0.21875 3.125,2.1875 0.125,15 -3.25,-2.40625 z M 96.84375,80.5 v 3.21875 L 95,84.34375 95.03125,81.125 Z M 94.375,80.84375 V 93.9375 l -0.59375,0.25 -0.1875,-12.59375 -9.65625,3.25 0.0625,12.8125 -0.90625,0.3125 V 85.1875 l -9.75,3.46875 V 101.375 l -0.75,0.28125 v -13.375 z m -20.25,0.375 v 3.125 l -7.375,2.5 -0.125,-0.0625 V 86.875 l -3.40625,1.15625 0.03125,-3.125 z m -55.59375,0.375 4.15625,2.8125 v -2.75 l 5.5625,3.625 v 3 l -9.71875,-6.3125 z m 74.75,0.5 V 82.8125 L 84.5,96.84375 V 95.5625 L 92.875,82.21875 Z M 102,82.15625 102.6875,82.6875 102.625,85.0625 95,87.625 V 84.53125 Z M 92.65625,82.3125 84.46875,95.25 v -1.4375 l 7,-11.09375 z M 79.8125,82.59375 v 2.46875 l -7.78125,2.65625 v 1 l -3.5,1.1875 0.03125,-3.5 z m 11.4375,0.1875 -6.78125,10.75 v -1.4375 L 90.0625,83.1875 Z M 34.96875,82.8125 c 1.48626,0.974699 3.030785,1.987112 4.53125,2.96875 v 3 l -4.53125,-2.9375 z m 68.21875,0.25 8.65625,6.59375 0.0625,5.03125 L 103,88.78125 Z m -9.90625,0.03125 0.03125,1.34375 -8.09375,12.78125 -0.71875,0.25 v -0.3125 z M 5.21875,83.1875 59.78125,120 59.875,125 5.25,88.21875 Z m 103.4375,0.03125 0.0312,1.40625 -1.28125,-0.96875 z M 58.1875,83.25 v 3.1875 L 54.25,87.78125 v -3.1875 z m 31.625,0.03125 -5.34375,8.5 -0.03125,-1.40625 4.25,-6.71875 z m -1.375,0.46875 -4,6.3125 V 88.5 l 2.71875,-4.3125 z M 47.75,84.28125 49.8125,85.625 v 2.90625 L 47.75,87.1875 Z m 39.15625,0 -2.46875,3.90625 -0.03125,-1.59375 1.21875,-1.875 z m 6.40625,0.4375 v 1.4375 L 86.59375,96.71875 85.5,97.125 Z m -7.96875,0.09375 -0.9375,1.46875 V 85.125 Z M 63.0625,84.96875 v 3.125 L 60.40625,89 60.3125,88.90625 l -0.125,0.15625 -5.90625,2 L 54.25,87.96875 Z M 102.625,85.25 102.5625,88.5 96.96875,90.375 97,87.15625 Z M 23.25,85.3125 34.0625,92.34375 V 95.25 L 23.21875,88.03125 Z M 50,85.75 l 3.28125,2.15625 0.03125,2.875 -3.34375,-2.15625 z m 32.65625,0 v 1.03125 l -0.8125,-0.75 z m -42.9375,0.15625 c 0.483333,0.316757 1.023897,0.671861 1.46875,0.96875 l -0.03125,2.96875 -1.5,-0.96875 z m -4.75,0.21875 6.1875,4 v 3.25 l -6.21875,-4 z m 46.625,0 1.0625,0.96875 0.03125,1.59375 -2.3125,-2.125 z m 11.71875,0.3125 0.03125,1.5 -5.28125,8.25 -1.21875,0.4375 z M 68.375,86.46875 v 3.5 L 68.28125,90 68,89.09375 67.125,88.6875 l 0.65625,-1.375 -0.8125,-0.375 z m 11.75,0.1875 L 82.6875,89 v 1.5625 l -3.78125,-3.46875 z m 24.53125,0.09375 -0.0937,2.71875 4.0625,2.5 2.53125,-1.8125 -1.90625,0.28125 0.25,-1.5625 -1.46875,0.4375 -0.0937,-2.375 -1.0625,1.6875 -0.78125,-1.5625 -0.59375,1.25 z m -38.0625,0.3125 -0.0625,1.375 -0.65625,-0.3125 -0.59375,0.59375 1.0625,0.53125 -0.8125,1.6875 -1.46875,0.5 -1.75,-1.15625 1,-1.125 -1.1875,0.03125 -0.65625,0.75 -0.90625,-0.8125 z m 0.3125,0.03125 L 67.5,87.46875 67,88.375 66.78125,88.28125 Z m 11.75,0.09375 4.03125,3.6875 0.03125,1.53125 -5.25,-4.8125 z M 96.8125,87.21875 V 90.4375 L 94.96875,91.0625 95,87.84375 Z m -49.0625,0.25 5.5625,3.625 L 53.34375,94.5 47.75,90.84375 Z m 29.46875,0.21875 5.5,5 V 94.25 l -6.6875,-6.125 z m -48.8125,0.15625 6.53125,4.375 V 89.625 L 39.5,92.59375 v 3 L 28.40625,88.375 Z m 47.40625,0.375 6.90625,6.3125 v 1.4375 l -8,-7.375 z m 17.53125,0 v 1.5 l -3.78125,5.96875 -1.25,0.4375 z M 65.875,88.375 67.90625,89.25 68.21875,90 66.5,89.125 66.4375,89.09375 65.5,88.625 Z m 8.5625,0.3125 8.3125,7.5625 v 1.375 l -8.90625,-8.25 v -0.46875 z m 28.125,0.03125 v 0.46875 l 0.15625,0.09375 v 1.78125 l -7.75,2.71875 v -2.5 z m -30.53125,0.1875 v 3.25 L 67.5,93.6875 l -1.4375,-0.96875 0.59375,-2 L 68.25,90.1875 68.375,90.25 68.34375,90.15625 Z m -11.625,0.34375 0.75,0.71875 -0.1875,0.1875 -1.0625,-0.4375 z m 2.625,0 -1.3125,1.40625 -0.0625,0.0625 -0.65625,0.75 -0.15625,-0.4375 1.375,-1.6875 z M 59.9375,89.34375 59.5,89.875 61.0625,90.4375 60.59375,91 61,91.71875 l 0.8125,-0.875 1.09375,0.96875 -4.5625,1.5625 0.03125,-3.5 z M 66.46875,89.375 66.6875,89.4375 66.875,89.5 65.90625,92.625 65.5,92.34375 65.875,91.28125 65.8125,91.25 l -0.375,1.0625 -0.25,-0.15625 z m 36.4375,0.03125 L 104.5,90.4375 102.875,91 Z m -35.875,0.15625 1,0.53125 -1.3125,0.4375 z m 6.8125,0.125 8.90625,8.21875 v 0.1875 L 81.90625,98.375 73.875,90.96875 Z m -15.65625,0.25 v 3.5 l -3.875,1.3125 -0.03125,-3.5 z m 35.1875,0.09375 v 1.53125 l -2.28125,3.5625 -1.28125,0.46875 z m 19.03125,0.03125 1.09375,0.84375 c 0.45274,-0.09722 0.71282,-0.285143 0.875,-0.5 l 8.9375,6.3125 -20.75,7.75 -6.03125,-5.53125 -3.65625,1.34375 -4.34375,-3.4375 16.6875,-5.9375 7.1875,4.6875 z M 62.1875,90.40625 69,94.9375 l 0.8125,1.25 0.03125,0.09375 -6.21875,-4.4375 -0.0625,0.0625 6.15625,4.53125 L 68,96 61.9375,90.71875 62.0625,90.5625 Z M 47.75,91.15625 49.8125,92.5 v 2.96875 L 47.75,94.125 Z M 65.40625,91.1875 65,92.03125 64.28125,91.5625 Z m 8.46875,0.09375 7.84375,7.1875 L 80.5625,98.875 73.875,92.78125 Z m 19.5,0.5625 0.03125,1.53125 -0.8125,1.21875 -1.25,0.4375 z m -30.3125,0.125 v 3.1875 L 58.28125,96.8125 H 58.1875 v 0.03125 l -3.875,1.3125 V 94.9375 Z m 0.1875,0.15625 1.21875,1.0625 v 0.03125 l -0.90625,1.8125 -0.34375,0.125 z M 72.03125,92.34375 72,95.4375 69.90625,96.15625 69.1875,94.78125 68.5625,94.375 V 93.53125 Z M 34.25,92.46875 44.4375,99.125 v 3 L 34.21875,95.34375 Z M 50,92.625 l 3.375,2.1875 0.03125,3 -3.4375,-2.25 z m -10.3125,0.09375 1.46875,0.96875 -0.03125,2.375 6.625,4.40625 V 98 l 2.0625,1.34375 v 2.96875 L 39.65625,95.71875 Z m 34.1875,0.375 6.40625,5.875 -1.125,0.40625 -5.28125,-4.84375 z m -9.25,0.25 L 64.90625,93.625 63.125,98.40625 63.09375,96.625 Z m 3.75,0.25 V 94.25 l -0.65625,-0.4375 z m -3.34375,0.09375 0.375,0.375 -1.03125,3.25 -1.09375,1.25 z m 28.375,0 v 0.625 L 92.875,94.5 Z m -27.8125,0.53125 2.28125,2.03125 0.5,0.09375 v 0.3125 l -4.59375,1.53125 0.8125,-0.75 z M 47.75,94.4375 l 5.65625,3.6875 0.03125,3.25 -5.6875,-3.6875 z m 26.125,0.4375 5,4.5625 -1.0625,0.40625 -3.90625,-3.5625 z M 63.46875,95.25 62.8125,96.59375 63,98.5 58.34375,100.0625 58.375,96.96875 Z M 72,95.625 v 3.25 l -8.78125,2.96875 0.03125,-3.125 0.21875,-0.1875 5.84375,-2 0.875,0.1875 -0.21875,-0.40625 z m -3.46875,0.75 0.4375,0.09375 -0.4375,0.15625 z m 5.375,0.21875 3.625,3.3125 -1.21875,0.4375 -2.40625,-2.1875 z m 14.40625,0.3125 4.34375,3.4375 -9.875,3.625 v -0.0937 L 78.4375,100.4063 Z m -30.125,0.125 v 3.09375 l -3.84375,1.3125 -0.03125,-3.09375 z m 66.09375,0.0625 0.0625,5.625 -21.65625,7.65625 v -5.59375 z m -50.375,1.40625 2.125,1.9375 -1.25,0.46875 L 73.9375,100.125 Z M 63,98.71875 63.03125,98.9375 63.0625,98.90625 v 3 l -8.71875,2.9375 V 101.625 Z m 9,0.34375 v 2.8125 l -3.46875,1.21875 0.03125,-2.875 z M 44.625,99.21875 53.46875,105 53.5,108.15625 44.59375,102.25 Z m 5.375,0.25 3.4375,2.21875 0.03125,3 -3.5,-2.28125 z M 96.21875,99.5 l 0.125,1.90625 -2.96875,1.0625 -0.1875,-1.875 z m 0.40625,0 5.5625,5.21875 0.0625,4.46875 -1,-0.46875 -0.0937,-1.21875 -1.5625,-0.90625 -0.03125,-1.46875 -1.375,-0.75 0.03125,-1.84375 -1.5,-0.9375 z m -28.25,0.78125 v 2.875 l -10.03125,3.5625 0.03125,-3.0625 z m 5.5625,0.15625 0.59375,0.53125 -0.59375,0.21875 z m 19.03125,0.25 0.21875,1.84375 -10.09375,3.59375 -0.0625,-0.0625 -0.1875,-1.6875 z m 3.40625,1.09375 1.28125,0.84375 -2.90625,1.03125 -1.21875,-0.875 z m -3.03125,1.0625 1.1875,0.875 -9.96875,3.53125 v -0.0937 l -1.125,-0.8125 z m 4.53125,0.0625 v 1.375 l -2.6875,0.96875 -0.21875,-1.3125 z m -39.6875,0.8125 v 3.0625 L 54.375,108.125 54.34375,105.03125 Z M 94.78125,104 l 0.1875,1.3125 -10.125,3.59375 -0.21875,-1.34375 z m -12.125,0.4375 0.1875,1.6875 0.0625,0.0625 -1.84375,0.65625 -1.46875,-1.28125 z m 15.5,0.0937 0.9375,0.5 -3,1.0625 -0.84375,-0.5312 z m 1.0625,0.875 0.03125,1.0625 -2.59375,0.90625 -0.125,-0.96875 -0.0625,-0.0312 z m -4.1875,0.25 0.84375,0.53125 -9.84375,3.53125 -0.84375,-0.59375 z m -11.78125,0.75 1.15625,0.875 v 0.0312 l -2.03125,0.71875 -1.0625,-0.9375 z m 13.03125,0.0312 0.0625,0.0312 0.09375,1 -10.09375,3.59375 -0.15625,-1.09375 z m 3.1875,0.34375 1.03125,0.65625 -2.78125,1 L 96.75,107.75 Z M 84.4375,107.625 84.625,108.96875 V 109 L 83.78125,109.28125 82.625,108.25 Z m 16.3125,0.15625 -0.0312,0.875 -2.6563,0.90625 L 98,108.75 Z m -4.21875,0.0312 1,0.6875 -9.90625,3.53125 V 112 l -1,-0.6875 z m 1.34375,0.96875 0.0625,0.8125 -10.21875,3.5 -0.0625,-0.75 z m 3.09375,0.125 1.03125,0.53125 -2.96875,1.03125 -0.9375,-0.53125 v -0.0625 z m -16,0.3125 0.875,0.5625 -1.0625,0.375 -0.71875,-0.625 z m 17.3125,0.5 v 1 l -2.5625,0.875 0.03125,-0.71875 -0.3125,-0.15625 z m -4.3125,0.21875 V 110 l 0.9375,0.53125 L 88.9375,114 87.84375,113.34375 Z M 86,110.03125 86.09375,111.125 v 0.0312 l -0.9375,0.3125 0.25,-0.75 -0.375,-0.34375 z m 13.3125,0.71875 0.21875,0.125 -0.03125,0.78125 -10.15625,3.5 0.03125,-0.90625 -0.03125,-0.0312 z m -14.75,0.28125 v 5.53125 l -24.125,8.71875 -0.125,-5.4375 z m 1.875,0.34375 1.0625,0.71875 -2.3125,0.8125 v -1.09375 z m 1.0625,1.03125 0.0625,0.75 -2.34375,0.78125 -0.03125,-0.71875 z m 0.15625,1.03125 1.125,0.59375 -3.5625,1.25 V 114.25 Z m 1.5,0.84375 -0.03125,0.9375 -3.8125,1.3125 -0.0625,-0.875 z"
       id="path1" />
  </g>
</svg>
