<?xml version="1.0" encoding="UTF-8" standalone="no"?>
<!-- Created with Inkscape (http://www.inkscape.org/) -->

<svg
   width="128"
   height="128"
   id="svg2"
   sodipodi:version="0.32"
   inkscape:version="1.3.2 (1:1.3.2+202311252150+091e20ef0f)"
   version="1.0"
   sodipodi:docname="Caravan.svg"
   inkscape:output_extension="org.inkscape.output.svg.inkscape"
   xmlns:inkscape="http://www.inkscape.org/namespaces/inkscape"
   xmlns:sodipodi="http://sodipodi.sourceforge.net/DTD/sodipodi-0.dtd"
   xmlns="http://www.w3.org/2000/svg"
   xmlns:svg="http://www.w3.org/2000/svg"
   xmlns:rdf="http://www.w3.org/1999/02/22-rdf-syntax-ns#"
   xmlns:cc="http://creativecommons.org/ns#"
   xmlns:dc="http://purl.org/dc/elements/1.1/">
  <defs
     id="defs4" />
  <sodipodi:namedview
     id="base"
     pagecolor="#ffffff"
     bordercolor="#666666"
     borderopacity="1.0"
     gridtolerance="10000"
     guidetolerance="10"
     objecttolerance="10"
     inkscape:pageopacity="0.0"
     inkscape:pageshadow="2"
     inkscape:zoom="4"
     inkscape:cx="-4.625"
     inkscape:cy="48.125"
     inkscape:document-units="px"
     inkscape:current-layer="layer1"
     showgrid="false"
     width="744.09px"
     inkscape:window-width="1920"
     inkscape:window-height="1012"
     inkscape:window-x="0"
     inkscape:window-y="0"
     showguides="true"
     inkscape:guide-bbox="true"
     inkscape:showpageshadow="2"
     inkscape:pagecheckerboard="0"
     inkscape:deskcolor="#d1d1d1"
     inkscape:window-maximized="1" />
  <metadata
     id="metadata7">
    <rdf:RDF>
      <cc:Work
         rdf:about="">
        <dc:format>image/svg+xml</dc:format>
        <dc:type
           rdf:resource="http://purl.org/dc/dcmitype/StillImage" />
      </cc:Work>
    </rdf:RDF>
  </metadata>
  <g
     inkscape:label="outline"
     inkscape:groupmode="layer"
     id="layer1">
    <path
       d="m 86.375,8.96875 c -0.916806,0.00331 -1.859907,0.1094505 -2.8125,0.3125 -2.3604,0.6980104 -4.452962,2.31935 -6.15625,4.90625 -1.251044,4.067049 -5.479438,6.986525 -8.625,9.96875 -2.926639,2.13089 -6.026824,4.172974 -9.125,6 C 49.873457,35.925262 39.188696,41.038849 32.5,44.0625 c -3.439259,2.378904 -2.78596,2.362168 -4,3.71875 l 3.1875,16.375 c -0.534382,0.413986 -1.067691,0.858565 -1.625,1.34375 -2.796629,2.434697 -4.925833,5.414895 -6.28125,9.125 l -0.8125,0.4375 0.0625,0.09375 -0.25,-0.125 L 23.375,76 c -1.21237,4.687458 -0.713715,9.293793 0.5625,13.9375 1.474738,3.289234 3.656497,5.28557 7.625,6.21875 l -10.375,17.09375 -6.5625,-3.03125 -2.6875,0.375 -2.40625,4.03125 8.15625,3.6875 -3.84375,5.90625 3.3125,1.78125 1.90625,-0.9375 3.28125,-4.75 8.59375,3.25 1.5625,-0.21875 1.59375,-3.53125 -8.75,-4.5 L 36.625,96.21875 c 2.162124,-0.593607 4.136822,-1.712597 5.78125,-3.125 C 42.441163,93.067221 42.466032,93.027892 42.5,93 l 12.1875,6.40625 1.78125,-1.25 c -0.240812,0.720773 0.528389,2.3012 0.8125,3.25 1.808401,4.03344 4.659005,6.11516 10.59375,6.6875 2.969301,-0.30351 5.714295,-1.67542 7.875,-3.53125 1.668848,-1.26807 3.180056,-2.83736 4.4375,-4.53125 3.718167,-6.043372 5.019483,-13.56218 2.125,-19.90625 l 12.78125,-8.90625 c 0.223648,1.525168 0.548464,3.033224 0.96875,4.5625 1.808399,4.03343 4.659,6.115156 10.59375,6.6875 2.9693,-0.303517 5.7143,-1.675417 7.875,-3.53125 1.66884,-1.268081 3.18006,-2.837362 4.4375,-4.53125 4.4344,-7.207515 5.47587,-16.537365 0,-23.4375 -2.23861,-2.108534 -4.60394,-2.906336 -6.9375,-2.84375 -0.5827,-0.08016 -1.13891,-0.132753 -1.65625,-0.1875 l -3,-23.8125 C 102.39501,17.675234 95.23746,8.936736 86.375,8.96875 Z"
       style="opacity:1;fill:#926b2e;stroke-width:1.1162;fill-opacity:1"
       id="path2" />
  </g>
  <g
     inkscape:label="outline copy"
     inkscape:groupmode="layer"
     id="g1"
     style="display:inline">
    <path
       style="opacity:1;fill:#5c2700;fill-opacity:1;stroke:none;stroke-width:1.1162;stroke-miterlimit:4;stroke-dasharray:none;stroke-opacity:1"
       d="m 86.375,8.96875 c -0.916825,0.00331 -1.859887,0.1094462 -2.8125,0.3125 -2.36045,0.6980251 -4.452926,2.319296 -6.15625,4.90625 -1.25107,4.067134 -5.479372,6.986462 -8.625,9.96875 -2.9267,2.130935 -6.026759,4.172936 -9.125,6 C 49.873252,35.925383 39.188836,41.038786 32.5,44.0625 c -3.439331,2.378954 -2.785935,2.36214 -4,3.71875 l 3.1875,16.375 c -0.534393,0.413995 -1.067679,0.858555 -1.625,1.34375 -2.796688,2.434748 -4.925805,5.414817 -6.28125,9.125 l -0.8125,0.4375 0.0625,0.09375 -0.25,-0.125 L 23.375,76 c -1.212395,4.687556 -0.713742,9.293695 0.5625,13.9375 1.474769,3.289303 3.656414,5.28555 7.625,6.21875 l -10.375,17.09375 -6.5625,-3.03125 -2.6875,0.375 -2.40625,4.03125 8.15625,3.6875 -3.84375,5.90625 3.3125,1.78125 1.90625,-0.9375 3.28125,-4.75 8.59375,3.25 1.5625,-0.21875 1.59375,-3.53125 -8.75,-4.5 L 36.625,96.21875 c 2.162169,-0.593619 4.136787,-1.712567 5.78125,-3.125 C 42.441164,93.06722 42.466031,93.027893 42.5,93 l 12.1875,6.40625 1.78125,-1.25 c -0.240817,0.720788 0.528383,2.30118 0.8125,3.25 1.808439,4.03352 4.65888,6.11515 10.59375,6.6875 2.969363,-0.30352 5.71425,-1.67538 7.875,-3.53125 1.668883,-1.2681 3.18003,-2.83732 4.4375,-4.53125 3.718245,-6.043499 5.019544,-13.562047 2.125,-19.90625 l 12.78125,-8.90625 c 0.223653,1.5252 0.548455,3.033192 0.96875,4.5625 1.808437,4.033515 4.65888,6.115144 10.59375,6.6875 2.96936,-0.303523 5.71425,-1.675378 7.875,-3.53125 1.66888,-1.268108 3.18003,-2.837326 4.4375,-4.53125 4.43449,-7.207666 5.47598,-16.53722 0,-23.4375 -2.23866,-2.108578 -4.60389,-2.906337 -6.9375,-2.84375 -0.58271,-0.08016 -1.1389,-0.132752 -1.65625,-0.1875 l -3,-23.8125 C 102.39491,17.675099 95.237646,8.9367353 86.375,8.96875 Z m 0.15625,0.5625 c 8.464531,0.1156619 15.53033,8.595567 20.40625,14.65625 L 109.75,47.875 c -0.17043,-0.0095 -0.40048,-0.03562 -0.53125,-0.03125 -3.05145,0.102003 -4.84328,1.595192 -7.03125,3.5 -2.494098,2.171318 -4.452173,4.770598 -5.8125,7.9375 C 90.301157,63.558804 81.088536,69.611836 75,73.875 74.415117,73.77607 73.833403,73.734353 73.25,73.75 c -1.084527,-0.149199 -2.19637,-0.301846 -2.8125,-0.28125 -3.051447,0.102003 -4.84328,1.595192 -7.03125,3.5 -0.819416,0.71337 -1.545968,1.502676 -2.25,2.3125 L 58.46875,57.75 C 54.490917,51.398716 48.731143,46.973468 42.25,43.40625 40.562055,42.664883 38.776481,42.515833 36.96875,42.625 c 6.31046,-3.002446 14.106458,-7.240958 22.8125,-12.375 3.198785,-1.886356 6.383923,-3.972071 9.40625,-6.15625 0.825888,-0.339149 1.406597,-0.955132 2.0625,-1.5 1.906274,-1.458799 3.681152,-2.975143 5.3125,-4.5 0.620907,0.251084 1.333529,0.713132 2.03125,1.15625 L 78.5,18.9375 76.78125,17.90625 c 0.861323,-0.813471 1.683188,-1.613491 2.4375,-2.4375 1.773815,0.671333 2.804405,1.711431 4.21875,2.5625 V 17.8125 c -1.628258,-1.331936 -2.915552,-2.131912 -4,-2.59375 0.664928,-0.738375 1.280587,-1.476463 1.84375,-2.21875 2.60028,1.082464 6.614033,3.276508 8.84375,4.6875 L 90.15625,17.625 C 87.311553,15.635598 84.469697,13.852753 81.625,12.53125 82.236547,11.690379 82.791318,10.839542 83.25,10 84.288335,9.5763574 85.426266,9.5640153 86.53125,9.53125 Z m -3.8125,0.6875 c -0.386134,0.694417 -0.92184,1.464986 -1.53125,2.25 -0.504878,0.02654 -1.101618,-0.07053 -1.65625,-0.09375 0.347698,0.07127 0.811482,0.260265 1.34375,0.46875 -0.601573,0.747951 -1.264044,1.527016 -2,2.3125 L 78.09375,15.125 c 0.227225,0.05357 0.419065,0.123286 0.625,0.1875 -0.802911,0.850004 -1.670053,1.682963 -2.5625,2.53125 l -0.28125,0.0625 c 0.05984,0.0039 0.124554,0.05079 0.1875,0.0625 -1.81786,1.72129 -3.734778,3.383808 -5.5,4.8125 2.404298,-2.33822 6.678374,-5.645826 7.9375,-9.4375 1.225778,-1.44837 2.748071,-2.489124 4.21875,-3.125 z m 18.75,25.46875 -0.3125,0.09375 0.6875,1.84375 -1.4375,0.9375 -0.78125,-2.40625 -0.40625,0.0625 0.9375,2.5 L 97.625,40.375 97,38.15625 l -0.34375,0.15625 0.625,2.28125 -3.09375,2.03125 0.65625,3.09375 -0.9375,0.46875 v 0.28125 l 1,-0.53125 0.375,1.78125 -1.21875,0.75 0.3125,0.21875 0.96875,-0.59375 0.5,2.28125 2.9375,-1.90625 0.34375,1.0625 0.34375,-0.09375 -0.34375,-1.1875 1.75,-1.15625 c 0.32746,0.884211 0.6579,1.788108 0.875,2.71875 h 0.21875 c -0.14214,-1.057268 -0.34996,-2.043258 -0.65625,-3 l 1.71875,-1.125 0.6875,2.25 0.28125,-0.15625 -0.71875,-2.25 1.75,-1.125 -0.4375,-3 2.0625,-1.3125 -0.125,-0.28125 -2,1.21875 -0.40625,-2.625 1.03125,-0.65625 -0.125,-0.28125 -0.96875,0.59375 -0.25,-1.75 -1.71875,1.125 z m 2.03125,1.15625 0.21875,1.4375 -0.5,0.3125 0.0937,0.3125 0.46875,-0.28125 0.40625,2.625 -0.59375,0.34375 0.0312,0.40625 0.625,-0.375 0.375,2.4375 -1.5,1 -0.3125,-1 -0.1875,0.28125 0.28125,0.875 -1.75,1.1875 C 100.93972,45.801738 100.70447,45.209412 100.375,44.625 l -0.28125,0.15625 c 0.17536,0.653832 0.39474,1.278856 0.625,1.90625 L 99,47.875 l -0.21875,-0.71875 -0.375,0.21875 0.25,0.71875 -2.59375,1.75 -0.40625,-1.9375 0.6875,-0.4375 -0.125,-0.34375 -0.65625,0.40625 -0.375,-1.75 0.71875,-0.375 v -0.25 l -0.75,0.375 -0.5625,-2.59375 2.8125,-1.90625 0.5625,2.09375 L 98.40625,43 97.75,40.78125 l 2.53125,-1.75 0.1875,0.5 0.21875,-0.09375 -0.1875,-0.5625 1.4375,-0.96875 0.21875,0.59375 0.25,-0.1875 -0.21875,-0.59375 z m -66,6.53125 c 1.169016,0.0057 2.272589,0.322533 3.4375,0.6875 l -0.0625,1.03125 c -2.496977,3.78994 -5.523475,4.160416 -8.75,3.28125 L 30.40625,46 C 32.221667,44.169723 34.839975,43.324013 37.5,43.375 Z m 36.46875,0.53125 -2.21875,1.375 c -0.214998,-0.260276 -0.439976,-0.497055 -0.71875,-0.8125 L 70.8125,44.5 c 0.294239,0.277161 0.547913,0.579296 0.78125,0.90625 L 69.71875,46.5625 69,45.34375 68.78125,45.625 l 0.75,1.03125 -2.25,1.40625 -0.90625,-1.28125 -0.1875,0.15625 0.90625,1.25 -2.28125,1.4375 -0.28125,-0.375 -0.1875,0.0625 0.3125,0.40625 -1.75,1.09375 c 0.782908,0.709914 1.094222,1.343363 1.28125,1.96875 l -0.8125,0.5625 0.03125,0.125 0.8125,-0.5 c 0.212261,0.812896 0.256932,1.625437 0.8125,2.625 L 68,53.46875 l 0.65625,1 0.1875,-0.21875 -0.625,-0.9375 2.1875,-1.53125 c 0.294721,0.497986 0.5625,0.96875 0.5625,0.96875 L 71.25,52.5625 c 0,0 -0.300098,-0.452728 -0.65625,-0.9375 L 72.3125,50.40625 72.875,51.0625 72.90625,50.875 72.4375,50.3125 74.15625,49.09375 C 74.706664,49.600819 75.3125,50 75.3125,50 l -0.03125,-0.25 c 2e-6,0 -0.427068,-0.407124 -0.84375,-0.84375 L 75.78125,47.9375 C 75.448601,47.375532 75.034545,47.215699 74.6875,47.03125 l 0.625,-0.5 -0.21875,-0.09375 -0.65625,0.40625 c -0.43041,-0.321676 -0.703261,-0.893817 -0.46875,-2.9375 z M 41.375,44.1875 c 0.177204,0.05656 0.349916,0.09879 0.53125,0.15625 3.955067,1.472343 8.448813,4.816267 12.65625,9.59375 L 53.375,54.59375 C 48.053526,52.656552 44.206125,49.737907 41.28125,44.9375 Z m 32.3125,0 c -0.151281,1.243034 0.02317,2.154705 0.5625,2.78125 L 74,47.125 l 0.0625,0.34375 0.40625,-0.3125 c 0.285934,0.258486 0.619386,0.491256 1.0625,0.625 L 74.25,48.6875 C 74.16798,48.59843 74.068854,48.51783 74,48.4375 l -0.3125,0.15625 c 0.08705,0.101556 0.181347,0.213393 0.28125,0.3125 L 72.25,50.125 72.03125,49.84375 71.9375,50 l 0.1875,0.21875 -1.6875,1.1875 c -0.136136,-0.179403 -0.270603,-0.341745 -0.40625,-0.5 L 69.875,51 c 0.132023,0.154027 0.275592,0.324518 0.40625,0.53125 L 68.0625,53.09375 67.78125,52.6875 67.5625,52.84375 67.84375,53.25 65.4375,54.96875 c -0.578896,-0.634447 -0.851123,-1.369 -1.0625,-2.0625 l 1.15625,-0.6875 c 0.02521,0.01784 0.01106,-0.0048 0,-0.03125 -0.01336,-0.0075 0.01829,0.05622 -0.21875,-0.21875 l -1.03125,0.71875 c -0.211638,-0.710289 -0.383566,-1.343262 -0.84375,-1.75 L 64.875,50 65.6875,51.09375 65.84375,51 65.03125,49.90625 67.25,48.4375 l 0.34375,0.46875 0.1875,-0.15625 -0.3125,-0.46875 2.1875,-1.4375 0.78125,1.0625 0.09375,0.03125 -0.71875,-1.21875 1.84375,-1.1875 c 0.187186,0.268431 0.378557,0.542938 0.5625,0.8125 L 72.4375,46.25 C 72.236683,45.908069 72.040117,45.652902 71.84375,45.40625 Z M 41.09375,45.25 c 0.59083,1.203658 1.907262,3.077386 2.71875,4.15625 l 2.03125,25.5625 C 44.668354,75.999305 42.749339,75.994514 42.3125,74.125 l -2.21875,-27.75 c 0.37359,-0.446653 0.646,-0.649869 1,-1.125 z m -11,1.09375 1.71875,1.96875 c 0.632641,2.151229 1.070177,3.790144 0.34375,5.96875 L 30.3125,54.46875 29,47.9375 c 0.307847,-0.593149 0.673833,-1.118313 1.09375,-1.59375 z m 9.6875,0.34375 1.25,15.71875 L 36.875,65.375 c -0.307775,-0.858303 -0.881911,-1.751336 -1.65625,-2.78125 0.581257,-3.532734 -0.160346,-5.847961 -2.78125,-8.1875 1.609792,-1.553467 0.601858,-4.032982 0.09375,-5.59375 3.553445,1.445086 5.506336,-0.07302 7.25,-2.125 z M 109.5625,48.5 c -3.52775,1.005801 -6.81502,3.798814 -9.1875,7 -4.427273,7.209723 -5.48299,16.540259 0,23.4375 3.18227,3.007211 6.64691,3.414512 9.875,2.34375 -1.11891,0.471985 -2.29037,0.71734 -3.625,0.8125 -4.85126,-0.403151 -7.30948,-2.332923 -9.75,-6.46875 -1.671303,-3.727655 -2.1572,-9.239217 -0.8125,-14.65625 1.302457,-3.799183 3.96527,-7.098824 6.6875,-9.46875 1.90116,-1.65512 4.20447,-2.757435 6.8125,-3 z m 1.96875,0.4375 c 0.27751,-0.01383 0.56565,-0.01082 0.84375,0 2.02257,0.07867 4.07601,0.833618 5.9375,2.4375 5.45273,6.513741 3.98279,15.897365 0.0625,22.75 -4.00504,6.049934 -11.77818,9.564964 -17.4375,4.03125 -5.498953,-6.516815 -4.0873,-15.35304 -0.15625,-22.21875 2.5483,-3.866681 6.5874,-6.792572 10.75,-7 z m -67.375,0.6875 c 1.811094,2.158693 3.897229,3.798466 6.5625,4.71875 L 44.9375,59 Z m 66.875,0.8125 c -0.43841,0.01656 -0.87591,0.05955 -1.34375,0.125 -7.68277,2.406785 -10.5988,9.494247 -11.0625,17 0.06537,6.984952 3.6957,12.792626 11.15625,11.75 7.68507,-2.403902 10.69164,-9.924591 11.15625,-17.4375 -0.0602,-6.573736 -3.33006,-11.685974 -9.90625,-11.4375 z m 0.0312,0.40625 c 6.2242,-0.369847 8.9211,5.704035 9.28125,11.375 -0.002,0.07192 -0.0284,0.146857 -0.0312,0.21875 -0.0516,-0.471198 -0.22191,-0.805747 -0.5,-0.8125 l -0.59375,0.125 c 0.001,-0.248932 0.005,-0.573674 0,-0.6875 -0.15872,-1.930141 -0.86159,-3.677478 -1.90625,-5.21875 l 0.53125,-0.65625 c 0.10265,-0.852633 -1.6195,-2.839176 -2.75,-2.5 l -0.28125,0.53125 c -1.63453,-1.48944 -3.64353,-1.789527 -5.75,-1.9375 0.62621,-0.331522 1.31121,-0.362898 2,-0.4375 z M 109.3437,51.625 c 0.20975,0.01033 0.42594,0.03756 0.625,0.0625 l -0.125,1.8125 -1.09375,0.75 c -0.028,-0.850302 -0.076,-1.670563 -0.0937,-2.59375 0.23324,-0.0071 0.46707,-0.04211 0.6875,-0.03125 z m -1.1875,0.0625 c 0.0709,3.130924 0.19922,6.445626 0.28125,9.5625 0.0962,0.286512 -1.29509,0.888805 -1.1875,0.1875 l -0.9375,-8.65625 c 0.57489,-0.401163 1.19707,-0.775097 1.84375,-1.09375 z m 2.53125,0.15625 c 1.52309,0.33575 2.7508,1.025145 3.9375,1.71875 l -4.0625,7.40625 c -0.31029,-0.0637 -0.52202,-0.05689 -0.71875,-0.0625 z M 105.96334,53.257582 106.2187,56 l -3.6875,2.5 -0.71875,-0.6875 c 0.85863,-1.511449 1.62905,-2.603994 2.92868,-3.748082 0.26564,-0.233846 0.93821,-0.59135 1.22221,-0.806836 z M 115.625,53.25 c 0.88479,-0.2095 1.90035,1.512579 1.5,2.03125 l -5,6.25 C 111.72263,61.254559 111.33939,61.072867 110.96875,61 c 1.57054,-2.531284 2.851,-5.466806 4.65625,-7.75 z m -5.78125,0.53125 -0.21875,3.53125 -0.78125,0.53125 c -0.0272,-1.088152 -0.0572,-2.222176 -0.0937,-3.3125 z m -55,0.5 c 0.996193,1.150961 1.986897,2.346309 2.9375,3.65625 l 1.0625,8.375 L 56.6875,66.25 C 54.396873,62.871422 53.082129,59.006234 53.53125,54.6875 Z m -3.59375,0.25 c 0.53766,0.160715 1.102083,0.306698 1.6875,0.40625 -0.491931,2.493107 -0.05073,4.801748 0.84375,6.96875 -2.582962,2.878328 -5.273033,5.215119 -7.96875,7.53125 L 45,59.78125 Z m -18.96875,0.0625 c 2.406136,2.113565 2.398774,5.118616 2.65625,8.03125 l -2.8125,0.9375 -1.6875,-8.46875 z m 84.78125,1.5625 c 0.96248,1.480921 1.34328,3.156765 1.5,5.0625 0.0434,0.273185 0.0359,0.472004 0.0312,0.6875 L 113,63.21875 c -0.12395,-0.466837 -0.32637,-0.920901 -0.59375,-1.375 z M 106.25,56.25 l 0.34375,3.09375 -1.8125,1.28125 -2.09375,-2 z m 3.375,1.15625 -0.1875,3.375 0.0937,0.09375 c -0.21763,0.01595 -0.40319,0.06683 -0.65625,0.09375 0.005,-1.071642 -0.007,-2.053984 -0.0312,-3.03125 z m -8,0.71875 5,4.71875 c -0.0227,0.775387 -0.0368,1.530212 -0.75,1.5 L 100.75,60 c 0.26011,-0.645278 0.547,-1.268816 0.875,-1.875 z m 5,1.375 0.1875,1.75 c -0.4427,-0.178081 -0.57945,0.289725 -0.875,0.4375 l -1.0625,-1 z m -10.71875,0.9375 c -0.06132,0.167185 -0.129401,0.329768 -0.1875,0.5 -0.268398,0.875285 -0.444575,1.755216 -0.59375,2.625 L 78.15625,75.03125 c -0.71596,-0.423736 -1.460997,-0.7279 -2.1875,-0.9375 5.967468,-4.119174 14.159942,-9.557461 19.9375,-13.65625 z m 4.65625,0.0625 1.96875,1.625 -2.9375,2 c 0.218801,-1.2374 0.53501,-2.458353 0.96875,-3.625 z m 6.25,0.9375 0.0625,0.4375 c 0.5917,0.885354 1.30076,0.196456 1.71875,-0.3125 h 0.3125 c -0.45543,0.330978 -0.89554,0.773015 -1.3125,1.28125 -1.11126,1.916343 -1.18612,3.896031 0,5.75 0.2683,0.204493 0.52754,0.357976 0.78125,0.46875 l -0.78125,0.09375 c 0.20502,-0.976622 -1.12867,-1.19993 -1.5625,-1.34375 -0.17387,0.266177 -0.32931,0.493049 -0.5,0.75 -0.22524,-0.310016 -0.39093,-0.64665 -0.53125,-1 l 0.90625,-0.25 c 0.51226,-0.796713 0.0995,-1.476026 -0.25,-1.875 l -1,0.0625 c -0.0616,-0.369306 0.0413,-0.693739 0.15625,-1.03125 L 105.125,64.25 106.03125,65 c 0.5399,-0.406459 1.11197,-1.164018 0.90625,-2.34375 l -0.8125,-0.75 z m 3.0625,0.03125 c 0.6661,-0.08385 1.5034,0.337766 2.15625,0.71875 0.2199,0.31629 0.14789,0.719232 0.25,1.0625 L 109.5,63.1875 c -0.74167,0.586946 -1.14949,1.336201 -1.15625,2.125 -0.007,0.788795 0.36934,1.569549 0.96875,2.3125 l 2.1875,-0.0625 -0.0625,0.03125 c -0.93793,1.005477 -2.29575,1.372036 -3.46875,0.6875 -1.04826,-1.503436 -0.65872,-3.872718 0.0937,-5.4375 0.46401,-0.639352 1.1464,-1.291154 1.8125,-1.375 z m -7.25,0.75 1.875,1.53125 c -0.0945,0.189369 -0.15062,0.396592 -0.1875,0.59375 l -1.90625,1.3125 -3.0625,0.25 c 0.0511,-0.539235 0.129631,-1.063054 0.21875,-1.59375 z M 53.90625,62.25 c 0.285222,0.650291 0.612746,1.284607 0.96875,1.90625 l -8.71875,9.28125 -0.3125,-3.375 c 2.745532,-2.189021 5.472237,-5.235365 8.0625,-7.8125 z m 65.59375,0 c 0.37086,0.285868 0.64756,1.540492 -0.21875,2.3125 l -4.4375,0.125 c -0.11657,-0.48418 -0.31471,-0.916119 -0.625,-1.21875 z m -84.46875,0.5 c 1.799831,2.672968 1.784294,5.039409 -0.34375,7.3125 L 33.3125,69.375 H 33.28125 L 32.1875,63.9375 Z m 6.0625,0.40625 0.6875,8.90625 -5.625,-2.84375 c 0.855181,-1.136452 1.089144,-2.135109 0.90625,-3.15625 z m 72.71875,0.5 c 0.24689,0.17979 0.686,1.024876 0.75,1.5 0.0612,0.454364 -0.28239,1.340008 -0.71875,1.84375 l -4.28125,0.1875 c -0.39418,-0.545307 -0.56603,-1.369022 -0.5625,-1.78125 0.004,-0.432555 0.26573,-1.206617 0.75,-1.625 z m 6.40625,0.125 c -0.25719,2.634237 -0.96475,5.189382 -2.15625,7.46875 0.57305,-1.99612 0.91184,-4.056398 1.0625,-6.125 h 0.625 c 0.21636,-0.368145 0.37457,-0.854978 0.46875,-1.34375 z M 95.0625,63.875 c -0.18418,1.179112 -0.254147,2.358501 -0.25,3.53125 l -14.25,9.71875 c -0.128358,-0.174818 -0.238603,-0.359376 -0.375,-0.53125 -0.590876,-0.556543 -1.175647,-1.024062 -1.78125,-1.40625 z m 17.71875,0.09375 c -0.72118,0.648286 -1.24328,1.613701 0.0625,2.5 L 113.3125,66.5 c -0.77235,-0.941463 -0.38017,-1.721021 -0.125,-2.5 z m -57.75,0.46875 c 0.408238,0.691561 0.851959,1.374865 1.3125,2.03125 -0.907417,2.414155 -1.53985,5.19643 0.09375,8.53125 -1.212453,1.176595 -1.775652,2.13547 -1.71875,3.21875 L 46.5,74.0625 Z m -23.25,0.3125 0.1875,0.96875 c -1.383321,1.150642 -2.64707,2.491483 -3.71875,3.9375 -0.683021,1.112287 -1.272779,2.272609 -1.78125,3.46875 L 24.25,74.375 c 1.379299,-3.479785 3.835547,-6.507947 6.375,-8.71875 0.370081,-0.322188 0.755641,-0.629318 1.15625,-0.90625 z M 104.25,64.84375 c -0.0139,0.221291 -0.0154,0.433595 -0.0312,0.65625 l -1.03125,0.09375 z m 14.53125,0.28125 c -0.0672,2.034472 -0.43238,4.082044 -1.09375,5.96875 L 113.25,67.53125 113.84375,67.5 c 0.84162,-0.734487 0.9481,-1.33551 1.09375,-2.3125 z m -13.375,0.71875 c 0.39535,0.358174 0.49071,0.735575 0.0625,1.09375 l -6.125,1.53125 c -0.115693,-0.654433 -0.07262,-1.498082 -0.0625,-2.15625 z m -73.3125,0.40625 0.25,1.375 c -1.310855,1.149557 -2.353856,2.510783 -3.1875,4.03125 l -1.75,0.96875 c 0.384616,-0.863025 0.783683,-1.716812 1.25,-2.53125 0.956751,-1.451733 2.130712,-2.75365 3.4375,-3.84375 z M 58.875,66.625 59.96875,75.34375 56.8125,74.875 c -1.392243,-2.439771 -1.162482,-5.36907 -0.25,-8.1875 z m 54.0625,0.90625 4.625,3.96875 c -0.22549,0.594414 -0.49156,1.172026 -0.78125,1.71875 l -4.9375,-5.28125 c 0.11638,-0.122708 0.23004,-0.241322 0.34375,-0.375 z m -18.125,0.03125 c 0.01047,1.052199 0.08257,2.106035 0.21875,3.15625 l -12.9375,8.9375 C 81.686202,78.830561 81.215472,78.026222 80.65625,77.25 Z m 9.8125,0.125 c 0.13343,0.299026 0.31907,0.646002 0.5625,1.03125 L 101.875,68.4375 Z m 1.90625,0.5 c 0.47048,-0.01497 0.85611,0.662741 0.4375,1 l -4.40625,7.28125 c -0.41612,-0.444029 -0.79143,-0.965972 -1.125,-1.5 1.6743,-1.985249 3.16082,-4.377254 4.625,-6.5 0.15071,-0.198616 0.31192,-0.276261 0.46875,-0.28125 z M 111.5,68.25 l 5.0625,5.375 c -1.44405,1.903332 -3.29844,3.497402 -5.59375,4.53125 l -0.625,-9.09375 C 110.7446,68.887589 111.13159,68.591577 111.5,68.25 Z m -79,0.125 0.25,1.3125 -2.46875,1.34375 C 30.918955,70.065316 31.6657,69.173802 32.5,68.375 Z m 68.21875,0.40625 4.375,0.375 c -1.24544,1.850627 -2.46817,3.569507 -3.875,5.40625 -0.91374,-1.607232 -1.49161,-3.490746 -1.78125,-5.4375 z m 9.09375,0.46875 0.8125,9.03125 c -0.27999,0.117681 -0.55135,0.241966 -0.84375,0.34375 -0.35045,0.06576 -0.70048,0.09627 -1.03125,0.125 l -0.0937,-9.40625 c 0.38584,-0.02603 0.77085,-0.06271 1.15625,-0.09375 z m -1.65625,0.15625 0.125,9.375 c -2.1859,0.0809 -3.90279,-0.646537 -5.25,-1.875 l 4.40625,-7.4375 c 0.23606,-0.02084 0.49153,-0.04167 0.71875,-0.0625 z m -72.25,0.0625 5.9375,3.40625 0.0625,0.75 -6.71875,-3.3125 c 0.284176,-0.284585 0.500985,-0.577093 0.71875,-0.84375 z m -2.6875,0.34375 8.625,4.34375 c 0.184536,0.983176 1.7791,2.36519 3.3125,1.65625 l 13.5625,6.84375 c -0.492227,0.857813 -0.926839,1.762629 -1.3125,2.71875 L 57.25,85.21875 30.53125,71.375 Z m -2.75,1.59375 0.0625,0.21875 26.84375,13.78125 c -0.05698,0.141992 -0.101673,0.293244 -0.15625,0.4375 -0.809348,0.549736 -1.753443,1.150263 -2.6875,1.75 L 26.75,73.5625 Z M 26.5625,73.6875 v 0.03125 l 27.78125,14 c -0.959613,0.615555 -1.911208,1.2282 -2.75,1.78125 L 23.5625,75.4375 Z m 44.21875,0.4375 c -3.527747,1.005801 -6.81502,3.798814 -9.1875,7 -4.427271,7.209723 -5.48299,16.540258 0,23.4375 3.182269,3.00722 6.64691,3.41451 9.875,2.34375 -1.118907,0.47199 -2.29037,0.71734 -3.625,0.8125 -4.851257,-0.40314 -7.30948,-2.33292 -9.75,-6.46875 -1.671301,-3.727651 -2.1572,-9.239217 -0.8125,-14.65625 1.302459,-3.799183 3.96527,-7.098824 6.6875,-9.46875 1.901159,-1.65512 4.20447,-2.757435 6.8125,-3 z m -24.59375,0.1875 8.59375,4.5625 0.03125,-0.03125 c 0.125509,0.49024 0.358335,1.012118 0.71875,1.59375 l -9.8125,-4.78125 c 0.447743,-0.393446 0.403909,-0.949456 0.46875,-1.34375 z m 26.59375,0.25 c 0.277507,-0.01383 0.534397,-0.01082 0.8125,0 2.022573,0.07867 4.07601,0.833618 5.9375,2.4375 5.452733,6.513741 3.98279,15.897365 0.0625,22.75 -4.005037,6.04994 -11.77818,9.56497 -17.4375,4.03125 C 56.657299,97.264439 58.06895,88.42821 62,81.5625 c 2.548302,-3.866681 6.618652,-6.792572 10.78125,-7 z m -16.0625,0.71875 3.34375,0.65625 0.5,4 c -0.560317,0.699499 -1.056995,1.443118 -1.53125,2.21875 L 56.25,80.78125 c -2.241214,-2.420164 -0.231837,-3.758063 0.46875,-5.5 z M 72.25,76.0625 c -0.438407,0.01656 -0.87591,0.05955 -1.34375,0.125 -7.682767,2.406785 -10.5988,9.494247 -11.0625,17 0.06537,6.98495 3.6957,12.79263 11.15625,11.75 C 78.685073,102.5336 81.69164,95.012909 82.15625,87.5 82.096023,80.926264 78.82619,75.814026 72.25,76.0625 Z M 24.21875,76.375 c 8.681283,4.459125 18.534958,9.513455 27.3125,13.78125 L 52.25,92.375 26.09375,79.34375 Z m -0.5625,0.09375 1.25,2 c -0.902081,5.090541 -0.07702,10.321894 3.34375,14.625 1.212297,1.145608 2.483597,1.89113 3.75,2.34375 l -0.21875,0.34375 c -3.13206,-0.845773 -5.099725,-2.726741 -7.03125,-6 -1.532736,-3.418601 -2.053278,-8.341927 -1.09375,-13.3125 z m 48.625,0 c 6.224203,-0.369847 8.9211,5.704035 9.28125,11.375 -0.0021,0.07192 -0.02844,0.146857 -0.03125,0.21875 -0.05163,-0.471198 -0.22191,-0.805747 -0.5,-0.8125 l -0.59375,0.125 c 0.0011,-0.248932 0.0051,-0.573674 0,-0.6875 -0.158717,-1.930141 -0.86159,-3.677478 -1.90625,-5.21875 L 79.0625,80.8125 c 0.102653,-0.852633 -1.6195,-2.839176 -2.75,-2.5 l -0.28125,0.53125 c -1.634527,-1.48944 -3.64353,-1.789527 -5.75,-1.9375 0.626213,-0.331522 1.31121,-0.362898 2,-0.4375 z M 70.375,77.25 69.742417,77.612056 c -0.0036,-0.130445 0.13515,-0.197516 0.132583,-0.330806 0.169762,-0.0051 0.335009,-0.02495 0.5,-0.03125 z M 71,77.28125 c 1.055617,0.111329 1.975082,0.426621 2.8125,0.8125 l -3.8125,2.5 c -0.02719,-0.79977 -0.01977,-1.717111 -0.04956,-2.557138 z m -1.625,0.03125 c 0.07088,3.130924 0.19922,6.445626 0.28125,9.5625 0.09619,0.286512 -1.29509,0.888805 -1.1875,0.1875 l -0.9375,-8.65625 C 68.106143,78.005087 68.72832,77.631153 69.375,77.3125 Z M 74,78.1875 c 0.646021,0.311065 1.24948,0.652661 1.84375,1 l -1.03125,1.875 -4.71875,3.25 C 70.072913,83.169522 70.037903,82.050311 70,80.9375 Z m -6.90625,0.5625 0.0625,0.567862 -2.375,1.619638 c 0.688482,-0.805981 1.457367,-1.53866 2.3125,-2.1875 z m 9.75,0.125 c 0.884793,-0.2095 1.90035,1.512579 1.5,2.03125 l -5,6.25 C 72.941383,86.879559 72.55814,86.697867 72.1875,86.625 c 1.570543,-2.531284 2.851,-5.466806 4.65625,-7.75 z m -51.4375,0.4375 1.125,1.875 c -0.01294,0.177273 -0.02033,0.354463 -0.03125,0.53125 0.05112,5.462419 2.304937,10.191047 6.84375,11.5 L 32.5,94.59375 c -1.280532,-0.430454 -2.53333,-1.152695 -3.6875,-2.28125 -3.229524,-3.827314 -4.054851,-8.442336 -3.40625,-13 z m 0.875,0.375 26.03125,12.90625 0.90625,2.84375 -24.4375,-11.8125 z m 40.9375,0.28125 0.28125,2.3125 -3.21875,2.3125 -1.25,-1.15625 C 63.322874,82.924152 63.657405,82.444282 64,81.96875 Z M 74.625,81.375 71.78125,86.59375 c -0.870127,-0.178637 -1.13406,-0.05888 -1.6875,0 0.0033,-0.724062 0.01123,-1.419304 0,-2.09375 z m 3.65625,0.40625 c 0.07922,0.121885 0.147216,0.250455 0.21875,0.375 l -1.34375,1 z m -51.09375,0.4375 0.21875,0.375 -0.1875,0.03125 C 27.19668,82.500174 27.19709,82.355288 27.1875,82.21875 Z m 40.34375,0.40625 0.375,3.15625 -1.375,0.9375 -2.125,-1.96875 z m 11.21875,0 c 0.621329,1.268493 0.903295,2.662795 1.03125,4.21875 0.04338,0.273185 0.03587,0.472004 0.03125,0.6875 l -5.59375,1.3125 c -0.123947,-0.466837 -0.32637,-0.920901 -0.59375,-1.375 l 2.40625,-2.9375 z m -51,0.53125 1.875,3.09375 0.9375,0.5 c -0.471659,0.652527 -0.954559,1.297429 -1.46875,1.96875 -0.91374,-1.607231 -1.49161,-3.490746 -1.78125,-5.4375 z m 35.09375,0.59375 5,4.71875 c -0.02267,0.775387 -0.03682,1.530212 -0.75,1.5 l -5.125,-4.34375 c 0.260109,-0.645278 0.547,-1.268816 0.875,-1.875 z M 28.90625,83.84375 53.3125,95.75 54.21875,98.53125 30.1875,85.90625 Z M 67.9375,86 l 0.09375,0.875 c -0.442697,-0.178081 -0.57945,0.289725 -0.875,0.4375 l -0.5,-0.46875 z m -6.15625,0.125 0.125,0.09375 -0.21875,0.1875 c 0.03297,-0.09292 0.0594,-0.188864 0.09375,-0.28125 z m 0.28125,0.21875 2.28125,1.875 -3.6875,2.5 c 0.182474,-1.388191 0.492634,-2.753489 0.9375,-4.0625 z m -5.1875,0.5 c -0.328396,1.125974 -0.582557,2.25749 -0.71875,3.375 L 53.0625,92.125 52.34375,89.71875 c 1.586408,-1.051949 2.977506,-1.940381 4.53125,-2.875 z m -25.90625,0.125 1.28125,0.65625 -1.8125,3 c -0.41612,-0.444028 -0.79143,-0.965972 -1.125,-1.5 0.571355,-0.677466 1.123353,-1.409018 1.65625,-2.15625 z m 37.0625,0.09375 0.0625,0.4375 c 0.591703,0.885354 1.30076,0.196456 1.71875,-0.3125 h 0.3125 c -0.455427,0.330978 -0.89554,0.773015 -1.3125,1.28125 -1.111257,1.916343 -1.18612,3.896031 0,5.75 0.268303,0.204497 0.52754,0.357976 0.78125,0.46875 l -0.78125,0.09375 c 0.205023,-0.976618 -1.12867,-1.19993 -1.5625,-1.34375 -0.173867,0.266181 -0.32931,0.493049 -0.5,0.75 -0.225237,-0.310012 -0.39093,-0.64665 -0.53125,-1 l 0.90625,-0.25 c 0.512263,-0.796709 0.09948,-1.476026 -0.25,-1.875 l -1,0.0625 c -0.0836,-0.501074 0.15044,-0.940834 0.28125,-1.40625 L 67.25,90.625 c 0.539903,-0.406455 1.11197,-1.164018 0.90625,-2.34375 l -0.8125,-0.75 z m 3.0625,0.03125 c 0.666098,-0.08384 1.47215,0.337766 2.125,0.71875 0.219899,0.316293 0.17914,0.719232 0.28125,1.0625 l -2.78125,-0.0625 c -0.741667,0.586946 -1.14949,1.336201 -1.15625,2.125 -0.0068,0.788799 0.36934,1.569549 0.96875,2.3125 l 2.1875,-0.0625 -0.0625,0.03125 c -0.937927,1.005481 -2.29575,1.372036 -3.46875,0.6875 -1.048257,-1.503432 -0.65872,-3.872718 0.09375,-5.4375 0.464013,-0.639352 1.1464,-1.291154 1.8125,-1.375 z m 9.625,0.78125 c 0.370863,0.285868 0.64756,1.540492 -0.21875,2.3125 l -4.4375,0.125 c -0.116567,-0.484176 -0.31471,-0.916119 -0.625,-1.21875 z m -47.9375,0.03125 2.875,1.5 -1.96875,3.25 C 32.624821,92.341466 31.69463,91.78139 30.90625,91.0625 Z m 31.6875,0.4375 1.25,1.03125 c -0.278007,0.556968 -0.239,1.155247 -0.28125,1.75 l -4.875,0.40625 c 0.01799,-0.189853 0.03983,-0.373606 0.0625,-0.5625 z m 10.5625,0.9375 c 0.246893,0.17979 0.686,1.024876 0.75,1.5 0.06121,0.454368 -0.28239,1.340008 -0.71875,1.84375 l -4.28125,0.1875 c -0.394177,-0.545303 -0.56603,-1.369022 -0.5625,-1.78125 0.0037,-0.432551 0.26573,-1.206617 0.75,-1.625 z m 6.40625,0.125 c -0.257187,2.634237 -0.96475,5.189382 -2.15625,7.46875 0.573053,-1.996116 0.91184,-4.056398 1.0625,-6.125 h 0.625 c 0.216363,-0.368141 0.37457,-0.854978 0.46875,-1.34375 z M 74,89.59375 c -0.721177,0.648286 -1.24328,1.613701 0.0625,2.5 l 0.46875,0.03125 c -0.772347,-0.941459 -0.38017,-1.721021 -0.125,-2.5 z m -37.78125,0.125 1.90625,1 -12.1875,21.53125 -8.90625,12.96875 -2.3125,-1.1875 3.71875,-5.90625 2.46875,-3.65625 z m 19.9375,0.65625 c -0.1349,1.17679 -0.170344,2.328606 -0.125,3.5 L 54,95.28125 53.15625,92.40625 Z M 80,90.75 c -0.06719,2.034476 -0.43238,4.082044 -1.09375,5.96875 l -4.4375,-3.5625 0.59375,-0.03125 c 0.841623,-0.734483 0.9481,-1.33551 1.09375,-2.3125 z m -41.375,0.21875 0.5,0.25 -0.3125,0.53125 c -4.46875,7.635417 -6.484317,12.32701 -13.40625,22.90625 L 21.25,121.375 18.84375,124.6875 17.75,125.09375 20.5625,120.875 25,114.53125 Z M 39.375,91.375 40,91.71875 c -0.374281,0.214087 -0.757882,0.414318 -1.15625,0.59375 z m 27.25,0.09375 c 0.395353,0.358178 0.49071,0.735575 0.0625,1.09375 l -6.125,1.53125 C 60.446809,93.439321 60.48988,92.595668 60.5,91.9375 Z m -25.875,0.625 1.21875,0.625 c -1.425721,1.013387 -2.969748,1.768895 -4.5625,2.125 l 0.90625,-1.625 c 0.86923,-0.317263 1.691993,-0.679238 2.4375,-1.125 z m 33.40625,1.0625 4.625,3.96875 C 78.555763,97.719418 78.28969,98.297026 78,98.84375 L 73.0625,93.5625 c 0.116383,-0.122704 0.23004,-0.241322 0.34375,-0.375 z m -8.3125,0.15625 c 0.118855,0.266362 0.296976,0.572715 0.5,0.90625 l -2.90625,-0.25 z m 1.90625,0.5 c 0.470477,-0.01497 0.856112,0.662741 0.4375,1 l -4.40625,7.28125 c -0.416121,-0.44402 -0.79143,-0.96597 -1.125,-1.5 1.674299,-1.985245 3.16082,-4.377254 4.625,-6.5 0.150716,-0.198615 0.311924,-0.276261 0.46875,-0.28125 z m 4.96875,0.0625 5.0625,5.375 c -1.444047,1.90334 -3.29844,3.4974 -5.59375,4.53125 l -0.625,-9.09375 c 0.400853,-0.174907 0.78784,-0.470923 1.15625,-0.8125 z m -16.6875,0.25 c 0.05285,1.088895 0.195362,2.193507 0.375,3.28125 l -1.46875,1 -0.875,-2.9375 z m 6.25,0.1875 4.09375,0.375 c -1.267549,1.886799 -2.506766,3.632048 -3.9375,5.5 -0.913741,-1.607228 -1.49161,-3.490746 -1.78125,-5.4375 z m 8.75,0.5625 0.8125,9.03125 C 71.563763,104.02394 71.2924,104.14822 71,104.25 c -0.350447,0.0658 -0.70048,0.0963 -1.03125,0.125 L 69.875,94.96875 c 0.385843,-0.02603 0.77085,-0.06271 1.15625,-0.09375 z m -1.65625,0.15625 0.125,9.375 c -2.185897,0.0809 -3.90279,-0.64653 -5.25,-1.875 l 4.40625,-7.4375 c 0.236063,-0.02083 0.49153,-0.04167 0.71875,-0.0625 z m -31.25,0.40625 c -0.419579,0.17699 -0.842441,0.320856 -1.28125,0.4375 L 36.875,95.75 c 0.420006,-0.0854 0.835758,-0.175095 1.25,-0.3125 z m -23.59375,15.21875 6.5,2.875 -0.46875,0.75 -7.71875,-3.3125 z m -2.3125,0.46875 8.1875,3.53125 L 18,117.9375 10.15625,114.5 Z m 12.84375,4.46875 8.28125,4.28125 -0.4375,0.1875 -8.375,-3.5 z m -0.625,1.1875 7.9375,3.84375 -1.5625,2.53125 -8.25,-3.46875 z M 33.5,120.25 32.3125,122.84375 31.53125,123 32.9375,120.46875 Z"
       id="path1"
       sodipodi:nodetypes="ccccscccscccccccccccccccccccccscccccccccccccccccccccsscccssccccscccccccccccccccccccccccccccccccccccccccccccccccccccccccccccccccccccccccccccccccccccccccccccccccccccccccccccccccccccccccccccccccccccccccccccccccccccccccccccccccccccccccccccccccccccccccccccccccccccccccccsccccccccccccccccccccccccccccccccccccccccccccccsccscccccccccccccccccsccsccccccccccccccccccccccccccsccccccccccccccccccccccccccccccccccccccccccccccccccccccccsccccccccccccccccccccccccccccccccscccccccccccccccccccccccccccccccccccsccscccccccccccccccccccccccccccccsccccccccccccccccccccccccccccccccccccccccccccccccccccccccccccccccccccccccccccccccccccccccccccccccccccccccccsccccccccscccccccccccccccccccccccccccccccsccscccccccccccccccccccccccccccccccccccccccccccccccccccccccccccccccccccccccccccccccccccccccccccccccccccccccccccccccccccccccccccccccccccccccccccccscccccccccccccccccccccccsccscccccccccccccccccccccccccccccccccccccccccccccccccccccccccccccccccccccccccccccccccccccccccccccccccccccccccccccccccccccccccccccc" />
  </g>
</svg>
