<?xml version="1.0" encoding="UTF-8" standalone="no"?>
<!-- Created with Inkscape (http://www.inkscape.org/) -->

<svg
   width="128.00000px"
   height="128.00000px"
   id="svg2"
   sodipodi:version="0.32"
   inkscape:version="1.3.2 (1:1.3.2+202311252150+091e20ef0f)"
   sodipodi:docname="Hill2.svg"
   inkscape:export-filename="/home/nicu/Desktop/rpg_color.png"
   inkscape:export-xdpi="90.000000"
   inkscape:export-ydpi="90.000000"
   version="1.1"
   xmlns:inkscape="http://www.inkscape.org/namespaces/inkscape"
   xmlns:sodipodi="http://sodipodi.sourceforge.net/DTD/sodipodi-0.dtd"
   xmlns:xlink="http://www.w3.org/1999/xlink"
   xmlns="http://www.w3.org/2000/svg"
   xmlns:svg="http://www.w3.org/2000/svg"
   xmlns:rdf="http://www.w3.org/1999/02/22-rdf-syntax-ns#"
   xmlns:cc="http://creativecommons.org/ns#"
   xmlns:dc="http://purl.org/dc/elements/1.1/">
  <defs
     id="defs3">
    <linearGradient
       id="linearGradient2057"
       inkscape:collect="always">
      <stop
         id="stop2059"
         offset="0"
         style="stop-color:#000000;stop-opacity:1;" />
      <stop
         id="stop2061"
         offset="1"
         style="stop-color:#000000;stop-opacity:0;" />
    </linearGradient>
    <radialGradient
       gradientUnits="userSpaceOnUse"
       r="8.2519293"
       fy="222.04396"
       fx="14.207293"
       cy="222.04396"
       cx="14.207293"
       gradientTransform="scale(1.395230,0.716728)"
       id="radialGradient2063"
       xlink:href="#linearGradient2057"
       inkscape:collect="always" />
    <radialGradient
       inkscape:collect="always"
       xlink:href="#linearGradient2057"
       id="radialGradient1315"
       gradientUnits="userSpaceOnUse"
       gradientTransform="scale(1.395230,0.716728)"
       cx="14.207293"
       cy="222.04396"
       fx="14.207293"
       fy="222.04396"
       r="8.2519293" />
    <radialGradient
       inkscape:collect="always"
       xlink:href="#linearGradient2057"
       id="radialGradient1319"
       gradientUnits="userSpaceOnUse"
       gradientTransform="scale(1.395230,0.716728)"
       cx="14.207293"
       cy="222.04396"
       fx="14.207293"
       fy="222.04396"
       r="8.2519293" />
    <radialGradient
       inkscape:collect="always"
       xlink:href="#linearGradient2057"
       id="radialGradient1323"
       gradientUnits="userSpaceOnUse"
       gradientTransform="scale(1.395230,0.716728)"
       cx="14.207293"
       cy="222.04396"
       fx="14.207293"
       fy="222.04396"
       r="8.2519293" />
    <radialGradient
       inkscape:collect="always"
       xlink:href="#linearGradient2057"
       id="radialGradient1327"
       gradientUnits="userSpaceOnUse"
       gradientTransform="scale(1.395230,0.716728)"
       cx="14.207293"
       cy="222.04396"
       fx="14.207293"
       fy="222.04396"
       r="8.2519293" />
    <radialGradient
       inkscape:collect="always"
       xlink:href="#linearGradient2057"
       id="radialGradient1331"
       gradientUnits="userSpaceOnUse"
       gradientTransform="scale(1.395230,0.716728)"
       cx="14.207293"
       cy="222.04396"
       fx="14.207293"
       fy="222.04396"
       r="8.2519293" />
    <radialGradient
       inkscape:collect="always"
       xlink:href="#linearGradient2057"
       id="radialGradient1335"
       gradientUnits="userSpaceOnUse"
       gradientTransform="scale(1.395230,0.716728)"
       cx="14.207293"
       cy="222.04396"
       fx="14.207293"
       fy="222.04396"
       r="8.2519293" />
    <radialGradient
       inkscape:collect="always"
       xlink:href="#linearGradient2057"
       id="radialGradient1339"
       gradientUnits="userSpaceOnUse"
       gradientTransform="scale(1.395230,0.716728)"
       cx="14.207293"
       cy="222.04396"
       fx="14.207293"
       fy="222.04396"
       r="8.2519293" />
    <radialGradient
       inkscape:collect="always"
       xlink:href="#linearGradient2057"
       id="radialGradient1343"
       gradientUnits="userSpaceOnUse"
       gradientTransform="scale(1.395230,0.716728)"
       cx="14.207293"
       cy="222.04396"
       fx="14.207293"
       fy="222.04396"
       r="8.2519293" />
    <radialGradient
       inkscape:collect="always"
       xlink:href="#linearGradient2057"
       id="radialGradient1347"
       gradientUnits="userSpaceOnUse"
       gradientTransform="scale(1.395230,0.716728)"
       cx="14.207293"
       cy="222.04396"
       fx="14.207293"
       fy="222.04396"
       r="8.2519293" />
    <radialGradient
       inkscape:collect="always"
       xlink:href="#linearGradient2057"
       id="radialGradient1351"
       gradientUnits="userSpaceOnUse"
       gradientTransform="scale(1.395230,0.716728)"
       cx="14.207293"
       cy="222.04396"
       fx="14.207293"
       fy="222.04396"
       r="8.2519293" />
    <radialGradient
       inkscape:collect="always"
       xlink:href="#linearGradient2057"
       id="radialGradient1355"
       gradientUnits="userSpaceOnUse"
       gradientTransform="scale(1.395230,0.716728)"
       cx="14.207293"
       cy="222.04396"
       fx="14.207293"
       fy="222.04396"
       r="8.2519293" />
    <radialGradient
       inkscape:collect="always"
       xlink:href="#linearGradient2057"
       id="radialGradient1359"
       gradientUnits="userSpaceOnUse"
       gradientTransform="scale(1.395230,0.716728)"
       cx="14.207293"
       cy="222.04396"
       fx="14.207293"
       fy="222.04396"
       r="8.2519293" />
    <radialGradient
       inkscape:collect="always"
       xlink:href="#linearGradient2057"
       id="radialGradient1363"
       gradientUnits="userSpaceOnUse"
       gradientTransform="scale(1.395230,0.716728)"
       cx="14.207293"
       cy="222.04396"
       fx="14.207293"
       fy="222.04396"
       r="8.2519293" />
    <radialGradient
       inkscape:collect="always"
       xlink:href="#linearGradient2057"
       id="radialGradient1367"
       gradientUnits="userSpaceOnUse"
       gradientTransform="scale(1.395230,0.716728)"
       cx="14.207293"
       cy="222.04396"
       fx="14.207293"
       fy="222.04396"
       r="8.2519293" />
    <radialGradient
       inkscape:collect="always"
       xlink:href="#linearGradient2057"
       id="radialGradient1371"
       gradientUnits="userSpaceOnUse"
       gradientTransform="scale(1.395230,0.716728)"
       cx="14.207293"
       cy="222.04396"
       fx="14.207293"
       fy="222.04396"
       r="8.2519293" />
    <radialGradient
       inkscape:collect="always"
       xlink:href="#linearGradient2057"
       id="radialGradient1375"
       gradientUnits="userSpaceOnUse"
       gradientTransform="scale(1.395230,0.716728)"
       cx="14.207293"
       cy="222.04396"
       fx="14.207293"
       fy="222.04396"
       r="8.2519293" />
  </defs>
  <sodipodi:namedview
     id="base"
     pagecolor="#ffffff"
     bordercolor="#666666"
     borderopacity="1.0"
     inkscape:pageopacity="0.0"
     inkscape:pageshadow="2"
     inkscape:zoom="8"
     inkscape:cx="45.3125"
     inkscape:cy="53.8125"
     inkscape:document-units="px"
     inkscape:current-layer="g4"
     inkscape:window-width="1920"
     inkscape:window-height="1012"
     inkscape:window-x="0"
     inkscape:window-y="0"
     inkscape:showpageshadow="2"
     inkscape:pagecheckerboard="0"
     inkscape:deskcolor="#d1d1d1"
     inkscape:window-maximized="1" />
  <g
     inkscape:label="Layer 1"
     inkscape:groupmode="layer"
     id="layer1">
    <g
       id="g1986"
       transform="matrix(2.469674,0.000000,0.000000,2.469674,-878.4758,-32.66080)">
      <path
         d="m 379.37748,26.820128 c -0.27277,0.003 -0.49568,0.04396 -0.69832,0.120999 -2.09271,0.795656 -4.2815,2.102712 -5.49952,3.281208 -0.75106,0.726719 -1.60333,1.378549 -1.90672,1.468596 -0.59225,0.175842 -1.20159,1.190429 -1.60621,2.6169 -0.2572,0.395517 -0.34792,1.088638 -0.43022,1.662353 -0.17038,0.579524 -0.37407,1.182896 -0.55675,1.595922 -0.50605,1.144038 -0.62902,1.534404 -0.42231,1.628346 0.0266,0.808795 1.02104,0.91267 1.89407,1.458315 1.13913,0.711963 2.04103,1.70053 3.33815,2.132904 0.12089,0.0403 0.24728,0.06162 0.3709,0.09253 0.0948,0.0237 0.18487,0.06162 0.27759,0.09253 2.30265,0.767551 5.29187,0.370906 7.69649,0.370906 2.93002,0 5.88339,-0.320163 8.7657,-0.362206 0.74038,0.163824 1.64572,-0.101228 2.36067,-0.101228 0.62527,0 1.40163,-0.337791 1.94706,-0.555963 0.21445,-0.08578 0.4917,-0.185799 0.75525,-0.282331 0.32527,-0.06668 0.63731,-0.188755 0.89524,-0.340063 0.23356,-0.09254 0.45465,-0.184622 0.63267,-0.273631 0.31577,-0.157887 0.15396,-0.463099 -0.0617,-0.775027 0.15307,0.0036 0.23725,-0.113179 0.23725,-0.366951 2e-5,-0.157286 -0.30053,-0.532284 -0.6564,-0.812196 -0.35583,-0.279912 -0.71419,-0.913334 -0.8122,-1.406119 -0.12004,-0.603613 -0.66313,-1.314208 -1.62518,-2.187473 -0.78539,-0.712929 -1.51251,-1.280556 -1.62518,-1.281166 -0.11265,-6e-4 -0.18742,-0.29178 -0.18743,-0.6564 2e-5,-0.932333 -1.60266,-2.178613 -3.5936,-2.781395 -0.89996,-0.272493 -1.70417,-0.594611 -1.78097,-0.718877 -0.0768,-0.124256 -0.32937,-0.218273 -0.56229,-0.218273 -0.23293,0 -1.0792,-0.585371 -1.87509,-1.3128 -1.19587,-1.092969 -1.77596,-1.39994 -3.34369,-1.780979 -0.87778,-0.21335 -1.47267,-0.313473 -1.92728,-0.308428 z"
         style="fill:#926b2e;fill-rule:evenodd;stroke-width:1px;fill-opacity:1"
         id="path4" />
    </g>
  </g>
  <g
     inkscape:label="Layer 1 copy"
     inkscape:groupmode="layer"
     id="g4">
    <g
       id="g3"
       transform="matrix(2.469674,0.000000,0.000000,2.469674,-878.4758,-32.66080)">
      <path
         id="path3"
         d="M 378.67945,26.940814 C 376.58668,27.736493 374.39751,29.043534 373.17945,30.222064 C 372.42837,30.948804 371.57660,31.600764 371.27320,31.690814 C 370.58841,31.894134 369.87902,33.216424 369.49195,35.003314 C 369.32982,35.751984 368.97135,36.905844 368.67945,37.565814 C 368.08176,38.917024 368.01320,39.222074 368.39820,39.222064 C 369.02306,39.222064 369.83062,37.236524 370.71070,33.440814 C 370.82587,32.944214 371.22090,32.509174 371.89820,32.159564 C 372.45914,31.870024 373.42233,31.102444 374.02320,30.472064 C 374.67898,29.784104 375.91975,28.951914 377.14820,28.378314 C 378.89916,27.560753 379.38777,27.462604 380.52320,27.597064 C 382.03351,27.775933 383.98943,28.795564 384.61695,29.753314 C 384.90725,30.196324 385.74669,30.639604 387.30445,31.159564 C 390.43626,32.204894 391.59576,32.979564 391.61695,34.065814 C 391.62175,34.310604 392.21592,34.987804 392.92945,35.565814 C 394.53841,36.869124 394.82814,37.258814 395.05445,38.253314 C 395.15317,38.687274 395.61400,39.425824 396.08570,39.909564 C 396.90939,40.754284 397.36695,40.891974 397.36695,40.284564 C 397.36697,40.127274 397.06658,39.751984 396.71070,39.472064 C 396.35486,39.192144 395.99621,38.558614 395.89820,38.065814 C 395.77815,37.462184 395.23528,36.751604 394.27320,35.878314 C 393.48779,35.165364 392.76088,34.597674 392.64820,34.597064 C 392.53555,34.596464 392.46071,34.305444 392.46070,33.940814 C 392.46072,33.008454 390.85794,31.762364 388.86695,31.159564 C 387.96696,30.887064 387.16251,30.565084 387.08570,30.440814 C 387.00892,30.316554 386.75613,30.222064 386.52320,30.222064 C 386.29027,30.222064 385.44412,29.637014 384.64820,28.909564 C 383.45230,27.816563 382.87222,27.509364 381.30445,27.128314 C 379.89996,26.786943 379.21982,26.735374 378.67945,26.940814 z "
         style="fill:#5c2700;fill-opacity:1.0000000" />
    </g>
  </g>
  <metadata
     id="metadata1">
    <rdf:RDF>
      <cc:Work
         rdf:about="">
        <dc:title>hill - RPG map elements</dc:title>
        <dc:description />
        <dc:subject>
          <rdf:Bag>
            <rdf:li>mapsym</rdf:li>
          </rdf:Bag>
        </dc:subject>
        <dc:publisher>
          <cc:Agent>
            <dc:title />
          </cc:Agent>
        </dc:publisher>
        <dc:creator>
          <cc:Agent>
            <dc:title>Nicu Buculei</dc:title>
          </cc:Agent>
        </dc:creator>
        <dc:rights>
          <cc:Agent>
            <dc:title>Nicu Buculei</dc:title>
          </cc:Agent>
        </dc:rights>
        <dc:date />
        <dc:format>image/svg+xml</dc:format>
        <dc:type
           rdf:resource="http://purl.org/dc/dcmitype/StillImage" />
        <cc:license
           rdf:resource="http://web.resource.org/cc/PublicDomain" />
        <dc:language>en</dc:language>
      </cc:Work>
      <cc:License
         rdf:about="http://web.resource.org/cc/PublicDomain">
        <cc:permits
           rdf:resource="http://web.resource.org/cc/Reproduction" />
        <cc:permits
           rdf:resource="http://web.resource.org/cc/Distribution" />
        <cc:permits
           rdf:resource="http://web.resource.org/cc/DerivativeWorks" />
      </cc:License>
    </rdf:RDF>
  </metadata>
</svg>
