<?xml version="1.0" encoding="UTF-8" standalone="no"?>
<!-- Created with Inkscape (http://www.inkscape.org/) -->

<svg
   width="128.00000px"
   height="128.00000px"
   id="svg2"
   sodipodi:version="0.32"
   inkscape:version="1.3.2 (1:1.3.2+202311252150+091e20ef0f)"
   sodipodi:docname="Hill1.svg"
   inkscape:export-filename="/home/nicu/Desktop/rpg_color.png"
   inkscape:export-xdpi="90.000000"
   inkscape:export-ydpi="90.000000"
   version="1.1"
   xmlns:inkscape="http://www.inkscape.org/namespaces/inkscape"
   xmlns:sodipodi="http://sodipodi.sourceforge.net/DTD/sodipodi-0.dtd"
   xmlns:xlink="http://www.w3.org/1999/xlink"
   xmlns="http://www.w3.org/2000/svg"
   xmlns:svg="http://www.w3.org/2000/svg"
   xmlns:rdf="http://www.w3.org/1999/02/22-rdf-syntax-ns#"
   xmlns:cc="http://creativecommons.org/ns#"
   xmlns:dc="http://purl.org/dc/elements/1.1/">
  <defs
     id="defs3">
    <linearGradient
       id="linearGradient2057"
       inkscape:collect="always">
      <stop
         id="stop2059"
         offset="0"
         style="stop-color:#000000;stop-opacity:1;" />
      <stop
         id="stop2061"
         offset="1"
         style="stop-color:#000000;stop-opacity:0;" />
    </linearGradient>
    <radialGradient
       gradientUnits="userSpaceOnUse"
       r="8.2519293"
       fy="222.04396"
       fx="14.207293"
       cy="222.04396"
       cx="14.207293"
       gradientTransform="scale(1.395230,0.716728)"
       id="radialGradient2063"
       xlink:href="#linearGradient2057"
       inkscape:collect="always" />
    <radialGradient
       inkscape:collect="always"
       xlink:href="#linearGradient2057"
       id="radialGradient1315"
       gradientUnits="userSpaceOnUse"
       gradientTransform="scale(1.395230,0.716728)"
       cx="14.207293"
       cy="222.04396"
       fx="14.207293"
       fy="222.04396"
       r="8.2519293" />
    <radialGradient
       inkscape:collect="always"
       xlink:href="#linearGradient2057"
       id="radialGradient1319"
       gradientUnits="userSpaceOnUse"
       gradientTransform="scale(1.395230,0.716728)"
       cx="14.207293"
       cy="222.04396"
       fx="14.207293"
       fy="222.04396"
       r="8.2519293" />
    <radialGradient
       inkscape:collect="always"
       xlink:href="#linearGradient2057"
       id="radialGradient1323"
       gradientUnits="userSpaceOnUse"
       gradientTransform="scale(1.395230,0.716728)"
       cx="14.207293"
       cy="222.04396"
       fx="14.207293"
       fy="222.04396"
       r="8.2519293" />
    <radialGradient
       inkscape:collect="always"
       xlink:href="#linearGradient2057"
       id="radialGradient1327"
       gradientUnits="userSpaceOnUse"
       gradientTransform="scale(1.395230,0.716728)"
       cx="14.207293"
       cy="222.04396"
       fx="14.207293"
       fy="222.04396"
       r="8.2519293" />
    <radialGradient
       inkscape:collect="always"
       xlink:href="#linearGradient2057"
       id="radialGradient1331"
       gradientUnits="userSpaceOnUse"
       gradientTransform="scale(1.395230,0.716728)"
       cx="14.207293"
       cy="222.04396"
       fx="14.207293"
       fy="222.04396"
       r="8.2519293" />
    <radialGradient
       inkscape:collect="always"
       xlink:href="#linearGradient2057"
       id="radialGradient1335"
       gradientUnits="userSpaceOnUse"
       gradientTransform="scale(1.395230,0.716728)"
       cx="14.207293"
       cy="222.04396"
       fx="14.207293"
       fy="222.04396"
       r="8.2519293" />
    <radialGradient
       inkscape:collect="always"
       xlink:href="#linearGradient2057"
       id="radialGradient1339"
       gradientUnits="userSpaceOnUse"
       gradientTransform="scale(1.395230,0.716728)"
       cx="14.207293"
       cy="222.04396"
       fx="14.207293"
       fy="222.04396"
       r="8.2519293" />
    <radialGradient
       inkscape:collect="always"
       xlink:href="#linearGradient2057"
       id="radialGradient1343"
       gradientUnits="userSpaceOnUse"
       gradientTransform="scale(1.395230,0.716728)"
       cx="14.207293"
       cy="222.04396"
       fx="14.207293"
       fy="222.04396"
       r="8.2519293" />
    <radialGradient
       inkscape:collect="always"
       xlink:href="#linearGradient2057"
       id="radialGradient1347"
       gradientUnits="userSpaceOnUse"
       gradientTransform="scale(1.395230,0.716728)"
       cx="14.207293"
       cy="222.04396"
       fx="14.207293"
       fy="222.04396"
       r="8.2519293" />
    <radialGradient
       inkscape:collect="always"
       xlink:href="#linearGradient2057"
       id="radialGradient1351"
       gradientUnits="userSpaceOnUse"
       gradientTransform="scale(1.395230,0.716728)"
       cx="14.207293"
       cy="222.04396"
       fx="14.207293"
       fy="222.04396"
       r="8.2519293" />
    <radialGradient
       inkscape:collect="always"
       xlink:href="#linearGradient2057"
       id="radialGradient1355"
       gradientUnits="userSpaceOnUse"
       gradientTransform="scale(1.395230,0.716728)"
       cx="14.207293"
       cy="222.04396"
       fx="14.207293"
       fy="222.04396"
       r="8.2519293" />
    <radialGradient
       inkscape:collect="always"
       xlink:href="#linearGradient2057"
       id="radialGradient1359"
       gradientUnits="userSpaceOnUse"
       gradientTransform="scale(1.395230,0.716728)"
       cx="14.207293"
       cy="222.04396"
       fx="14.207293"
       fy="222.04396"
       r="8.2519293" />
    <radialGradient
       inkscape:collect="always"
       xlink:href="#linearGradient2057"
       id="radialGradient1363"
       gradientUnits="userSpaceOnUse"
       gradientTransform="scale(1.395230,0.716728)"
       cx="14.207293"
       cy="222.04396"
       fx="14.207293"
       fy="222.04396"
       r="8.2519293" />
    <radialGradient
       inkscape:collect="always"
       xlink:href="#linearGradient2057"
       id="radialGradient1367"
       gradientUnits="userSpaceOnUse"
       gradientTransform="scale(1.395230,0.716728)"
       cx="14.207293"
       cy="222.04396"
       fx="14.207293"
       fy="222.04396"
       r="8.2519293" />
    <radialGradient
       inkscape:collect="always"
       xlink:href="#linearGradient2057"
       id="radialGradient1371"
       gradientUnits="userSpaceOnUse"
       gradientTransform="scale(1.395230,0.716728)"
       cx="14.207293"
       cy="222.04396"
       fx="14.207293"
       fy="222.04396"
       r="8.2519293" />
    <radialGradient
       inkscape:collect="always"
       xlink:href="#linearGradient2057"
       id="radialGradient1375"
       gradientUnits="userSpaceOnUse"
       gradientTransform="scale(1.395230,0.716728)"
       cx="14.207293"
       cy="222.04396"
       fx="14.207293"
       fy="222.04396"
       r="8.2519293" />
  </defs>
  <sodipodi:namedview
     id="base"
     pagecolor="#ffffff"
     bordercolor="#666666"
     borderopacity="1.0"
     inkscape:pageopacity="0.0"
     inkscape:pageshadow="2"
     inkscape:zoom="4"
     inkscape:cx="58.625"
     inkscape:cy="-0.625"
     inkscape:document-units="px"
     inkscape:current-layer="g5"
     inkscape:window-width="1920"
     inkscape:window-height="1012"
     inkscape:window-x="0"
     inkscape:window-y="0"
     inkscape:showpageshadow="2"
     inkscape:pagecheckerboard="0"
     inkscape:deskcolor="#d1d1d1"
     inkscape:window-maximized="1" />
  <g
     inkscape:label="Layer 1"
     inkscape:groupmode="layer"
     id="layer1">
    <g
       id="g1998"
       transform="matrix(2.252801,0.000000,0.000000,2.252801,-575.7624,-63.20864)">
      <path
         d="m 270.66336,48.196792 c -0.7401,-0.01703 -1.50507,0.07544 -2.6911,0.215877 -0.11656,0.0138 -0.1824,0.01982 -0.30864,0.03468 -0.2253,0.02652 -0.42459,0.05379 -0.62509,0.0815 -1.96637,0.271721 -2.83908,0.632562 -4.28113,1.730484 -1.4262,1.085848 -1.39832,1.066474 -3.37514,3.437561 -0.93928,1.126606 -1.87287,2.231218 -2.09375,2.469149 -0.45523,0.490376 -0.52004,0.727478 -0.16646,0.771608 -0.0341,0.428545 0.11747,0.458163 0.2783,0.94067 0.58825,1.764747 1.38454,1.383678 2.33304,2.332166 0.0389,0.03888 0.064,0.09966 0.11617,0.117042 1.1166,0.3722 2.03385,0.916377 3.03268,1.166083 1.3447,0.336173 2.84294,0.831179 4.19877,1.283125 2.17317,0.724389 4.34697,0.699649 6.64711,0.699649 1.57758,0 4.51421,-0.4995 5.71511,-1.400166 0.36361,-0.272709 0.6037,-0.666819 0.84096,-1.081987 0.12114,-0.126406 0.24644,-0.266323 0.38234,-0.423084 -0.0612,0.09011 -0.0966,0.170316 -0.0572,0.222813 0.30016,0.400221 0.71895,1.413557 1.16695,1.749558 1.73619,1.30214 3.99573,2.168121 6.18067,2.565383 2.04411,0.371655 3.73598,1.516341 5.83215,1.516341 2.02531,0 4.21854,0.07198 6.29772,-0.117042 2.01965,-0.183605 3.4706,-0.235846 5.08308,-0.629424 0.31461,-0.04967 0.6216,-0.133077 0.98749,-0.224547 0.20447,-0.05112 0.41386,-0.155407 0.62422,-0.274832 0.14022,-0.05182 0.27416,-0.09527 0.41961,-0.153454 0.64361,-0.25744 1.18218,-0.731034 1.64639,-1.289194 0.64576,-0.277739 2.20386,-1.036078 2.20386,-1.743489 0,-0.590734 -0.0216,-0.887069 -0.22368,-1.174753 0.0903,-0.038 0.17148,-0.114096 0.24188,-0.228015 0.18495,-0.299238 -0.85714,-1.042784 -2.56191,-1.843192 -1.60428,-0.753219 -3.08815,-2.165947 -3.84417,-3.656905 -0.72225,-1.424302 -0.9542,-1.588013 -2.09375,-1.593503 -0.47843,-0.0023 -1.17259,-0.132746 -1.56229,-0.2809 -0.3897,-0.148154 -1.1097,-0.28518 -1.59351,-0.312979 -0.48381,-0.02779 -2.52594,-0.468403 -4.53168,-0.968412 -5.04183,-1.256859 -5.72724,-1.228705 -7.3745,0.312111 l -1.3126,1.218969 -0.90686,-0.937201 c -0.96887,-0.999619 -4.65432,-2.619423 -5.59373,-2.469149 -0.30044,0.04807 -0.87379,-0.150275 -1.24931,-0.405745 -1.04406,-0.71023 -1.55069,-0.851958 -4.50048,-1.281391 -1.61963,-0.23578 -2.46868,-0.356701 -3.2815,-0.3754 z"
         style="fill:#926b2e;fill-rule:evenodd;stroke-width:1px;fill-opacity:1"
         id="path5" />
    </g>
  </g>
  <metadata
     id="metadata1">
    <rdf:RDF>
      <cc:Work
         rdf:about="">
        <dc:title>hill - RPG map elements</dc:title>
        <dc:description />
        <dc:subject>
          <rdf:Bag>
            <rdf:li>mapsym</rdf:li>
          </rdf:Bag>
        </dc:subject>
        <dc:publisher>
          <cc:Agent>
            <dc:title />
          </cc:Agent>
        </dc:publisher>
        <dc:creator>
          <cc:Agent>
            <dc:title>Nicu Buculei</dc:title>
          </cc:Agent>
        </dc:creator>
        <dc:rights>
          <cc:Agent>
            <dc:title>Nicu Buculei</dc:title>
          </cc:Agent>
        </dc:rights>
        <dc:date />
        <dc:format>image/svg+xml</dc:format>
        <dc:type
           rdf:resource="http://purl.org/dc/dcmitype/StillImage" />
        <cc:license
           rdf:resource="http://web.resource.org/cc/PublicDomain" />
        <dc:language>en</dc:language>
      </cc:Work>
      <cc:License
         rdf:about="http://web.resource.org/cc/PublicDomain">
        <cc:permits
           rdf:resource="http://web.resource.org/cc/Reproduction" />
        <cc:permits
           rdf:resource="http://web.resource.org/cc/Distribution" />
        <cc:permits
           rdf:resource="http://web.resource.org/cc/DerivativeWorks" />
      </cc:License>
    </rdf:RDF>
  </metadata>
  <g
     inkscape:label="Layer 1"
     inkscape:groupmode="layer"
     id="g5">
    <g
       id="g4"
       transform="matrix(2.252801,0.000000,0.000000,2.252801,-575.7624,-63.20864)">
      <path
         id="path4"
         d="M 270.66374,48.196982 C 269.85087,48.178282 269.07457,48.280922 267.66374,48.446982 C 265.22876,48.733582 264.34664,49.049562 262.75749,50.259482 C 261.33123,51.345372 261.35939,51.325802 259.38249,53.696982 C 258.44317,54.823632 257.50962,55.927792 257.28874,56.165732 C 256.78111,56.712552 256.75438,56.946982 257.25749,56.946982 C 257.47474,56.946982 258.62649,55.780322 259.78874,54.353232 C 260.95100,52.926132 261.95360,51.762962 262.03874,51.759482 C 262.12386,51.756002 262.68914,51.330532 263.28874,50.790732 C 264.68029,49.537942 265.25092,49.310142 268.13249,49.009482 C 271.55229,48.652662 276.19263,49.252072 277.60124,50.228232 C 278.22427,50.659992 279.00034,50.946842 279.56999,50.946982 C 280.93677,50.947302 282.93725,51.790432 284.47624,53.009482 C 285.21455,53.594322 285.81999,54.184192 285.81999,54.290732 C 285.81998,54.397252 284.83469,55.463552 283.63249,56.665732 C 281.61201,58.686192 280.68188,60.090122 281.06999,60.478232 C 281.15722,60.565492 281.54840,60.203712 281.94499,59.696982 C 283.17121,58.130112 286.48801,55.040722 286.94499,55.040732 C 287.57908,55.040732 287.76661,54.747172 287.41374,54.321982 C 287.17111,54.029642 287.36075,53.706282 288.25749,52.853232 C 289.55446,51.619442 290.07388,51.535482 292.53874,52.196982 C 296.35029,53.219902 298.30121,53.677512 299.06999,53.696982 C 299.52064,53.708402 300.61229,53.883192 301.50749,54.071982 C 303.02899,54.392842 303.21412,54.488132 303.97624,55.728232 C 305.01914,57.425282 306.46511,58.738752 308.44499,59.759482 C 309.30913,60.204982 310.11477,60.683752 310.25749,60.821982 C 310.58793,61.142082 310.87180,61.111422 311.06999,60.790732 C 311.25494,60.491482 310.21233,59.747422 308.50749,58.946982 C 306.90315,58.193732 305.41980,56.781752 304.66374,55.290732 C 303.94147,53.866372 303.70959,53.702472 302.56999,53.696982 C 302.09154,53.694682 301.39721,53.563892 301.00749,53.415732 C 300.61778,53.267572 299.89757,53.131032 299.41374,53.103232 C 298.92991,53.075442 296.88831,52.634512 294.88249,52.134482 C 289.84045,50.877572 289.15482,50.906102 287.50749,52.446982 L 286.19499,53.665732 L 285.28874,52.728232 C 284.31983,51.728572 280.63444,50.109202 279.69499,50.259482 C 279.39454,50.307552 278.82053,50.108712 278.44499,49.853232 C 277.40089,49.142972 276.89490,49.001432 273.94499,48.571982 C 272.32529,48.336192 271.47660,48.215682 270.66374,48.196982 z "
         style="fill:#5c2700;fill-opacity:1.0000000" />
    </g>
  </g>
</svg>
