<?xml version="1.0" encoding="UTF-8" standalone="no"?>
<!-- Created with Inkscape (http://www.inkscape.org/) -->

<svg
   width="128.00000px"
   height="128.00000px"
   id="svg2"
   sodipodi:version="0.32"
   inkscape:version="1.3.2 (1:1.3.2+202311252150+091e20ef0f)"
   sodipodi:docname="Hill0.svg"
   inkscape:export-filename="/home/nicu/Desktop/rpg_color.png"
   inkscape:export-xdpi="90.000000"
   inkscape:export-ydpi="90.000000"
   version="1.1"
   xmlns:inkscape="http://www.inkscape.org/namespaces/inkscape"
   xmlns:sodipodi="http://sodipodi.sourceforge.net/DTD/sodipodi-0.dtd"
   xmlns:xlink="http://www.w3.org/1999/xlink"
   xmlns="http://www.w3.org/2000/svg"
   xmlns:svg="http://www.w3.org/2000/svg"
   xmlns:rdf="http://www.w3.org/1999/02/22-rdf-syntax-ns#"
   xmlns:cc="http://creativecommons.org/ns#"
   xmlns:dc="http://purl.org/dc/elements/1.1/">
  <defs
     id="defs3">
    <linearGradient
       id="linearGradient2057"
       inkscape:collect="always">
      <stop
         id="stop2059"
         offset="0"
         style="stop-color:#000000;stop-opacity:1;" />
      <stop
         id="stop2061"
         offset="1"
         style="stop-color:#000000;stop-opacity:0;" />
    </linearGradient>
    <radialGradient
       gradientUnits="userSpaceOnUse"
       r="8.2519293"
       fy="222.04396"
       fx="14.207293"
       cy="222.04396"
       cx="14.207293"
       gradientTransform="scale(1.395230,0.716728)"
       id="radialGradient2063"
       xlink:href="#linearGradient2057"
       inkscape:collect="always" />
    <radialGradient
       inkscape:collect="always"
       xlink:href="#linearGradient2057"
       id="radialGradient1315"
       gradientUnits="userSpaceOnUse"
       gradientTransform="scale(1.395230,0.716728)"
       cx="14.207293"
       cy="222.04396"
       fx="14.207293"
       fy="222.04396"
       r="8.2519293" />
    <radialGradient
       inkscape:collect="always"
       xlink:href="#linearGradient2057"
       id="radialGradient1319"
       gradientUnits="userSpaceOnUse"
       gradientTransform="scale(1.395230,0.716728)"
       cx="14.207293"
       cy="222.04396"
       fx="14.207293"
       fy="222.04396"
       r="8.2519293" />
    <radialGradient
       inkscape:collect="always"
       xlink:href="#linearGradient2057"
       id="radialGradient1323"
       gradientUnits="userSpaceOnUse"
       gradientTransform="scale(1.395230,0.716728)"
       cx="14.207293"
       cy="222.04396"
       fx="14.207293"
       fy="222.04396"
       r="8.2519293" />
    <radialGradient
       inkscape:collect="always"
       xlink:href="#linearGradient2057"
       id="radialGradient1327"
       gradientUnits="userSpaceOnUse"
       gradientTransform="scale(1.395230,0.716728)"
       cx="14.207293"
       cy="222.04396"
       fx="14.207293"
       fy="222.04396"
       r="8.2519293" />
    <radialGradient
       inkscape:collect="always"
       xlink:href="#linearGradient2057"
       id="radialGradient1331"
       gradientUnits="userSpaceOnUse"
       gradientTransform="scale(1.395230,0.716728)"
       cx="14.207293"
       cy="222.04396"
       fx="14.207293"
       fy="222.04396"
       r="8.2519293" />
    <radialGradient
       inkscape:collect="always"
       xlink:href="#linearGradient2057"
       id="radialGradient1335"
       gradientUnits="userSpaceOnUse"
       gradientTransform="scale(1.395230,0.716728)"
       cx="14.207293"
       cy="222.04396"
       fx="14.207293"
       fy="222.04396"
       r="8.2519293" />
    <radialGradient
       inkscape:collect="always"
       xlink:href="#linearGradient2057"
       id="radialGradient1339"
       gradientUnits="userSpaceOnUse"
       gradientTransform="scale(1.395230,0.716728)"
       cx="14.207293"
       cy="222.04396"
       fx="14.207293"
       fy="222.04396"
       r="8.2519293" />
    <radialGradient
       inkscape:collect="always"
       xlink:href="#linearGradient2057"
       id="radialGradient1343"
       gradientUnits="userSpaceOnUse"
       gradientTransform="scale(1.395230,0.716728)"
       cx="14.207293"
       cy="222.04396"
       fx="14.207293"
       fy="222.04396"
       r="8.2519293" />
    <radialGradient
       inkscape:collect="always"
       xlink:href="#linearGradient2057"
       id="radialGradient1347"
       gradientUnits="userSpaceOnUse"
       gradientTransform="scale(1.395230,0.716728)"
       cx="14.207293"
       cy="222.04396"
       fx="14.207293"
       fy="222.04396"
       r="8.2519293" />
    <radialGradient
       inkscape:collect="always"
       xlink:href="#linearGradient2057"
       id="radialGradient1351"
       gradientUnits="userSpaceOnUse"
       gradientTransform="scale(1.395230,0.716728)"
       cx="14.207293"
       cy="222.04396"
       fx="14.207293"
       fy="222.04396"
       r="8.2519293" />
    <radialGradient
       inkscape:collect="always"
       xlink:href="#linearGradient2057"
       id="radialGradient1355"
       gradientUnits="userSpaceOnUse"
       gradientTransform="scale(1.395230,0.716728)"
       cx="14.207293"
       cy="222.04396"
       fx="14.207293"
       fy="222.04396"
       r="8.2519293" />
    <radialGradient
       inkscape:collect="always"
       xlink:href="#linearGradient2057"
       id="radialGradient1359"
       gradientUnits="userSpaceOnUse"
       gradientTransform="scale(1.395230,0.716728)"
       cx="14.207293"
       cy="222.04396"
       fx="14.207293"
       fy="222.04396"
       r="8.2519293" />
    <radialGradient
       inkscape:collect="always"
       xlink:href="#linearGradient2057"
       id="radialGradient1363"
       gradientUnits="userSpaceOnUse"
       gradientTransform="scale(1.395230,0.716728)"
       cx="14.207293"
       cy="222.04396"
       fx="14.207293"
       fy="222.04396"
       r="8.2519293" />
    <radialGradient
       inkscape:collect="always"
       xlink:href="#linearGradient2057"
       id="radialGradient1367"
       gradientUnits="userSpaceOnUse"
       gradientTransform="scale(1.395230,0.716728)"
       cx="14.207293"
       cy="222.04396"
       fx="14.207293"
       fy="222.04396"
       r="8.2519293" />
    <radialGradient
       inkscape:collect="always"
       xlink:href="#linearGradient2057"
       id="radialGradient1371"
       gradientUnits="userSpaceOnUse"
       gradientTransform="scale(1.395230,0.716728)"
       cx="14.207293"
       cy="222.04396"
       fx="14.207293"
       fy="222.04396"
       r="8.2519293" />
    <radialGradient
       inkscape:collect="always"
       xlink:href="#linearGradient2057"
       id="radialGradient1375"
       gradientUnits="userSpaceOnUse"
       gradientTransform="scale(1.395230,0.716728)"
       cx="14.207293"
       cy="222.04396"
       fx="14.207293"
       fy="222.04396"
       r="8.2519293" />
  </defs>
  <sodipodi:namedview
     id="base"
     pagecolor="#ffffff"
     bordercolor="#666666"
     borderopacity="1.0"
     inkscape:pageopacity="0.0"
     inkscape:pageshadow="2"
     inkscape:zoom="4"
     inkscape:cx="93.875"
     inkscape:cy="48.375"
     inkscape:document-units="px"
     inkscape:current-layer="g6"
     inkscape:window-width="1920"
     inkscape:window-height="1012"
     inkscape:window-x="0"
     inkscape:window-y="0"
     inkscape:showpageshadow="2"
     inkscape:pagecheckerboard="0"
     inkscape:deskcolor="#d1d1d1"
     inkscape:window-maximized="1" />
  <g
     inkscape:label="Layer 1"
     inkscape:groupmode="layer"
     id="layer1">
    <g
       id="g1991"
       transform="matrix(2.245009,0.000000,0.000000,2.245009,-674.6615,-13.39146)">
      <path
         d="m 313.23883,27.911243 c -0.31344,0.01807 -0.6789,0.07553 -1.12576,0.165297 -4.15883,0.835444 -4.945,1.131311 -5.78192,2.188013 -0.44423,0.56088 -0.81256,1.112046 -0.81257,1.21885 0,0.106815 -0.36092,0.737943 -0.81169,1.405896 -0.45081,0.667954 -1.00786,1.613641 -1.25017,2.094055 -0.24231,0.480434 -0.76969,1.211185 -1.15621,1.624263 -0.47222,0.504713 -0.57694,0.754887 -0.3132,0.750797 0.10768,-0.0017 0.21934,-0.03111 0.33321,-0.07569 0.31661,0.266721 0.82631,0.519208 1.19797,0.58115 1.3847,0.230784 2.95017,0.289719 4.32121,0.63248 1.32529,0.331323 3.19752,0.02088 4.61006,0.02088 1.52834,0 1.71212,-0.214447 2.91532,-0.816047 1.10945,-0.554727 1.63131,-1.035733 2.0114,-1.224069 0.0653,0.04135 0.15832,0.06873 0.29841,0.06873 0.0734,0 0.17168,-0.02286 0.28448,-0.06003 0.0296,0.01753 0.0566,0.02527 0.0879,0.04872 0.67238,0.504284 1.67547,0.981794 2.56646,1.516384 1.247,0.7482 4.16712,1.732141 5.71493,1.732141 1.1476,0 2.46572,0.520426 3.61479,0.233156 1.38102,-0.345254 3.2386,-0.918996 3.9654,-2.081875 0.064,-0.102343 0.0969,-0.167311 0.15137,-0.258385 0.0942,0.229273 0.27697,0.452704 0.54896,0.724697 0.85449,0.854484 1.79121,1.770373 2.91533,2.332431 2.04949,1.024747 4.28306,0.234026 6.64842,0.234026 2.53085,0 4.86307,-0.343439 7.23045,-0.816916 1.20269,-0.240538 2.16569,-0.86062 3.14935,-1.516384 0.21139,-0.140929 0.39569,-0.26552 0.5594,-0.381924 0.53658,-0.331831 0.95838,-0.646265 0.88303,-0.836926 0.37415,-0.09726 0.42642,-0.378837 -0.35147,-0.837796 -0.0326,-0.01921 -0.0683,-0.05188 -0.10179,-0.07395 -0.1117,-0.13112 -0.24609,-0.274802 -0.40628,-0.434992 -0.18354,-0.183543 -0.3744,-0.353379 -0.56462,-0.524602 -0.10796,-0.190977 -0.24672,-0.396525 -0.4028,-0.609859 -0.20242,-0.467849 -0.44334,-0.90546 -0.64901,-1.076172 -0.21847,-0.181329 -0.48339,-0.579462 -0.40629,-0.874335 0.11016,-0.421126 -0.49283,-0.656049 -1.00048,-0.656839 -0.35545,-5.59e-4 -0.39942,-0.11669 -0.87434,-0.406284 -0.63921,-0.389777 -1.59778,-0.565155 -3.68786,-0.687288 -4.89959,-0.286323 -6.42593,-0.286633 -6.81286,0.03132 -0.20571,0.169072 -0.9792,0.625474 -1.6869,1.000484 l -1.28149,0.687288 -0.68729,-0.656839 c -0.38129,-0.353389 -0.68731,-0.795384 -0.68729,-0.999613 3e-5,-0.204238 -0.36193,-0.666452 -0.81256,-0.999613 -0.88797,-0.656513 -0.19269,-0.589229 -1.06312,-0.562881 -0.6339,0.0192 -1.71377,-1.131511 -2.59343,-1.124891 -0.87964,0.0066 -2.68758,0.190616 -4.03151,0.437603 -1.34394,0.246976 -2.53853,0.39855 -2.62475,0.312324 -0.25868,-0.258665 -2.06355,0.608662 -2.46902,1.187531 -0.66904,0.955218 -1.36388,1.156909 -1.96877,0.59333 -0.31016,-0.288944 -1.40307,-0.631528 -2.59343,-0.843016 -1.74104,-0.309352 -2.19899,-0.51553 -2.84398,-1.250169 -0.5144,-0.585858 -0.86973,-0.92561 -1.34326,-1.062252 -0.23677,-0.06832 -0.49826,-0.09028 -0.8117,-0.07221 z"
         style="fill:#926b2e;fill-rule:evenodd;stroke-width:1px;fill-opacity:1;stroke:none"
         id="path6" />
    </g>
  </g>
  <g
     inkscape:label="Layer 1 copy"
     inkscape:groupmode="layer"
     id="g6">
    <g
       id="g5"
       transform="matrix(2.245009,0.000000,0.000000,2.245009,-674.6615,-13.39146)">
      <path
         sodipodi:nodetypes="ccccccccccccccccccccccccccccccccccccccccccccccccccccccccccccc"
         id="path5"
         d="M 314.05022,27.983025 C 313.57666,27.846375 313.00649,27.897225 312.11272,28.076775 C 307.95366,28.912265 307.16844,29.207515 306.33147,30.264275 C 305.88722,30.825186 305.51898,31.376215 305.51897,31.483025 C 305.51897,31.589846 305.15727,32.221285 304.70647,32.889275 C 304.25564,33.557266 303.69880,34.502585 303.45647,34.983025 C 303.21415,35.463486 302.68676,36.194925 302.30022,36.608025 C 301.82798,37.112766 301.72396,37.362115 301.98772,37.358025 C 302.71407,37.346786 303.51941,36.431395 305.23772,33.639275 C 307.11406,30.590356 308.94124,30.609835 309.80022,30.170525 C 310.27890,29.925706 310.76921,29.603055 310.86272,29.451775 C 311.21079,28.888585 312.81872,29.158835 313.95647,29.983025 C 314.57860,30.433686 315.30505,30.795535 315.58147,30.795525 C 316.53182,30.795526 319.77415,31.964375 319.92522,32.358025 C 320.00866,32.575486 319.74449,33.114395 319.33147,33.545525 C 318.91987,33.975146 318.63913,34.470685 318.70647,34.670525 C 318.77377,34.870366 318.47656,35.253595 318.05022,35.514275 C 317.20808,36.029196 317.01337,36.545525 317.67522,36.545525 C 318.23950,36.545526 320.14866,35.333065 320.61272,34.670525 C 320.81986,34.374756 321.33110,33.980795 321.73772,33.795525 C 322.14432,33.610256 322.45648,33.299185 322.45647,33.108025 C 322.45647,32.702546 324.39086,31.071575 325.61272,30.451775 C 326.07663,30.216446 327.27452,29.966785 328.23772,29.889275 C 329.20088,29.811756 330.16865,29.712135 330.39397,29.670525 C 330.61933,29.628925 331.35160,29.678125 332.05022,29.795525 C 333.12343,29.975836 333.62110,30.280115 335.14397,31.795525 C 336.13537,32.782026 336.92520,33.694755 336.92522,33.795525 C 336.92525,33.896286 336.25146,34.635825 335.42522,35.451775 C 334.59904,36.267726 333.92524,37.021485 333.92522,37.139275 C 333.92525,37.708316 334.76777,37.219875 336.11272,35.858025 C 337.05038,34.908606 338.45645,34.199575 338.45647,33.670525 C 338.45650,33.294976 338.99076,32.983045 339.14397,32.983025 C 339.29720,32.983026 339.90600,32.682455 340.51897,32.295525 C 341.77039,31.505556 343.37181,31.360515 345.39397,31.858025 C 346.06999,32.024336 347.34548,32.072255 348.20647,31.983025 C 349.43765,31.855416 349.92430,31.946275 350.51897,32.326775 C 351.59449,33.014936 353.52343,35.026705 353.73772,35.701775 C 353.83747,36.015936 354.37527,36.578075 354.92522,36.951775 C 355.47516,37.325466 355.46678,37.455761 355.65722,37.455751 C 356.29691,37.455752 356.62118,37.153335 355.64397,36.576775 C 355.10316,36.257666 354.42012,35.523750 354.20780,35.015600 C 353.99853,34.514711 353.73745,34.039365 353.51897,33.858025 C 353.30049,33.676686 353.03561,33.277915 353.11272,32.983025 C 353.22288,32.561876 352.62040,32.327565 352.11272,32.326775 C 351.75725,32.326216 351.71266,32.210135 351.23772,31.920525 C 350.59847,31.530726 349.64042,31.355165 347.55022,31.233025 C 342.65036,30.946686 341.12467,30.946305 340.73772,31.264275 C 340.53200,31.433356 339.75796,31.889245 339.05022,32.264275 L 337.76897,32.951775 L 337.08147,32.295525 C 336.70016,31.942116 336.39395,31.499765 336.39397,31.295525 C 336.39400,31.091276 336.03213,30.628705 335.58147,30.295525 C 334.69345,29.638976 335.38945,29.706675 334.51897,29.733025 C 333.88504,29.752225 332.80493,28.601405 331.92522,28.608025 C 331.04553,28.614635 329.23798,28.798525 327.89397,29.045525 C 326.54996,29.292515 325.35519,29.444255 325.26897,29.358025 C 325.01027,29.099345 323.20571,29.966625 322.80022,30.545525 C 322.13114,31.500796 321.43640,31.702885 320.83147,31.139275 C 320.52130,30.850316 319.42815,30.507025 318.23772,30.295525 C 316.49658,29.986156 316.03900,29.780205 315.39397,29.045525 C 314.87954,28.459635 314.52378,28.119675 314.05022,27.983025 z "
         style="fill:#5c2700;fill-opacity:1.0000000" />
    </g>
  </g>
  <metadata
     id="metadata1">
    <rdf:RDF>
      <cc:Work
         rdf:about="">
        <dc:title>hill - RPG map elements</dc:title>
        <dc:description />
        <dc:subject>
          <rdf:Bag>
            <rdf:li>mapsym</rdf:li>
          </rdf:Bag>
        </dc:subject>
        <dc:publisher>
          <cc:Agent>
            <dc:title />
          </cc:Agent>
        </dc:publisher>
        <dc:creator>
          <cc:Agent>
            <dc:title>Nicu Buculei</dc:title>
          </cc:Agent>
        </dc:creator>
        <dc:rights>
          <cc:Agent>
            <dc:title>Nicu Buculei</dc:title>
          </cc:Agent>
        </dc:rights>
        <dc:date />
        <dc:format>image/svg+xml</dc:format>
        <dc:type
           rdf:resource="http://purl.org/dc/dcmitype/StillImage" />
        <cc:license
           rdf:resource="http://web.resource.org/cc/PublicDomain" />
        <dc:language>en</dc:language>
      </cc:Work>
      <cc:License
         rdf:about="http://web.resource.org/cc/PublicDomain">
        <cc:permits
           rdf:resource="http://web.resource.org/cc/Reproduction" />
        <cc:permits
           rdf:resource="http://web.resource.org/cc/Distribution" />
        <cc:permits
           rdf:resource="http://web.resource.org/cc/DerivativeWorks" />
      </cc:License>
    </rdf:RDF>
  </metadata>
</svg>
