<?xml version="1.0" encoding="UTF-8" standalone="no"?>
<!-- Created with Inkscape (http://www.inkscape.org/) -->

<svg
   width="128"
   height="128"
   id="svg2"
   sodipodi:version="0.32"
   inkscape:version="1.3.2 (1:1.3.2+202311252150+091e20ef0f)"
   version="1.0"
   sodipodi:docname="House1.svg"
   inkscape:output_extension="org.inkscape.output.svg.inkscape"
   xmlns:inkscape="http://www.inkscape.org/namespaces/inkscape"
   xmlns:sodipodi="http://sodipodi.sourceforge.net/DTD/sodipodi-0.dtd"
   xmlns:xlink="http://www.w3.org/1999/xlink"
   xmlns="http://www.w3.org/2000/svg"
   xmlns:svg="http://www.w3.org/2000/svg"
   xmlns:rdf="http://www.w3.org/1999/02/22-rdf-syntax-ns#"
   xmlns:cc="http://creativecommons.org/ns#"
   xmlns:dc="http://purl.org/dc/elements/1.1/">
  <defs
     id="defs4">
    <radialGradient
       r="8.2519293"
       fy="222.04396"
       fx="14.207293"
       cy="222.04396"
       cx="14.207293"
       gradientTransform="scale(1.39523,0.716728)"
       gradientUnits="userSpaceOnUse"
       id="radialGradient1968"
       xlink:href="#linearGradient2057"
       inkscape:collect="always" />
    <linearGradient
       inkscape:collect="always"
       id="linearGradient2057">
      <stop
         style="stop-color:#000000;stop-opacity:1;"
         offset="0"
         id="stop2059" />
      <stop
         style="stop-color:#000000;stop-opacity:0;"
         offset="1"
         id="stop2061" />
    </linearGradient>
    <inkscape:path-effect
       effect="mirror_symmetry"
       start_point="104.18704,111.74695"
       end_point="104.18704,122.3105"
       center_point="104.18704,117.02873"
       id="path-effect40"
       is_visible="true"
       lpeversion="1.2"
       lpesatellites=""
       mode="free"
       discard_orig_path="true"
       fuse_paths="false"
       oposite_fuse="false"
       split_items="false"
       split_open="false"
       link_styles="false" />
    <inkscape:path-effect
       effect="mirror_symmetry"
       start_point="104.18704,111.74695"
       end_point="104.18704,122.3105"
       center_point="104.18704,117.02873"
       id="path-effect40-6"
       is_visible="true"
       lpeversion="1.2"
       lpesatellites=""
       mode="free"
       discard_orig_path="true"
       fuse_paths="false"
       oposite_fuse="false"
       split_items="false"
       split_open="false"
       link_styles="false" />
    <inkscape:path-effect
       effect="mirror_symmetry"
       start_point="137.679,125.97956"
       end_point="137.679,127.54117"
       center_point="137.679,126.76037"
       id="path-effect39"
       is_visible="true"
       lpeversion="1.2"
       lpesatellites=""
       mode="free"
       discard_orig_path="true"
       fuse_paths="false"
       oposite_fuse="false"
       split_items="false"
       split_open="false"
       link_styles="false" />
    <inkscape:path-effect
       effect="mirror_symmetry"
       start_point="143.23545,120.52304"
       end_point="143.23545,121.1887"
       center_point="143.23545,120.85587"
       id="path-effect41"
       is_visible="true"
       lpeversion="1.2"
       lpesatellites=""
       mode="free"
       discard_orig_path="true"
       fuse_paths="false"
       oposite_fuse="false"
       split_items="false"
       split_open="false"
       link_styles="false" />
    <inkscape:path-effect
       effect="mirror_symmetry"
       start_point="104.18704,111.74695"
       end_point="104.18704,122.3105"
       center_point="104.18704,117.02873"
       id="path-effect40-1"
       is_visible="true"
       lpeversion="1.2"
       lpesatellites=""
       mode="free"
       discard_orig_path="true"
       fuse_paths="false"
       oposite_fuse="false"
       split_items="false"
       split_open="false"
       link_styles="false" />
    <inkscape:path-effect
       effect="mirror_symmetry"
       start_point="104.18704,111.74695"
       end_point="104.18704,122.3105"
       center_point="104.18704,117.02873"
       id="path-effect40-6-9"
       is_visible="true"
       lpeversion="1.2"
       lpesatellites=""
       mode="free"
       discard_orig_path="true"
       fuse_paths="false"
       oposite_fuse="false"
       split_items="false"
       split_open="false"
       link_styles="false" />
    <inkscape:path-effect
       effect="mirror_symmetry"
       start_point="137.679,125.97956"
       end_point="137.679,127.54117"
       center_point="137.679,126.76037"
       id="path-effect39-4"
       is_visible="true"
       lpeversion="1.2"
       lpesatellites=""
       mode="free"
       discard_orig_path="true"
       fuse_paths="false"
       oposite_fuse="false"
       split_items="false"
       split_open="false"
       link_styles="false" />
    <inkscape:path-effect
       effect="mirror_symmetry"
       start_point="143.23545,120.52304"
       end_point="143.23545,121.1887"
       center_point="143.23545,120.85587"
       id="path-effect41-7"
       is_visible="true"
       lpeversion="1.2"
       lpesatellites=""
       mode="free"
       discard_orig_path="true"
       fuse_paths="false"
       oposite_fuse="false"
       split_items="false"
       split_open="false"
       link_styles="false" />
  </defs>
  <sodipodi:namedview
     id="base"
     pagecolor="#ffffff"
     bordercolor="#666666"
     borderopacity="1.0"
     gridtolerance="10000"
     guidetolerance="10"
     objecttolerance="10"
     inkscape:pageopacity="0.0"
     inkscape:pageshadow="2"
     inkscape:zoom="5.6568543"
     inkscape:cx="59.662134"
     inkscape:cy="55.242717"
     inkscape:document-units="px"
     inkscape:current-layer="layer4"
     showgrid="false"
     width="744.09px"
     inkscape:window-width="1920"
     inkscape:window-height="1012"
     inkscape:window-x="1920"
     inkscape:window-y="0"
     showguides="true"
     inkscape:guide-bbox="true"
     inkscape:showpageshadow="2"
     inkscape:pagecheckerboard="0"
     inkscape:deskcolor="#d1d1d1"
     inkscape:window-maximized="1" />
  <metadata
     id="metadata7">
    <rdf:RDF>
      <cc:Work
         rdf:about="">
        <dc:format>image/svg+xml</dc:format>
        <dc:type
           rdf:resource="http://purl.org/dc/dcmitype/StillImage" />
      </cc:Work>
    </rdf:RDF>
  </metadata>
  <g
     inkscape:groupmode="layer"
     id="layer4"
     inkscape:label="fill">
    <path
       style="fill:#926b2e;fill-rule:evenodd;stroke:#926b2e;stroke-width:2;stroke-dasharray:none;stroke-opacity:1"
       d="M 41.273115,110.97145 C 26.229578,104.3184 13.837158,98.875 13.734404,98.875 c -0.102754,0 -0.142744,-0.421875 -0.08887,-0.9375 0.05388,-0.515625 0.3946,-7.4625 0.75716,-15.4375 0.362561,-7.975 0.67962,-14.524972 0.704577,-14.555493 0.0529,-0.06469 53.431845,18.63628 53.559955,18.76439 0.04733,0.04733 0.05719,8.247468 0.02191,18.222523 L 68.625,123.06789 Z"
       id="path1" />
    <path
       style="fill:#926b2e;fill-rule:evenodd;stroke:#926b2e;stroke-width:2;stroke-dasharray:none;stroke-opacity:1"
       d="M 40.625,75.5645 C 25.3625,70.200595 12.833307,65.775065 12.78235,65.729987 12.715337,65.670713 40.573495,4.1635062 40.886335,3.6800276 c 0.0249,-0.038485 1.12689,0.6531835 2.448862,1.5370409 2.877586,1.9239237 10.001725,5.4939865 17.539803,8.7895795 5.710267,2.496488 22.10064,9.085787 28.32224,11.386179 2.845565,1.052128 3.542702,1.400793 3.427035,1.713992 -0.07986,0.21625 -5.39987,13.412833 -11.82224,29.325744 C 72.394715,77.263645 69.019995,85.358392 68.75,85.34109 68.54375,85.32787 55.8875,80.928405 40.625,75.5645 Z M 33.607517,69.75 c 0.25917,-0.48125 0.544141,-0.875 0.633269,-0.875 0.08913,0 1.138535,0.39375 2.332015,0.875 2.389104,0.963365 2.677199,1.02362 2.677199,0.559933 0,-0.173288 -1.0125,-0.706508 -2.25,-1.184933 -1.2375,-0.478425 -2.25,-0.966162 -2.25,-1.08386 0,-0.117698 0.192354,-0.539622 0.427453,-0.937615 0.31657,-0.53591 0.354513,-0.796558 0.146271,-1.0048 -0.208241,-0.208243 -0.447782,-0.01727 -0.923427,0.736202 L 33.758051,67.85231 30.441525,66.470548 C 28.617436,65.710577 26.148072,64.686905 24.95405,64.195723 l -2.17095,-0.893061 1.86708,-3.72794 c 1.709121,-3.412545 1.913939,-3.713477 2.42095,-3.557012 0.304628,0.09401 1.280996,0.432605 2.169706,0.752437 0.888709,0.319833 1.661982,0.535368 1.718384,0.478966 0.349089,-0.349088 -0.398329,-0.845391 -2.0561,-1.365293 C 27.856404,55.555552 27,55.201965 27,55.098067 c 0,-0.103897 0.50374,-1.223895 1.119423,-2.488882 1.049848,-2.15703 1.180323,-2.734185 0.618102,-2.734185 -0.128132,0 -0.802417,1.134762 -1.498412,2.521695 -0.954276,1.901618 -1.360131,2.48536 -1.650505,2.373933 C 24.491993,54.349817 24,54.328885 24,54.703035 c 0,0.221435 0.315514,0.451535 0.75,0.546965 0.4125,0.0906 0.75,0.269787 0.75,0.398195 0,0.128408 -0.791425,1.813305 -1.758722,3.744215 -1.523101,3.040402 -1.82454,3.489857 -2.25,3.354823 -0.535579,-0.169988 -0.686617,0.332427 -0.23554,0.783504 0.174316,0.174318 0.134519,0.545853 -0.125,1.166971 -0.470491,1.126042 -0.470565,1.177292 -0.0017,1.177292 0.208474,0 0.56681,-0.39375 0.796303,-0.875 0.229492,-0.48125 0.537047,-0.871595 0.683455,-0.867435 0.146409,0.0042 2.639874,0.990682 5.541035,2.192265 l 5.274839,2.184698 -0.572928,0.870237 c -0.701993,1.066278 -0.724786,1.245235 -0.1586,1.245235 0.250033,0 0.648497,-0.381308 0.914368,-0.875 z m 22.54315,-2.569778 c 2.21412,-1.749122 4.440308,-3.546197 4.947088,-3.993499 l 0.921418,-0.81328 -0.394876,-12.184508 c -0.21718,-6.70148 -0.486532,-12.27617 -0.598562,-12.3882 -0.225635,-0.225635 -8.751907,-3.41195 -9.1527,-3.420415 -0.13858,-0.0029 -2.72608,1.489685 -5.75,3.316912 L 40.625,41.019463 38.988353,44.259732 c -1.86055,3.683551 -7.313046,17.169345 -7.192675,17.789823 0.05521,0.28459 3.119115,1.609323 10.079322,4.35797 5.5,2.171997 10.05625,3.94995 10.125,3.951002 0.06875,0.0011 1.93655,-1.429182 4.150667,-3.178305 z m 14.480575,-4.576665 c 1.096568,-2.211795 2.063728,-4.06578 2.149245,-4.11997 0.08552,-0.05419 1.117911,0.226796 2.294208,0.624408 1.70612,0.576707 2.165225,0.65387 2.26975,0.381482 0.09368,-0.244115 -0.471252,-0.537594 -1.98171,-1.029494 C 74.200732,58.08156 73.25,57.681825 73.25,57.571685 c 0,-0.11014 1.51697,-3.23259 3.371043,-6.938777 l 3.371044,-6.738521 1.030575,0.363608 C 81.58948,44.45798 82.15376,44.55948 82.27662,44.483547 82.740005,44.19716 82.467252,43.88526 81.5,43.595462 c -0.55,-0.164782 -1,-0.396547 -1,-0.51503 0,-0.118482 0.50379,-1.218527 1.119533,-2.444544 l 1.119532,-2.229121 0.79106,0.226873 c 0.435083,0.12478 0.887545,0.167242 1.005468,0.09436 C 84.959835,38.465807 84.736082,38.16167 84,38 c -0.4125,-0.0906 -0.75,-0.270333 -0.75,-0.399405 0,-0.129075 0.564845,-1.360265 1.255212,-2.735983 1.043038,-2.078494 1.189123,-2.526665 0.864218,-2.651342 -0.493057,-0.189205 -0.343905,-0.399558 -1.842998,2.59923 -0.704544,1.409375 -1.36434,2.561505 -1.466212,2.56029 -0.10187,-0.0012 -2.26323,-0.619968 -4.803017,-1.375 -4.967916,-1.476873 -5.258383,-1.53548 -5.254938,-1.06029 0.0014,0.190345 1.833707,0.839802 4.6875,1.661455 2.57688,0.741925 4.785338,1.438278 4.907685,1.54745 0.260007,0.232008 -1.809205,4.728595 -2.175978,4.728595 -0.135084,0 -3.328947,-1.022132 -7.097467,-2.271403 -5.983312,-1.98348 -8.254032,-2.517977 -7.42831,-1.74853 0.126118,0.117523 3.406297,1.2419 7.28929,2.498618 l 7.059985,2.28494 -3.400287,6.805688 C 73.974525,54.18744 72.40779,57.28974 72.363053,57.33831 72.26036,57.449802 68.19042,56.121842 67.938042,55.894497 67.835215,55.80187 68.64777,53.49388 69.74372,50.765633 71.593398,46.161068 71.814742,45.375 71.261642,45.375 c -0.114865,0 -1.1352,2.312733 -2.267412,5.139403 -1.394425,3.481319 -2.160775,5.100182 -2.375375,5.017832 -1.044672,-0.400878 -2.393407,-0.716015 -2.5205,-0.588923 -0.292387,0.292388 0.157577,0.618368 1.291972,0.93598 1.27301,0.35642 1.304656,0.494773 0.522438,2.284048 -0.354608,0.811142 -0.356902,0.929602 -0.02051,1.05869 0.271305,0.104108 0.517661,-0.178653 0.86826,-0.996568 C 67.029732,57.59741 67.25,56.980375 67.25,56.854272 c 0,-0.1261 0.09279,-0.229272 0.206212,-0.229272 0.169373,0 3.031938,0.926358 4.235818,1.370758 0.218632,0.0807 -0.30512,1.359499 -1.6875,4.120194 C 68.90204,64.317695 68,66.232943 68,66.37206 c 0,0.139118 0.143435,0.25294 0.318742,0.25294 0.175311,0 1.215935,-1.80965 2.3125,-4.021443 z M 44.86826,29.490045 c 0.958792,-1.85666 1.858792,-3.335241 2,-3.285735 0.141207,0.0495 2.197857,0.79501 4.570337,1.656676 2.45765,0.892601 4.492458,1.498031 4.729303,1.407144 0.658765,-0.25279 0.204005,-0.479228 -3.7929,-1.888583 -2.0625,-0.727262 -4.114087,-1.469419 -4.559085,-1.649238 l -0.809085,-0.326942 1.548485,-2.951684 c 0.851667,-1.623426 1.7797,-3.360252 2.062295,-3.859614 l 0.513807,-0.90793 3.996793,1.45125 c 2.517182,0.913999 3.968712,1.56572 3.920945,1.760462 -0.04171,0.170067 -0.294838,0.58762 -0.5625,0.927895 -0.583113,0.741308 -0.616495,1.051254 -0.113223,1.051254 0.205388,0 0.68795,-0.43418 1.072361,-0.964844 l 0.698929,-0.964845 3.32525,1.214845 C 67.112787,23.49102 67.25,23.523364 67.25,23.051204 67.25,22.863065 65.966935,22.270883 64.1875,21.637745 62.503125,21.03843 61.026147,20.460912 60.90533,20.354371 60.784512,20.24783 60.92836,19.852113 61.225,19.475 c 0.388625,-0.494057 0.463155,-0.761018 0.266707,-0.95533 -0.195687,-0.193561 -0.462302,-0.03972 -0.944669,0.545084 -0.369621,0.448114 -0.784538,0.815248 -0.922038,0.815852 -0.224627,9.88e-4 -7.88541,-2.744818 -8.080935,-2.896397 -0.04451,-0.03451 0.10071,-0.414002 0.322717,-0.843318 0.384528,-0.743595 0.34277,-1.265891 -0.101207,-1.265891 -0.112703,0 -0.345713,0.339914 -0.517798,0.755364 -0.172084,0.41545 -0.401897,0.810378 -0.510692,0.877618 -0.172303,0.106488 -4.929308,-1.49187 -5.17687,-1.739433 -0.05116,-0.05116 0.251868,-0.704104 0.673388,-1.450994 C 47.103363,11.776422 47.14002,11.625 46.643347,11.625 46.44719,11.625 45.932682,12.24375 45.5,13 c -0.432682,0.75625 -0.889733,1.375 -1.015665,1.375 -0.125935,0 -0.81016,-0.220834 -1.520503,-0.490744 C 41.734467,13.417135 41.25,13.40922 41.25,13.856257 c 0,0.110961 0.682248,0.450508 1.516105,0.754548 1.458595,0.531829 1.502888,0.573405 1.16764,1.095997 C 43.24957,16.773318 40.75,21.285007 40.75,21.453419 c 0,0.09437 0.15943,0.171581 0.354287,0.171581 0.194858,0 1.158728,-1.39561 2.141936,-3.101355 l 1.787652,-3.101356 1.920562,0.70483 c 1.05631,0.387657 2.239361,0.827815 2.629001,0.978129 l 0.708439,0.273298 -1.92122,3.685727 c -1.056672,2.02715 -2.005027,3.775286 -2.10746,3.884746 C 46.160767,25.05848 45.488962,24.916272 44.7703,24.633001 43.52349,24.141555 43,24.139774 43,24.626979 c 0,0.122359 0.61875,0.417515 1.375,0.655901 0.75625,0.238387 1.375,0.501055 1.375,0.583707 0,0.08265 -0.734718,1.546938 -1.632703,3.25397 -1.467267,2.78921 -1.775907,3.763705 -1.187642,3.749838 0.10744,-0.0025 0.979813,-1.52369 1.938605,-3.38035 z"
       id="path2" />
    <path
       style="fill:#926b2e;fill-rule:evenodd;stroke:#926b2e;stroke-width:2;stroke-dasharray:none;stroke-opacity:1"
       d="M 70,104.67053 V 86.66257 l 3.3125,-1.28283 c 1.821875,-0.705556 12.36875,-4.802304 23.4375,-9.103885 11.06875,-4.30158 20.1561,-7.798535 20.19411,-7.77101 0.038,0.02752 0.17396,5.100195 0.3021,11.2726 0.12814,6.172405 0.29546,13.37369 0.37183,16.002858 l 0.13885,4.780307 -5.94094,2.76806 c -3.26752,1.52243 -6.80031,3.15962 -7.85064,3.63821 l -1.90969,0.87015 -0.16856,-6.66851 c -0.18356,-7.261215 -0.27046,-7.713423 -1.71874,-8.943372 -1.550623,-1.316862 -3.111443,-0.426211 -4.1582,2.372792 -0.548613,1.466972 -0.55532,1.624285 -0.376473,8.82745 l 0.182095,7.33386 -12.533896,5.81612 c -6.893643,3.19886 -12.702185,5.88069 -12.907871,5.95962 C 70.044141,122.66155 70,120.55296 70,104.67053 Z m 11.531969,-2.38614 c 0.463667,-0.18734 1.658656,-0.64717 2.655531,-1.02185 L 86,100.58129 v -3.393683 c 0,-3.156345 -0.04311,-3.467245 -0.616474,-4.445611 -0.744733,-1.270792 -2.037899,-1.986028 -2.958179,-1.636138 -0.713386,0.271229 -1.474274,1.276795 -1.887109,2.493947 -0.338818,0.998932 -0.399976,9.025195 -0.06877,9.025195 0.120708,0 0.598833,-0.15328 1.062501,-0.34061 z m 28.300041,-10.773453 2.66508,-0.989062 -0.15537,-3.635938 c -0.17132,-4.009518 -0.47312,-4.928205 -1.85344,-5.641998 -1.55396,-0.803583 -2.56176,-0.162905 -3.44121,2.187645 -0.47916,1.280676 -0.51089,1.733839 -0.37144,5.304673 0.0839,2.147405 0.22872,3.872732 0.32189,3.834058 0.0932,-0.03867 1.3687,-0.515393 2.83449,-1.059378 z"
       id="path3" />
    <path
       style="fill:#926b2e;fill-rule:evenodd;stroke:#926b2e;stroke-width:2;stroke-dasharray:none;stroke-opacity:1"
       d="m 97.157478,105.91087 c -0.08813,-1.60098 -0.169722,-4.50134 -0.181313,-6.445251 -0.02023,-3.393245 0.0073,-3.592907 0.68888,-5 0.883703,-1.824302 1.382668,-1.967214 2.082041,-0.596332 0.484874,0.950423 0.527214,1.484745 0.575644,7.263693 l 0.0523,6.2378 -1.528642,0.72548 -1.528642,0.72548 z"
       id="path4" />
    <path
       style="fill:#926b2e;fill-rule:evenodd;stroke:#926b2e;stroke-width:2;stroke-dasharray:none;stroke-opacity:1"
       d="m 96.314897,110.62171 c -0.0012,-0.0283 -0.0029,-0.0797 -0.0036,-0.11425 l -0.0013,-0.0628 0.683885,-0.3157 c 0.376137,-0.17364 1.423924,-0.65747 2.328417,-1.07518 0.904491,-0.41771 1.646751,-0.7604 1.649471,-0.76154 0.004,-0.002 0.005,0.0205 0.004,0.10843 l -10e-4,0.11048 -2.283201,1.05978 c -1.255761,0.58288 -2.303686,1.06933 -2.32872,1.08101 l -0.04552,0.0212 z"
       id="path5" />
    <path
       style="fill:#926b2e;fill-rule:evenodd;stroke:#926b2e;stroke-width:2;stroke-dasharray:none;stroke-opacity:1"
       d="m 81.458485,98.049109 -0.06227,-3.031636 0.228584,-0.696588 c 0.433777,-1.321888 1.01991,-2.264421 1.408178,-2.264421 0.236186,0 0.954414,0.732241 1.31333,1.338954 l 0.329728,0.557373 v 2.971118 2.971117 l -1.436311,0.536454 c -0.789971,0.29504 -1.499909,0.56183 -1.577642,0.59286 -0.127157,0.0508 -0.147575,-0.24763 -0.203599,-2.975231 z"
       id="path6" />
    <path
       style="fill:#926b2e;fill-rule:evenodd;stroke:#926b2e;stroke-width:2;stroke-dasharray:none;stroke-opacity:1"
       d="m 107.89228,87.997895 -0.0586,-3.003074 0.22998,-0.733916 c 0.4048,-1.291831 1.02093,-2.280713 1.421,-2.280713 0.20532,0 0.9838,0.788631 1.31232,1.329439 l 0.30716,0.505647 v 2.99863 2.99863 l -1.51757,0.569536 c -0.83466,0.313244 -1.54415,0.580642 -1.57664,0.594215 -0.0325,0.01357 -0.0854,-1.326704 -0.11766,-2.978394 z"
       id="path7" />
    <path
       style="fill:#926b2e;fill-rule:evenodd;stroke:#926b2e;stroke-width:2;stroke-dasharray:none;stroke-opacity:1"
       d="m 74.805923,81.594031 c 3.228271,-8.02307 7.429579,-18.421248 7.471297,-18.491357 0.03559,-0.0598 2.763909,1.070429 7.364859,3.050961 4.019584,1.730276 7.329944,3.167567 7.356357,3.19398 0.02641,0.02641 -0.657091,1.155615 -1.518897,2.509337 l -1.56692,2.461314 -4.993941,1.921859 c -2.746668,1.057022 -7.054726,2.716564 -9.573462,3.687869 -2.518736,0.971306 -4.561418,1.721022 -4.539293,1.666037 z"
       id="path8" />
    <path
       style="fill:#926b2e;fill-rule:evenodd;stroke:#926b2e;stroke-width:2;stroke-dasharray:none;stroke-opacity:1"
       d="m 90.199376,65.255188 c -4.083029,-1.753796 -7.439623,-3.202042 -7.459098,-3.218323 -0.05798,-0.04847 11.427615,-28.496975 11.495136,-28.472124 0.04979,0.01832 5.827966,8.763763 12.050466,18.238725 l 0.99199,1.510495 -4.79143,7.528998 c -2.635281,4.140948 -4.807612,7.545186 -4.827399,7.564974 -0.01979,0.01979 -3.376637,-1.398948 -7.459665,-3.152745 z m 4.559126,-8.822704 c 1.572257,-0.536663 2.868367,-0.985467 2.880245,-0.997345 0.03029,-0.03028 -0.495522,-6.405606 -0.55667,-6.749537 -0.04411,-0.248069 -0.114644,-0.307222 -0.593291,-0.497519 -1.05603,-0.41985 -1.866839,-0.506793 -2.687889,-0.288223 -0.975831,0.259772 -1.745616,0.93234 -2.226197,1.945049 l -0.254573,0.536449 0.210334,3.314563 c 0.115684,1.82301 0.211754,3.404056 0.213489,3.513437 0.0017,0.10938 0.03752,0.198874 0.07953,0.198874 0.04201,0 1.362766,-0.439087 2.935024,-0.975748 z"
       id="path9" />
    <path
       style="fill:#926b2e;fill-rule:evenodd;stroke:#926b2e;stroke-width:2;stroke-dasharray:none;stroke-opacity:1"
       d="m 100.8511,69.835378 c -1.142415,-0.500063 -2.070368,-0.945587 -2.062113,-0.990055 0.0164,-0.08836 9.013513,-14.26465 9.127413,-14.381614 0.0385,-0.03955 1.75246,2.486152 3.80877,5.612661 2.0563,3.126508 3.7709,5.727027 3.81021,5.778929 0.0473,0.06247 -2.01096,0.897083 -6.08812,2.468696 -3.38778,1.30588 -6.24047,2.384736 -6.33931,2.397457 -0.0988,0.01272 -1.11443,-0.386012 -2.25685,-0.886074 z"
       id="path10" />
    <path
       style="fill:#926b2e;fill-rule:evenodd;stroke:#926b2e;stroke-width:2;stroke-dasharray:none;stroke-opacity:1"
       d="m 70.564501,85.110381 c 0.472867,-1.319232 23.097546,-57.111415 23.141277,-57.06611 0.03357,0.03477 5.564917,8.575021 12.291892,18.97833 6.72698,10.403308 12.2992,19.018699 12.38272,19.145313 l 0.15186,0.230206 -2.01257,0.885191 c -1.10692,0.486855 -11.87672,4.712777 -23.932886,9.390938 -12.056171,4.678161 -21.956901,8.528149 -22.001622,8.555529 -0.04591,0.02811 -0.05491,-0.02387 -0.02067,-0.119397 z M 95.184588,74.953319 C 112.19887,68.397737 117.19925,66.437885 117.17227,66.335455 117.1287,66.170038 94.057873,31.120439 93.97382,31.091968 c -0.05429,-0.01839 -21.003933,51.873085 -21.117415,52.30704 -0.03766,0.144027 -0.01508,0.162609 0.129998,0.106952 0.09657,-0.03705 10.085753,-3.885737 22.198185,-8.552641 z"
       id="path11" />
    <path
       style="fill:#926b2e;fill-rule:evenodd;stroke:#926b2e;stroke-width:2;stroke-dasharray:none;stroke-opacity:1"
       d="m 96.936056,71.697519 1.202559,-1.88578 1.760076,0.754627 c 1.258879,0.539741 1.714299,0.772262 1.599309,0.816556 -0.0884,0.03406 -1.40493,0.54308 -2.925587,1.131153 -1.520655,0.588073 -2.781498,1.069224 -2.801872,1.069224 -0.02038,0 0.504107,-0.848601 1.165515,-1.88578 z"
       id="path12" />
    <path
       style="fill:#926b2e;fill-rule:evenodd;stroke:#926b2e;stroke-width:2;stroke-dasharray:none;stroke-opacity:1"
       d="m 52.41429,68.42593 c 0,-0.07712 -0.457484,-5.421575 -1.016632,-11.876571 -0.559148,-6.454996 -0.986726,-11.748844 -0.950175,-11.764107 0.03655,-0.01526 2.194407,-1.293135 4.795234,-2.839714 2.600827,-1.546579 4.743739,-2.798575 4.762026,-2.782213 0.01829,0.01636 0.125799,3.123847 0.238915,6.905522 0.113116,3.781675 0.26997,8.89194 0.348565,11.356143 l 0.142899,4.480371 -0.33762,0.304233 c -0.632709,0.57014 -2.917517,2.416205 -5.121103,4.137717 -3.013065,2.353903 -2.862109,2.24427 -2.862109,2.078619 z"
       id="path13" />
    <path
       style="fill:#926b2e;fill-rule:evenodd;stroke:#926b2e;stroke-width:2;stroke-dasharray:none;stroke-opacity:1"
       d="m 42.205436,65.313717 c -4.861359,-1.915286 -8.905452,-3.513008 -8.986874,-3.550494 -0.129262,-0.05951 0.0064,-0.466137 1.069794,-3.205943 2.578515,-6.643632 4.416298,-11.020261 5.882728,-14.009553 1.063447,-2.167819 1.386052,-2.687947 1.838151,-2.963604 1.001685,-0.610753 3.53275,0.402789 6.492719,2.599953 0.486014,0.360764 0.728469,0.599197 0.729307,0.717204 6.9e-4,0.09723 0.458617,5.456668 1.017617,11.909868 0.559,6.4532 1.016364,11.792961 1.016364,11.866136 0,0.07318 -0.04972,0.129833 -0.110486,0.125908 -0.06077,-0.0039 -4.087961,-1.574189 -8.94932,-3.489475 z m 4.000551,-7.906687 c 0.109919,-1.968189 0.187266,-3.802599 0.171882,-4.076465 -0.06134,-1.091944 -1.102238,-2.51087 -2.120719,-2.890909 -0.875587,-0.326719 -1.830532,-0.253317 -2.906116,0.223377 -0.576728,0.255604 -0.572211,0.245431 -0.690882,1.555956 -0.136794,1.510658 -0.469739,6.60725 -0.433364,6.633766 0.144849,0.105595 5.543733,2.158711 5.646764,2.147382 0.111738,-0.01229 0.164004,-0.577202 0.332435,-3.593107 z"
       id="path14" />
    <path
       style="fill:#926b2e;fill-rule:evenodd;stroke:#926b2e;stroke-width:2;stroke-dasharray:none;stroke-opacity:1"
       d="m 49.070402,43.260641 c -1.58199,-1.172845 -3.271897,-2.120232 -4.550549,-2.551107 l -0.690788,-0.232779 3.916962,-2.378616 c 2.154329,-1.308239 3.981909,-2.417498 4.061288,-2.465019 0.108078,-0.0647 1.069219,0.253705 3.826911,1.267782 2.025423,0.7448 3.650903,1.381436 3.612179,1.414746 -0.03872,0.03331 -2.079032,1.246877 -4.534018,2.696817 -2.454986,1.44994 -4.543161,2.686524 -4.640388,2.747965 -0.157599,0.09959 -0.266259,0.04537 -1.001597,-0.499789 z"
       id="path15" />
    <path
       style="fill:#926b2e;fill-rule:evenodd;stroke:#926b2e;stroke-width:2;stroke-dasharray:none;stroke-opacity:1"
       d="m 43.085868,58.849796 -1.68283,-0.661444 0.02477,-0.279575 c 0.01362,-0.153766 0.105062,-1.492705 0.203196,-2.975419 0.229355,-3.465333 0.209139,-3.344407 0.585408,-3.501623 1.16917,-0.48851 2.178393,-0.0067 2.818061,1.345496 l 0.223882,0.473247 -0.13563,2.58711 c -0.157231,2.999153 -0.212962,3.695449 -0.294772,3.682808 -0.03259,-0.005 -0.816529,-0.306806 -1.742086,-0.6706 z"
       id="path16" />
    <path
       style="fill:#926b2e;fill-rule:evenodd;stroke:#926b2e;stroke-width:2;stroke-dasharray:none;stroke-opacity:1"
       d="m 92.913047,54.571375 c -0.08729,-0.726756 -0.159679,-2.029614 -0.160874,-2.895239 -0.0018,-1.339321 0.08927,-1.66531 0.611463,-2.1875 0.735029,-0.735029 2.00607,-0.83045 2.346187,-0.176136 0.125079,0.240625 0.305181,1.567749 0.400228,2.949165 l 0.172813,2.511664 -1.328932,0.443077 c -0.730913,0.243692 -1.453414,0.495561 -1.605558,0.55971 -0.171942,0.0725 -0.336684,-0.383418 -0.435327,-1.204741 z"
       id="path18" />
    <path
       style="fill:#926b2e;fill-rule:evenodd;stroke:#926b2e;stroke-width:2;stroke-dasharray:none;stroke-opacity:1"
       d="M 81.5,21.148204 78.375,19.943032 78.30125,18.291444 78.2275,16.639856 81.488753,15.005639 84.75,13.371422 v 4.501789 c 0,2.475984 -0.02813,4.496923 -0.0625,4.490977 -0.03437,-0.0059 -1.46875,-0.55314 -3.1875,-1.215984 z"
       id="path19" />
    <path
       style="fill:#926b2e;fill-rule:evenodd;stroke:#926b2e;stroke-width:2;stroke-dasharray:none;stroke-opacity:1"
       d="M 74.3125,18.412935 C 69.215367,16.352976 68.980711,16.25283 69.169967,16.218212 l 0.173783,-0.03179 0.11691,-1.686961 c 0.0643,-0.927829 0.124352,-1.695452 0.133449,-1.705828 0.02213,-0.02525 7.417932,3.537157 7.487215,3.606441 0.08253,0.08253 -0.02065,3.069552 -0.105872,3.064887 -0.03806,-0.0021 -1.23639,-0.475495 -2.662952,-1.052027 z"
       id="path20" />
    <path
       style="fill:#926b2e;fill-rule:evenodd;stroke:#926b2e;stroke-width:2;stroke-dasharray:none;stroke-opacity:1"
       d="M 73.887581,13.698773 C 70.80889,12.211167 70.136869,11.864644 70.21699,11.806058 70.390407,11.679253 77.226638,8.15625 77.299281,8.15625 c 0.03853,0 1.691408,0.9055314 3.673068,2.012292 l 3.603018,2.012292 -3.334558,1.671788 C 79.406801,14.772105 77.85,15.523366 77.78125,15.522091 77.7125,15.520815 75.960349,14.700322 73.887581,13.698773 Z m 6.711068,-0.12054 c 1.561368,-0.799159 2.838191,-1.467128 2.837386,-1.484375 -8.05e-4,-0.01725 -1.382735,-0.797674 -3.070954,-1.734283 l -3.06949,-1.702925 -3.022795,1.631086 c -1.662538,0.897098 -3.022403,1.649352 -3.021923,1.671675 0.0011,0.04901 6.307627,3.058343 6.425901,3.066273 0.04566,0.0031 1.360506,-0.648292 2.921875,-1.447451 z"
       id="path21" />
    <path
       style="fill:#926b2e;fill-rule:evenodd;stroke:#926b2e;stroke-width:2;stroke-dasharray:none;stroke-opacity:1"
       d="m 75.580434,12.919762 c -1.141699,-0.540244 -2.076643,-0.996325 -2.077654,-1.013512 -0.0015,-0.02599 1.089465,-0.622666 3.403093,-1.861175 l 0.382815,-0.2049254 1.933781,1.0721604 c 1.06358,0.589688 1.957037,1.093285 1.985461,1.119105 0.03925,0.03566 -3.445701,1.88277 -3.533267,1.872722 -0.01013,-0.0012 -0.95253,-0.444131 -2.094229,-0.984375 z"
       id="path22" />
  </g>
  <g
     inkscape:groupmode="layer"
     id="layer3"
     inkscape:label="Layer 3"
     style="display:inline;stroke-width:0.0492125;stroke-dasharray:none"
     transform="matrix(16.798949,0,0,14.422345,-2330.3582,-1690.3485)">
    <path
       style="display:inline;fill:none;fill-rule:evenodd;stroke:#5c2600;stroke-width:0.06424525;stroke-dasharray:none"
       d="m 142.87273,123.1934 -3.46377,-1.41445"
       id="path34"
       sodipodi:nodetypes="cc" />
    <path
       style="display:inline;fill:none;fill-rule:evenodd;stroke:#5c2600;stroke-width:0.06424525;stroke-linejoin:miter;stroke-dasharray:none"
       d="m 141.80186,122.04105 c 0,0 0.46041,-0.41067 0.56905,-0.53006 -0.004,-0.1016 -0.0436,-1.66635 -0.0436,-1.66635"
       id="path42"
       sodipodi:nodetypes="ccc" />
    <path
       style="fill:none;fill-rule:evenodd;stroke:#5c2600;stroke-width:0.94398062;stroke-linecap:butt;stroke-dasharray:none;stroke-opacity:1"
       d="m 104.18704,115.30217 0.12668,7.00834 3.7526,-1.66681 -0.0405,-6.59505 c 0,0 -2.27935,-5.93384 -3.83873,1.25352 z"
       id="path32-0"
       inkscape:path-effect="#path-effect40-1"
       inkscape:original-d="m 104.18704,115.30217 -0.12668,7.00834 -3.7526,-1.66681 0.0405,-6.59505 c 0,0 2.27935,-5.93384 3.83873,1.25352 z"
       transform="matrix(0.06868864,0,0,0.06743276,136.37435,116.0169)" />
    <path
       style="fill:none;fill-rule:evenodd;stroke:#5c2600;stroke-width:0.94398062;stroke-linecap:butt;stroke-dasharray:none;stroke-opacity:1"
       d="m 104.18704,115.30217 0.12668,7.00834 3.7526,-1.66681 -0.0405,-6.59505 c 0,0 -2.27935,-5.93384 -3.83873,1.25352 z"
       id="path32-0-2"
       inkscape:path-effect="#path-effect40-6-9"
       inkscape:original-d="m 104.18704,115.30217 -0.12668,7.00834 -3.7526,-1.66681 0.0405,-6.59505 c 0,0 2.27935,-5.93384 3.83873,1.25352 z"
       transform="matrix(0.06868864,0,0,0.06743276,137.94813,115.31757)" />
    <path
       style="fill:none;fill-rule:evenodd;stroke:#5c2600;stroke-width:0.06424525;stroke-dasharray:none"
       d="m 145.76628,124.20431 -0.0403,-2.32099 -2.87682,1.30036 0.004,2.59572 z"
       id="path17"
       inkscape:label="path17"
       sodipodi:nodetypes="ccccc" />
    <path
       style="fill:none;fill-rule:evenodd;stroke:#5c2600;stroke-width:0.06424525;stroke-dasharray:none"
       d="m 142.84044,125.80231 -3.35069,-1.72639 0.0907,-2.21723"
       id="path33"
       sodipodi:nodetypes="ccc" />
    <path
       style="fill:none;fill-rule:evenodd;stroke:#5c2600;stroke-width:0.06424525;stroke-dasharray:none"
       d="m 142.85836,123.17501 1.43,-4.11996 1.52868,2.75351"
       id="path35"
       sodipodi:nodetypes="ccc" />
    <path
       style="fill:none;fill-rule:evenodd;stroke:#5c2600;stroke-width:0.06424525;stroke-dasharray:none"
       d="m 143.59322,121.51893 1.2716,0.63684"
       id="path36"
       sodipodi:nodetypes="cc" />
    <path
       style="fill:none;fill-rule:evenodd;stroke:#5c2600;stroke-width:0.06424525;stroke-dasharray:none"
       d="m 145.15054,120.89256 -0.81392,1.49089"
       id="path37"
       sodipodi:nodetypes="cc" />
    <path
       style="fill:none;fill-rule:evenodd;stroke:#5c2600;stroke-width:0.06424525;stroke-dasharray:none"
       d="m 144.27681,119.0274 c 0,0 -2.66738,-1.13806 -3.09783,-1.6223"
       id="path38"
       sodipodi:nodetypes="cc" />
    <path
       style="fill:none;fill-opacity:1;fill-rule:evenodd;stroke:#5c2600;stroke-width:0.07490818;stroke-dasharray:none;stroke-opacity:1"
       d="m 137.98435,126.19489 0.024,1.15055 -0.30425,0.19571 -0.0251,-1.177 c 0,0 0.12312,-0.73813 0.3053,-0.16926 z"
       id="path24-2"
       sodipodi:nodetypes="cccc"
       inkscape:original-d="m 137.37365,126.19489 -0.024,1.15055 0.30425,0.19571 0.0251,-1.177 c 0,0 -0.12312,-0.73813 -0.3053,-0.16926 z"
       inkscape:path-effect="#path-effect39-4"
       transform="matrix(0.9379942,0,0,0.7841937,15.301999,24.801693)" />
    <path
       style="display:inline;fill:none;fill-opacity:1;fill-rule:evenodd;stroke:#5c2600;stroke-width:0.06825492;stroke-dasharray:none;stroke-opacity:1"
       d="m 143.50866,120.6116 0.0267,0.45189 -0.27731,0.12521 -0.0226,-0.4906 c 0,0 0.0588,-0.27043 0.26598,-0.13906 z"
       id="path29-9"
       sodipodi:nodetypes="cccccc"
       inkscape:path-effect="#path-effect41-7"
       inkscape:original-d="m 142.96224,120.6116 -0.0267,0.45189 0.27731,0.12521 0.0226,-0.4906 c 0,0 -0.0588,-0.27043 -0.26598,-0.13906 z"
       transform="matrix(1.0047987,0,0,0.88172885,0.27142265,14.281119)" />
    <path
       style="fill:none;fill-rule:evenodd;stroke:#5c2600;stroke-width:0.06424525;stroke-linejoin:round;stroke-dasharray:none"
       d="m 140.64584,121.50165 1.16706,0.53462 -0.12991,-1.74922 c 0,0 -0.38784,-0.37872 -0.51224,-0.20257 -0.12441,0.17616 -0.52491,1.41717 -0.52491,1.41717 z"
       id="path41"
       sodipodi:nodetypes="cccsc" />
    <path
       style="fill:none;fill-rule:evenodd;stroke:#5c2600;stroke-width:0.06424525;stroke-linejoin:miter;stroke-dasharray:none"
       d="m 143.79883,118.82153 0.0127,-0.77792 -0.48908,-0.31805 -0.4897,0.29548 -0.0185,0.30253"
       id="path43"
       sodipodi:nodetypes="ccccc" />
    <path
       style="fill:none;fill-rule:evenodd;stroke:#5c2600;stroke-width:0.06424525;stroke-linejoin:miter;stroke-dasharray:none"
       d="m 142.83814,118.03512 0.51236,0.28727 0.46605,-0.27117"
       id="path44"
       sodipodi:nodetypes="ccc" />
    <path
       style="fill:none;fill-rule:evenodd;stroke:#5c2600;stroke-width:0.06424525;stroke-linejoin:miter;stroke-dasharray:none"
       d="m 142.31544,119.85667 -0.62955,0.43444"
       id="path45"
       sodipodi:nodetypes="cc" />
    <path
       style="fill:none;fill-rule:evenodd;stroke:#5c2600;stroke-width:0.06424525;stroke-linejoin:miter;stroke-dasharray:none"
       d="m 141.1873,120.06701 0.62047,-0.43964 0.5317,0.22789"
       id="path46"
       sodipodi:nodetypes="ccc" />
    <path
       style="display:inline;fill:none;fill-opacity:1;fill-rule:evenodd;stroke:#5c2600;stroke-width:0.06424525;stroke-dasharray:none;stroke-opacity:1"
       d="m 141.17576,120.80884 -0.0267,0.45189 0.27731,0.12521 0.0226,-0.4906 c 0,0 -0.0588,-0.27043 -0.26598,-0.13906 z"
       id="path29-1"
       sodipodi:nodetypes="cccccc" />
    <path
       style="fill:none;fill-rule:evenodd;stroke:#5c2600;stroke-width:0.06424525;stroke-linejoin:miter;stroke-dasharray:none"
       d="m 143.11144,122.93338 2.54018,-1.14063 -1.33082,-2.35514 z"
       id="path47"
       sodipodi:nodetypes="cccc" />
    <path
       style="fill:none;fill-rule:evenodd;stroke:#5c2600;stroke-width:0.06424525;stroke-linejoin:miter;stroke-dasharray:none"
       d="m 143.32112,117.84469 0.30366,0.1966 -0.27981,0.16637 -0.31978,-0.17689 z"
       id="path48"
       sodipodi:nodetypes="ccccc" />
    <path
       style="fill:none;fill-rule:evenodd;stroke:#5c2600;stroke-width:0.06424525;stroke-linejoin:miter;stroke-dasharray:none"
       d="m 143.34719,118.32076 -0.008,0.26001"
       id="path49" />
    <path
       style="fill:none;fill-rule:evenodd;stroke:#5c2600;stroke-width:0.03212262;stroke-linejoin:miter;stroke-dasharray:none"
       d="m 141.18806,118.15583 1.53021,0.65024"
       id="path50" />
    <path
       style="fill:none;fill-rule:evenodd;stroke:#5c2600;stroke-width:0.03212262;stroke-linejoin:miter;stroke-dasharray:none"
       d="m 141.4971,118.02117 -0.33073,0.67064"
       id="path51"
       sodipodi:nodetypes="cc" />
    <path
       style="fill:none;fill-rule:evenodd;stroke:#5c2600;stroke-width:0.03212262;stroke-linejoin:miter;stroke-dasharray:none"
       d="m 141.81371,118.25322 -0.54789,1.20904"
       id="path52" />
    <path
       style="fill:none;fill-rule:evenodd;stroke:#5c2600;stroke-width:0.03212262;stroke-linejoin:miter;stroke-dasharray:none"
       d="m 142.37594,118.48966 -0.18377,0.29088"
       id="path53" />
    <path
       style="fill:none;fill-rule:evenodd;stroke:#5c2600;stroke-width:0.03212262;stroke-linejoin:miter;stroke-dasharray:none"
       d="m 141.29583,118.90212 0.77115,0.32444"
       id="path54" />
    <path
       style="fill:none;fill-rule:evenodd;stroke:#5c2600;stroke-width:0.03212262;stroke-linejoin:miter;stroke-dasharray:none"
       d="m 142.59053,119.88021 1.02842,0.3924"
       id="path57" />
    <path
       style="fill:none;fill-rule:evenodd;stroke:#5c2600;stroke-width:0.03212262;stroke-linejoin:miter;stroke-dasharray:none"
       d="m 143.79743,119.44403 -1.01156,2.36466"
       id="path58" />
    <path
       style="fill:none;fill-rule:evenodd;stroke:#5c2600;stroke-width:0.03212262;stroke-linejoin:miter;stroke-dasharray:none"
       d="m 142.53582,121.02323 0.78182,0.30292"
       id="path59" />
    <path
       style="fill:none;fill-rule:evenodd;stroke:#5c2600;stroke-width:0.03212262;stroke-linejoin:miter;stroke-dasharray:none"
       d="m 142.64675,121.30337 0.32214,-0.93656"
       id="path60" />
    <path
       style="fill:none;fill-rule:evenodd;stroke:#5c2600;stroke-width:0.03212262;stroke-linejoin:miter;stroke-dasharray:none"
       d="m 143.0126,119.6205 0.7366,0.25408"
       id="path61" />
    <path
       style="fill:none;fill-rule:evenodd;stroke:#5c2600;stroke-width:0.03212262;stroke-linejoin:miter;stroke-dasharray:none"
       d="m 140.43869,120.67775 -0.46418,1.08681"
       id="path62"
       sodipodi:nodetypes="cc" />
    <path
       style="fill:none;fill-rule:evenodd;stroke:#5c2600;stroke-width:0.03212262;stroke-linejoin:miter;stroke-dasharray:none"
       d="m 139.97692,121.57252 c 0.35721,0.17003 0.61314,0.3014 1.07162,0.5101"
       id="path63"
       sodipodi:nodetypes="cc" />
    <path
       style="fill:none;fill-rule:evenodd;stroke:#5c2600;stroke-width:0.03212262;stroke-linejoin:miter;stroke-dasharray:none"
       d="m 140.16031,120.99448 0.39752,0.15684"
       id="path64" />
    <path
       style="fill:none;fill-rule:evenodd;stroke:#5c2600;stroke-width:0.03212262;stroke-linejoin:miter;stroke-dasharray:none"
       d="m 140.81983,121.79111 -0.15317,0.30047"
       id="path65" />
    <path
       style="fill:#926b2e;fill-opacity:1;fill-rule:evenodd;stroke:#5c2600;stroke-width:0.03212262;stroke-linejoin:miter;stroke-dasharray:none"
       d="m 141.16024,117.37764 -1.73502,4.43922"
       id="path69"
       sodipodi:nodetypes="cc" />
    <path
       style="fill:#926b2e;fill-opacity:1;fill-rule:evenodd;stroke:#5c2600;stroke-width:0.06424525;stroke-linejoin:miter;stroke-dasharray:none"
       d="m 145.49886,121.98975 0.35214,-0.18162"
       id="path70"
       sodipodi:nodetypes="cc" />
  </g>
</svg>
