<?xml version="1.0" encoding="UTF-8" standalone="no"?>
<!-- Created with Inkscape (http://www.inkscape.org/) -->

<svg
   width="128"
   height="128"
   id="svg2"
   sodipodi:version="0.32"
   inkscape:version="1.3.2 (1:1.3.2+202311252150+091e20ef0f)"
   version="1.0"
   sodipodi:docname="House.svg"
   inkscape:output_extension="org.inkscape.output.svg.inkscape"
   xmlns:inkscape="http://www.inkscape.org/namespaces/inkscape"
   xmlns:sodipodi="http://sodipodi.sourceforge.net/DTD/sodipodi-0.dtd"
   xmlns:xlink="http://www.w3.org/1999/xlink"
   xmlns="http://www.w3.org/2000/svg"
   xmlns:svg="http://www.w3.org/2000/svg"
   xmlns:rdf="http://www.w3.org/1999/02/22-rdf-syntax-ns#"
   xmlns:cc="http://creativecommons.org/ns#"
   xmlns:dc="http://purl.org/dc/elements/1.1/">
  <defs
     id="defs4">
    <radialGradient
       r="8.2519293"
       fy="222.04396"
       fx="14.207293"
       cy="222.04396"
       cx="14.207293"
       gradientTransform="scale(1.39523,0.716728)"
       gradientUnits="userSpaceOnUse"
       id="radialGradient1968"
       xlink:href="#linearGradient2057"
       inkscape:collect="always" />
    <linearGradient
       inkscape:collect="always"
       id="linearGradient2057">
      <stop
         style="stop-color:#000000;stop-opacity:1;"
         offset="0"
         id="stop2059" />
      <stop
         style="stop-color:#000000;stop-opacity:0;"
         offset="1"
         id="stop2061" />
    </linearGradient>
  </defs>
  <sodipodi:namedview
     id="base"
     pagecolor="#ffffff"
     bordercolor="#666666"
     borderopacity="1.0"
     gridtolerance="10000"
     guidetolerance="10"
     objecttolerance="10"
     inkscape:pageopacity="0.0"
     inkscape:pageshadow="2"
     inkscape:zoom="4"
     inkscape:cx="27.5"
     inkscape:cy="119.375"
     inkscape:document-units="px"
     inkscape:current-layer="layer1"
     showgrid="false"
     width="744.09px"
     inkscape:window-width="1920"
     inkscape:window-height="1012"
     inkscape:window-x="0"
     inkscape:window-y="0"
     showguides="true"
     inkscape:guide-bbox="true"
     inkscape:showpageshadow="2"
     inkscape:pagecheckerboard="0"
     inkscape:deskcolor="#d1d1d1"
     inkscape:window-maximized="1" />
  <metadata
     id="metadata7">
    <rdf:RDF>
      <cc:Work
         rdf:about="">
        <dc:format>image/svg+xml</dc:format>
        <dc:type
           rdf:resource="http://purl.org/dc/dcmitype/StillImage" />
      </cc:Work>
    </rdf:RDF>
  </metadata>
  <g
     inkscape:label="Fill"
     inkscape:groupmode="layer"
     id="g32">
    <path
       d="m 54.884766,8.1777344 -8.445313,3.3769536 c 0,0 -0.0088,0.562488 -0.0098,0.613281 -0.02033,1.095066 -0.233705,12.728093 -0.162109,13.554687 2.565805,-0.737572 5.574526,-1.667304 9.130859,-2.933594 2.907266,-1.035178 6.04252,-2.237668 9.345704,-3.662109 l 0.105468,-6.917969 v -0.05469 z M 38.994141,28.144531 10.125,64.455078 l 3.140625,1.154297 -0.929687,32.371094 50.794921,24.062501 0.02148,-0.01 0.443359,-37.804684 -0.06445,-0.148438 z"
       style="fill:#926b2e;fill-rule:evenodd;stroke:#5c2600;fill-opacity:1"
       id="path40" />
    <path
       style="fill:#926b2e;fill-opacity:1;fill-rule:evenodd;stroke-width:3;stroke-linecap:round;stroke:#926b2e;stroke-opacity:1;stroke-dasharray:none"
       d="M 63.444967,82.354507 C 60.731757,76.219533 39.686368,28.180371 39.686368,28.12205 c 0,-0.04283 0.45741,-0.172283 1.016466,-0.287668 2.06331,-0.425852 8.029698,-2.166112 12.06501,-3.519091 C 66.622876,19.669913 78.556,13.715944 88.36551,6.5540262 89.519676,5.7113703 90.480811,5.0454595 90.501365,5.0742244 90.962535,5.7196382 119.21534,63.284584 119.11528,63.374914 118.98093,63.496184 64.939881,83.120761 64.22671,83.30726 63.972652,83.3737 63.80574,83.170271 63.444967,82.354507 Z"
       id="path55" />
    <path
       style="fill:#926b2e;fill-opacity:1;fill-rule:evenodd;stroke:#926b2e;stroke-width:1.06066;stroke-linecap:round;stroke-dasharray:none;stroke-opacity:1"
       d="m 64.033875,102.97242 c 0.128562,-9.771327 0.264492,-17.805516 0.302066,-17.853749 0.03757,-0.04823 6.419331,-2.377314 14.181682,-5.175736 7.762351,-2.798422 19.542478,-7.094408 26.178057,-9.546634 6.63559,-2.452227 12.16428,-4.458594 12.28598,-4.458594 0.12171,0 0.22129,6.363752 0.22129,14.141671 v 14.14167 L 90.687375,107.47976 c -14.583566,7.2923 -26.599201,13.25872 -26.701411,13.25872 -0.102211,0 -0.08065,-7.99472 0.04791,-17.76606 z"
       id="path56" />
  </g>
  <g
     inkscape:label="Outline"
     inkscape:groupmode="layer"
     id="layer1">
    <path
       style="display:inline;fill:none;fill-opacity:1;fill-rule:evenodd;stroke:#5c2600;stroke-width:1;stroke-dasharray:none;stroke-opacity:1"
       d="m 35.8525,49.138041 -0.439474,5.939178 4.566852,1.645569 0.372014,-6.447865 c 0,0 -0.968106,-3.554221 -4.380195,-1.827694 z"
       id="path29"
       sodipodi:nodetypes="cccccc" />
    <path
       style="display:inline;fill:none;fill-opacity:1;fill-rule:evenodd;stroke:#5c2600;stroke-width:1;stroke-dasharray:none;stroke-opacity:1"
       d="M 63.598847,84.201229 120.29287,63.64409"
       id="path20"
       sodipodi:nodetypes="cc" />
    <path
       style="display:inline;fill:none;fill-opacity:1;fill-rule:evenodd;stroke:#5c2600;stroke-width:1;stroke-dasharray:none;stroke-opacity:1"
       d="m 55.334485,16.784941 0.06528,6.163142"
       id="path27" />
    <path
       style="display:inline;fill:none;fill-opacity:1;fill-rule:evenodd;stroke:#5c2600;stroke-width:1;stroke-dasharray:none;stroke-opacity:1"
       d="M 38.361527,33.085583 13.817115,63.429461 59.032834,79.940989 Z"
       id="path28"
       sodipodi:nodetypes="cccc" />
    <path
       style="fill:none;fill-opacity:1;fill-rule:evenodd;stroke:#5c2600;stroke-width:1;stroke-dasharray:none;stroke-opacity:1"
       d="M 13.268874,65.471354 12.335575,97.981071 63.130026,122.04215 117.96789,94.66357 117.81559,64.695141"
       id="path3"
       sodipodi:nodetypes="ccccc" />
    <path
       style="fill:none;fill-opacity:1;fill-rule:evenodd;stroke:#5c2600;stroke-width:1;stroke-dasharray:none;stroke-opacity:1"
       d="M 9.9464178,64.678373 38.994384,28.145438 63.596671,84.228166 63.150692,122.17627"
       id="path4"
       sodipodi:nodetypes="cccc" />
    <path
       style="fill:none;fill-opacity:1;fill-rule:evenodd;stroke:#5c2600;stroke-width:1;stroke-dasharray:none;stroke-opacity:1"
       d="M 9.6420664,63.822348 Z"
       id="path5" />
    <path
       style="fill:#000000;fill-opacity:1;fill-rule:evenodd;stroke:#5c2600;stroke-width:1;stroke-dasharray:none;stroke-opacity:1"
       d="M 63.641926,84.120844 9.6847012,64.293923 Z"
       id="path6"
       sodipodi:nodetypes="ccc" />
    <path
       style="fill:none;fill-opacity:1;fill-rule:evenodd;stroke:#5c2600;stroke-width:1;stroke-dasharray:none;stroke-opacity:1"
       d="m 25.741517,48.532672 13.20953,24.191746"
       id="path7"
       sodipodi:nodetypes="cc" />
    <path
       style="fill:none;fill-opacity:1;fill-rule:evenodd;stroke:#5c2600;stroke-width:1;stroke-dasharray:none;stroke-opacity:1"
       d="M 50.203309,61.202533 34.242831,70.840372 Z"
       id="path8"
       sodipodi:nodetypes="ccc" />
    <path
       style="fill:none;fill-opacity:1;fill-rule:evenodd;stroke:#5c2600;stroke-width:1;stroke-dasharray:none;stroke-opacity:1"
       d="M 90.751282,4.2331117 120.33986,64.064511"
       id="path11"
       sodipodi:nodetypes="cc" />
    <path
       style="fill:none;fill-opacity:1;fill-rule:evenodd;stroke:#5c2600;stroke-width:1;stroke-dasharray:none;stroke-opacity:1"
       d="M 46.265834,25.956649 C 46.178794,25.499546 46.439899,11.5552 46.439899,11.5552 l 8.44536,-3.3773961 9.964749,3.9762171 -0.108785,7.164042"
       id="path18"
       sodipodi:nodetypes="ccccc" />
    <path
       style="fill:none;fill-opacity:1;fill-rule:evenodd;stroke:#5c2600;stroke-width:1;stroke-dasharray:none;stroke-opacity:1"
       d="m 46.224939,12.06518 9.268362,4.655278 9.540301,-4.60054"
       id="path19"
       sodipodi:nodetypes="ccc" />
    <path
       style="fill:none;fill-opacity:1;fill-rule:evenodd;stroke:#5c2600;stroke-width:1;stroke-dasharray:none;stroke-opacity:1"
       d="m 39.293952,27.550633 c 0,0 29.694744,-6.201835 51.590906,-23.6685895"
       id="path21"
       sodipodi:nodetypes="cc" />
    <path
       style="display:inline;fill:none;fill-opacity:1;fill-rule:evenodd;stroke:#5c2600;stroke-width:1;stroke-dasharray:none;stroke-opacity:1"
       d="m 55.24986,9.915936 5.034372,2.237798 -4.837267,2.353287 -4.940174,-2.425222 z"
       id="path22"
       sodipodi:nodetypes="ccccc" />
    <path
       style="fill:none;fill-opacity:1;fill-rule:evenodd;stroke:#5c2600;stroke-width:1;stroke-dasharray:none;stroke-opacity:1"
       d="m 33.448552,90.971647 -0.39596,15.121773 5.010437,2.57209 0.413343,-15.469251 c 0,0 -2.027584,-9.701173 -5.027838,-2.224612 z"
       id="path24"
       sodipodi:nodetypes="cccc" />
    <path
       style="fill:#926b2e;fill-rule:evenodd;stroke:#5c2600;stroke-width:0.5;stroke-linecap:butt;stroke-opacity:1;stroke-dasharray:none"
       d="M 45.180791,31.02472 56.049952,54.753836"
       id="path1" />
    <path
       style="fill:#926b2e;fill-rule:evenodd;stroke:#5c2600;stroke-width:0.5;stroke-linecap:butt;stroke-dasharray:none;stroke-opacity:1"
       d="M 53.556375,52.524879 64.169898,48.276654"
       id="path2" />
    <path
       style="fill:#926b2e;fill-rule:evenodd;stroke:#5c2600;stroke-width:0.5;stroke-linecap:butt;stroke-dasharray:none;stroke-opacity:1"
       d="M 49.18281,43.763475 72.012405,35.761484"
       id="path9" />
    <path
       style="fill:#926b2e;fill-rule:evenodd;stroke:#5c2600;stroke-width:0.5;stroke-linecap:butt;stroke-dasharray:none;stroke-opacity:1"
       d="M 45.23991,35.044273 70.665535,26.676374"
       id="path10" />
    <path
       style="fill:#926b2e;fill-rule:evenodd;stroke:#5c2600;stroke-width:0.5;stroke-linecap:butt;stroke-dasharray:none;stroke-opacity:1"
       d="M 72.728511,42.857152 66.828491,30.987378"
       id="path12" />
    <path
       style="fill:#926b2e;fill-rule:evenodd;stroke:#5c2600;stroke-width:0.5;stroke-linecap:butt;stroke-dasharray:none;stroke-opacity:1"
       d="m 81.5534,47.383211 20.2458,-9.177523"
       id="path13" />
    <path
       style="fill:#926b2e;fill-rule:evenodd;stroke:#5c2600;stroke-width:0.5;stroke-linecap:butt;stroke-dasharray:none;stroke-opacity:1"
       d="M 85.37994,42.118998 98.049232,67.986695"
       id="path14" />
    <path
       style="fill:#926b2e;fill-rule:evenodd;stroke:#5c2600;stroke-width:0.5;stroke-linecap:butt;stroke-dasharray:none;stroke-opacity:1"
       d="M 91.464828,25.36102 103.70609,49.145076"
       id="path15" />
    <path
       style="fill:#926b2e;fill-rule:evenodd;stroke:#5c2600;stroke-width:0.5;stroke-linecap:butt;stroke-dasharray:none;stroke-opacity:1"
       d="M 92.371413,62.007032 101.8481,57.828973"
       id="path16" />
    <path
       style="fill:#926b2e;fill-rule:evenodd;stroke:#5c2600;stroke-width:0.5;stroke-linecap:butt;stroke-dasharray:none;stroke-opacity:1"
       d="m 90.367111,34.911593 6.877422,-3.538946"
       id="path23" />
    <path
       style="fill:#926b2e;fill-rule:evenodd;stroke:#5c2600;stroke-width:0.5;stroke-linecap:butt;stroke-dasharray:none;stroke-opacity:1"
       d="M 83.336316,32.175646 96.469538,25.786165"
       id="path25" />
    <path
       style="fill:#926b2e;fill-rule:evenodd;stroke:#5c2600;stroke-width:0.5;stroke-linecap:butt;stroke-dasharray:none;stroke-opacity:1"
       d="m 67.98717,62.736333 3.403917,8.780905"
       id="path26" />
    <path
       style="fill:#926b2e;fill-rule:evenodd;stroke:#5c2600;stroke-width:0.5;stroke-linecap:butt;stroke-dasharray:none;stroke-opacity:1"
       d="M 66.657336,69.991444 84.243203,62.976773"
       id="path30" />
    <path
       style="fill:#926b2e;fill-rule:evenodd;stroke:#5c2600;stroke-width:0.5;stroke-linecap:butt;stroke-dasharray:none;stroke-opacity:1"
       d="M 75.177112,54.41221 82.25604,68.778699"
       id="path31" />
    <path
       style="fill:#926b2e;fill-rule:evenodd;stroke:#5c2600;stroke-width:1;stroke-linecap:butt;stroke-dasharray:none;stroke-opacity:1"
       d="m 53.405274,91.321858 -0.126679,7.008339 -3.752602,-1.666809 0.04055,-6.595053 c 0,0 2.279348,-5.93384 3.838731,1.253523 z"
       id="path32" />
    <path
       style="fill:#926b2e;fill-rule:evenodd;stroke:#5c2600;stroke-width:1;stroke-linecap:butt;stroke-dasharray:none;stroke-opacity:1"
       d="m 25.801414,80.838609 -0.126679,7.008339 -3.752602,-1.666809 0.04055,-6.595053 c 0,0 2.279348,-5.93384 3.838731,1.253523 z"
       id="path32-3" />
  </g>
</svg>
