<?xml version="1.0" encoding="UTF-8" standalone="no"?>
<!-- Created with Inkscape (http://www.inkscape.org/) -->

<svg
   width="128.00000px"
   height="128.00000px"
   id="svg2"
   sodipodi:version="0.32"
   inkscape:version="1.3.2 (1:1.3.2+202311252150+091e20ef0f)"
   sodipodi:docname="Mountain0.svg"
   inkscape:export-filename="/home/nicu/Desktop/rpg_color.png"
   inkscape:export-xdpi="90.000000"
   inkscape:export-ydpi="90.000000"
   version="1.1"
   xmlns:inkscape="http://www.inkscape.org/namespaces/inkscape"
   xmlns:sodipodi="http://sodipodi.sourceforge.net/DTD/sodipodi-0.dtd"
   xmlns:xlink="http://www.w3.org/1999/xlink"
   xmlns="http://www.w3.org/2000/svg"
   xmlns:svg="http://www.w3.org/2000/svg"
   xmlns:rdf="http://www.w3.org/1999/02/22-rdf-syntax-ns#"
   xmlns:cc="http://creativecommons.org/ns#"
   xmlns:dc="http://purl.org/dc/elements/1.1/">
  <defs
     id="defs3">
    <linearGradient
       id="linearGradient2057"
       inkscape:collect="always">
      <stop
         id="stop2059"
         offset="0"
         style="stop-color:#000000;stop-opacity:1;" />
      <stop
         id="stop2061"
         offset="1"
         style="stop-color:#000000;stop-opacity:0;" />
    </linearGradient>
    <radialGradient
       gradientUnits="userSpaceOnUse"
       r="8.2519293"
       fy="222.04396"
       fx="14.207293"
       cy="222.04396"
       cx="14.207293"
       gradientTransform="scale(1.395230,0.716728)"
       id="radialGradient2063"
       xlink:href="#linearGradient2057"
       inkscape:collect="always" />
    <radialGradient
       inkscape:collect="always"
       xlink:href="#linearGradient2057"
       id="radialGradient1315"
       gradientUnits="userSpaceOnUse"
       gradientTransform="scale(1.395230,0.716728)"
       cx="14.207293"
       cy="222.04396"
       fx="14.207293"
       fy="222.04396"
       r="8.2519293" />
    <radialGradient
       inkscape:collect="always"
       xlink:href="#linearGradient2057"
       id="radialGradient1319"
       gradientUnits="userSpaceOnUse"
       gradientTransform="scale(1.395230,0.716728)"
       cx="14.207293"
       cy="222.04396"
       fx="14.207293"
       fy="222.04396"
       r="8.2519293" />
    <radialGradient
       inkscape:collect="always"
       xlink:href="#linearGradient2057"
       id="radialGradient1323"
       gradientUnits="userSpaceOnUse"
       gradientTransform="scale(1.395230,0.716728)"
       cx="14.207293"
       cy="222.04396"
       fx="14.207293"
       fy="222.04396"
       r="8.2519293" />
    <radialGradient
       inkscape:collect="always"
       xlink:href="#linearGradient2057"
       id="radialGradient1327"
       gradientUnits="userSpaceOnUse"
       gradientTransform="scale(1.395230,0.716728)"
       cx="14.207293"
       cy="222.04396"
       fx="14.207293"
       fy="222.04396"
       r="8.2519293" />
    <radialGradient
       inkscape:collect="always"
       xlink:href="#linearGradient2057"
       id="radialGradient1331"
       gradientUnits="userSpaceOnUse"
       gradientTransform="scale(1.395230,0.716728)"
       cx="14.207293"
       cy="222.04396"
       fx="14.207293"
       fy="222.04396"
       r="8.2519293" />
    <radialGradient
       inkscape:collect="always"
       xlink:href="#linearGradient2057"
       id="radialGradient1335"
       gradientUnits="userSpaceOnUse"
       gradientTransform="scale(1.395230,0.716728)"
       cx="14.207293"
       cy="222.04396"
       fx="14.207293"
       fy="222.04396"
       r="8.2519293" />
    <radialGradient
       inkscape:collect="always"
       xlink:href="#linearGradient2057"
       id="radialGradient1339"
       gradientUnits="userSpaceOnUse"
       gradientTransform="scale(1.395230,0.716728)"
       cx="14.207293"
       cy="222.04396"
       fx="14.207293"
       fy="222.04396"
       r="8.2519293" />
    <radialGradient
       inkscape:collect="always"
       xlink:href="#linearGradient2057"
       id="radialGradient1343"
       gradientUnits="userSpaceOnUse"
       gradientTransform="scale(1.395230,0.716728)"
       cx="14.207293"
       cy="222.04396"
       fx="14.207293"
       fy="222.04396"
       r="8.2519293" />
    <radialGradient
       inkscape:collect="always"
       xlink:href="#linearGradient2057"
       id="radialGradient1347"
       gradientUnits="userSpaceOnUse"
       gradientTransform="scale(1.395230,0.716728)"
       cx="14.207293"
       cy="222.04396"
       fx="14.207293"
       fy="222.04396"
       r="8.2519293" />
    <radialGradient
       inkscape:collect="always"
       xlink:href="#linearGradient2057"
       id="radialGradient1351"
       gradientUnits="userSpaceOnUse"
       gradientTransform="scale(1.395230,0.716728)"
       cx="14.207293"
       cy="222.04396"
       fx="14.207293"
       fy="222.04396"
       r="8.2519293" />
    <radialGradient
       inkscape:collect="always"
       xlink:href="#linearGradient2057"
       id="radialGradient1355"
       gradientUnits="userSpaceOnUse"
       gradientTransform="scale(1.395230,0.716728)"
       cx="14.207293"
       cy="222.04396"
       fx="14.207293"
       fy="222.04396"
       r="8.2519293" />
    <radialGradient
       inkscape:collect="always"
       xlink:href="#linearGradient2057"
       id="radialGradient1359"
       gradientUnits="userSpaceOnUse"
       gradientTransform="scale(1.395230,0.716728)"
       cx="14.207293"
       cy="222.04396"
       fx="14.207293"
       fy="222.04396"
       r="8.2519293" />
    <radialGradient
       inkscape:collect="always"
       xlink:href="#linearGradient2057"
       id="radialGradient1363"
       gradientUnits="userSpaceOnUse"
       gradientTransform="scale(1.395230,0.716728)"
       cx="14.207293"
       cy="222.04396"
       fx="14.207293"
       fy="222.04396"
       r="8.2519293" />
    <radialGradient
       inkscape:collect="always"
       xlink:href="#linearGradient2057"
       id="radialGradient1367"
       gradientUnits="userSpaceOnUse"
       gradientTransform="scale(1.395230,0.716728)"
       cx="14.207293"
       cy="222.04396"
       fx="14.207293"
       fy="222.04396"
       r="8.2519293" />
    <radialGradient
       inkscape:collect="always"
       xlink:href="#linearGradient2057"
       id="radialGradient1371"
       gradientUnits="userSpaceOnUse"
       gradientTransform="scale(1.395230,0.716728)"
       cx="14.207293"
       cy="222.04396"
       fx="14.207293"
       fy="222.04396"
       r="8.2519293" />
    <radialGradient
       inkscape:collect="always"
       xlink:href="#linearGradient2057"
       id="radialGradient1375"
       gradientUnits="userSpaceOnUse"
       gradientTransform="scale(1.395230,0.716728)"
       cx="14.207293"
       cy="222.04396"
       fx="14.207293"
       fy="222.04396"
       r="8.2519293" />
  </defs>
  <sodipodi:namedview
     id="base"
     pagecolor="#ffffff"
     bordercolor="#666666"
     borderopacity="1.0"
     inkscape:pageopacity="0.0"
     inkscape:pageshadow="2"
     inkscape:zoom="4"
     inkscape:cx="165.375"
     inkscape:cy="35.875"
     inkscape:document-units="px"
     inkscape:current-layer="g2009"
     inkscape:window-width="1920"
     inkscape:window-height="1012"
     inkscape:window-x="0"
     inkscape:window-y="0"
     inkscape:showpageshadow="2"
     inkscape:pagecheckerboard="0"
     inkscape:deskcolor="#d1d1d1"
     inkscape:window-maximized="1" />
  <g
     inkscape:label="Layer 1"
     inkscape:groupmode="layer"
     id="layer1">
    <g
       id="g2009"
       transform="matrix(2.469674,0.000000,0.000000,2.469674,-384.4758,-130.6608)">
      <path
         style="fill:#926b2e;fill-opacity:1;fill-rule:evenodd;stroke:none;stroke-width:0.995711px;stroke-linecap:butt;stroke-linejoin:miter;stroke-opacity:1"
         d="m 172.99145,64.198628 c -1.41987,0.894013 -2.5182,1.694835 -3.18115,3.016061 -0.38794,0.773152 -0.57843,1.307452 -1.27494,1.827986 -0.98513,0.736247 -1.94767,1.798455 -3.03824,2.522941 -0.64846,0.430783 -1.14841,1.189429 -1.6204,1.816518 -0.58091,0.771822 -1.1265,1.429423 -1.72167,2.220188 -0.64081,0.851394 -0.96846,1.873299 -1.72167,2.623858 -0.33588,0.334702 0.0477,0 -0.10127,0 -1.15717,0 -1.86692,3.909188 -2.12678,4.944965 -0.19436,0.774725 -0.91147,0.857271 -0.91147,1.513764 0,1.091876 3.74417,1.546408 4.25354,1.715601 2.46615,0.819147 5.14277,0.79995 7.59561,1.614682 1.49287,0.495867 3.28126,0.827504 4.65864,1.513765 1.67539,0.834742 4.33835,0.605505 6.17777,0.605505 2.10857,0 4.15058,-0.100917 6.27903,-0.100917 2.65621,0 5.40055,-0.302753 8.0007,-0.302753 0.54434,0 1.08027,-0.134558 1.6204,-0.201835 2.26914,-0.282643 4.71338,-2.30565 6.88668,-3.02753 0.21485,-0.07136 0.4051,-0.201835 0.60765,-0.302752 0.88981,-0.443332 1.31009,-0.940821 2.32933,-1.110094 0.35075,-0.05825 -0.22258,-1.553683 -0.30383,-1.715601 -0.2999,-0.597701 -0.35857,-1.42102 -0.60764,-1.917435 -0.36135,-0.72012 -0.61085,-1.2142 -1.11403,-1.7156 -0.88029,-0.877183 -1.40314,-1.989045 -1.92422,-3.027529 -0.45367,-0.904135 -0.80343,-1.807535 -1.41785,-2.623859 -0.61921,-0.822697 -1.28455,-1.582775 -2.02549,-2.321106 -1.12743,-1.123456 -2.40856,-0.785387 -4.15227,-2.522941 -0.59707,-0.594959 -1.47021,-1.132343 -2.12677,-1.917435 -0.48765,-0.583117 -0.73488,-1.38005 -1.2153,-2.018353 -0.69203,-0.919462 -2.26532,-1.238625 -3.13952,-1.412847 -1.15141,-0.22947 -3.57698,2.026416 -5.16501,2.422023 -0.27007,0.06728 -0.54013,0.134557 -0.8102,0.201835 -1.41384,0.352217 -3.40033,-0.72301 -4.75991,-1.110094 -1.03735,-0.295339 -1.27054,-0.234864 -2.22804,-0.807341 -0.32001,-0.191322 -1.3028,-0.236709 -1.72168,-0.40367 z"
         id="path2182"
         sodipodi:nodetypes="cscsccsssscsssssssssccssssssssscscc" />
      <path
         sodipodi:nodetypes="cccccccccccccccccccccccccccccccccccccccccccccccccccccccccccccccccc"
         id="path1714"
         d="M 187.78985,62.720553 C 187.51477,62.652683 187.35331,62.763183 187.07110,62.970553 C 184.86575,64.591133 184.52972,64.794883 183.97735,64.689303 C 183.64651,64.626053 182.57963,64.708403 181.63360,64.876803 C 178.83628,65.374713 177.13606,65.211913 175.13360,64.251803 C 173.26368,63.355233 172.82745,63.345063 171.53985,64.251803 C 170.75626,64.803613 168.63271,67.460243 167.94610,68.751803 C 167.72086,69.175523 166.86918,70.163273 166.07110,70.939303 C 159.58526,77.246033 158.89872,78.055853 158.38360,79.845553 C 158.11098,80.792723 157.59316,82.131943 157.22735,82.845553 C 156.86154,83.559183 156.57110,84.257923 156.57110,84.408053 C 156.57110,84.879313 157.54960,84.733673 158.32110,84.126803 C 159.19292,83.441033 159.53141,82.662243 159.94610,80.470553 C 160.28632,78.672453 160.68850,78.331323 161.16485,79.376803 C 161.33911,79.759253 161.76251,80.184183 162.10235,80.314303 C 162.44220,80.444443 163.32850,81.089993 164.07110,81.783053 C 165.28094,82.912173 165.85235,83.300703 165.85235,82.939303 C 165.85235,82.462763 165.15603,81.461583 164.53985,81.064303 C 162.83357,79.964183 161.88435,79.164973 161.69610,78.658053 C 161.48297,78.084183 162.44149,75.689293 162.88360,75.689303 C 163.01728,75.689303 163.13360,75.377353 163.13360,75.001803 C 163.13360,74.626253 163.22710,74.314313 163.35235,74.314303 C 163.89631,74.314303 168.03489,70.107553 169.19610,68.376803 C 170.51133,66.416483 172.31557,64.470563 172.82110,64.470553 C 173.18328,64.470553 174.75882,65.908693 174.91485,66.376803 C 175.03937,66.750343 179.16221,68.033043 180.22735,68.033053 C 180.88771,68.033053 180.93532,68.168473 181.66485,71.095553 C 181.97344,72.333703 183.53799,74.314313 184.19610,74.314303 C 184.90376,74.314303 185.06581,73.854083 184.50860,73.439303 C 183.79373,72.907143 182.50859,70.846603 182.50860,70.220553 C 182.50860,69.226303 184.47383,66.126813 185.10235,66.126803 C 185.46171,66.126803 187.17332,65.291553 188.41485,64.501803 C 188.92631,64.176463 189.09546,64.198903 189.75860,64.720553 C 190.59056,65.374963 192.35235,67.935253 192.35235,68.501803 C 192.35235,68.699173 192.04041,69.609553 191.66485,70.501803 C 190.86336,72.406043 190.83235,72.737813 191.41485,73.626803 C 191.65486,73.993093 192.00663,74.828143 192.19610,75.470553 C 192.38696,76.117693 192.73866,76.673493 192.97735,76.720553 C 193.34559,76.793173 193.35142,76.681063 193.10235,75.908053 C 192.94210,75.410663 192.67449,74.602163 192.47735,74.126803 C 191.99898,72.973383 192.39055,71.531053 193.32110,71.033053 C 193.70184,70.829283 193.95361,70.527993 193.88360,70.345553 C 193.64205,69.716073 194.05264,69.708963 195.32110,70.376803 C 197.86144,71.714263 200.52918,74.487363 200.53985,75.783053 C 200.54244,76.098503 200.85440,76.648043 201.22735,77.001803 C 201.60030,77.355563 201.91486,77.840353 201.91485,78.064303 C 201.91485,78.747433 202.72895,79.911423 203.53985,80.376803 C 204.04881,80.668903 204.35960,81.113023 204.47735,81.720553 C 204.57504,82.224603 204.62830,82.852984 204.78633,83.566514 C 204.94437,84.280064 205.22604,84.879014 205.41133,84.879014 C 206.00339,84.879014 206.09547,84.552064 205.72383,83.816514 C 205.52473,83.422454 205.51852,83.074373 205.50860,82.595553 C 205.48469,81.441773 205.05657,80.646003 203.78985,79.533053 C 203.14041,78.962443 202.72734,78.394683 202.72735,78.001803 C 202.72735,77.653203 202.59633,77.282153 202.44610,77.189303 C 202.29588,77.096463 202.19611,76.762133 202.19610,76.470553 C 202.19610,76.178973 202.06755,75.970543 201.94610,75.970553 C 201.82464,75.970553 201.25568,75.196033 200.66485,74.283053 C 199.36283,72.271123 197.82477,70.967933 195.35235,69.783053 C 194.21348,69.237273 193.30030,68.598663 193.00860,68.126803 C 191.09939,65.038243 190.54911,64.387293 189.16485,63.501803 C 188.45991,63.050853 188.06493,62.788423 187.78985,62.720553 z M 158.91485,80.939303 C 159.00560,81.030063 159.02499,81.273393 158.94610,81.470553 C 158.85891,81.688433 158.80295,81.632483 158.78985,81.314303 C 158.77799,81.026383 158.82408,80.848553 158.91485,80.939303 z "
         style="fill:#5c2700;fill-opacity:1.0000000" />
    </g>
  </g>
  <metadata
     id="metadata1">
    <rdf:RDF>
      <cc:Work
         rdf:about="">
        <dc:title>mountain - RPG map elements</dc:title>
        <dc:description />
        <dc:subject>
          <rdf:Bag>
            <rdf:li>mapsym</rdf:li>
          </rdf:Bag>
        </dc:subject>
        <dc:publisher>
          <cc:Agent>
            <dc:title />
          </cc:Agent>
        </dc:publisher>
        <dc:creator>
          <cc:Agent>
            <dc:title>Nicu Buculei</dc:title>
          </cc:Agent>
        </dc:creator>
        <dc:rights>
          <cc:Agent>
            <dc:title>Nicu Buculei</dc:title>
          </cc:Agent>
        </dc:rights>
        <dc:date />
        <dc:format>image/svg+xml</dc:format>
        <dc:type
           rdf:resource="http://purl.org/dc/dcmitype/StillImage" />
        <cc:license
           rdf:resource="http://web.resource.org/cc/PublicDomain" />
        <dc:language>en</dc:language>
      </cc:Work>
      <cc:License
         rdf:about="http://web.resource.org/cc/PublicDomain">
        <cc:permits
           rdf:resource="http://web.resource.org/cc/Reproduction" />
        <cc:permits
           rdf:resource="http://web.resource.org/cc/Distribution" />
        <cc:permits
           rdf:resource="http://web.resource.org/cc/DerivativeWorks" />
      </cc:License>
    </rdf:RDF>
  </metadata>
</svg>
