<?xml version="1.0" encoding="UTF-8" standalone="no"?>
<!-- Generator: Adobe Illustrator 14.0.0, SVG Export Plug-In . SVG Version: 6.00 Build 43363)  -->

<svg
   id="Layer_1"
   enable-background="new 0 0 56.068 100"
   xml:space="preserve"
   viewBox="0 0 56.068 100"
   version="1.0"
   y="0px"
   x="0px"
   sodipodi:docname="Pin.svg"
   inkscape:version="1.3.2 (1:1.3.2+202311252150+091e20ef0f)"
   xmlns:inkscape="http://www.inkscape.org/namespaces/inkscape"
   xmlns:sodipodi="http://sodipodi.sourceforge.net/DTD/sodipodi-0.dtd"
   xmlns="http://www.w3.org/2000/svg"
   xmlns:svg="http://www.w3.org/2000/svg"
   xmlns:rdf="http://www.w3.org/1999/02/22-rdf-syntax-ns#"
   xmlns:cc="http://creativecommons.org/ns#"
   xmlns:dc="http://purl.org/dc/elements/1.1/"><defs
   id="defs1" /><sodipodi:namedview
   id="namedview1"
   pagecolor="#ffffff"
   bordercolor="#000000"
   borderopacity="0.25"
   inkscape:showpageshadow="2"
   inkscape:pageopacity="0.0"
   inkscape:pagecheckerboard="0"
   inkscape:deskcolor="#d1d1d1"
   inkscape:zoom="5.7629203"
   inkscape:cx="17.178791"
   inkscape:cy="49.193809"
   inkscape:window-width="1920"
   inkscape:window-height="1012"
   inkscape:window-x="0"
   inkscape:window-y="0"
   inkscape:window-maximized="1"
   inkscape:current-layer="Layer_1" />

<metadata
   id="metadata1"><rdf:RDF><cc:Work><dc:format>image/svg+xml</dc:format><dc:type
         rdf:resource="http://purl.org/dc/dcmitype/StillImage" /><cc:license
         rdf:resource="http://creativecommons.org/licenses/publicdomain/" /><dc:publisher><cc:Agent
           rdf:about="http://openclipart.org/"><dc:title>Openclipart</dc:title></cc:Agent></dc:publisher><dc:title>Google Places</dc:title><dc:date>2011-12-27T11:22:53</dc:date><dc:description /><dc:source>https://openclipart.org/detail/166612/google-places-by-mrtossum</dc:source><dc:creator><cc:Agent><dc:title>MrTossum</dc:title></cc:Agent></dc:creator><dc:subject><rdf:Bag><rdf:li>location</rdf:li><rdf:li>pin</rdf:li><rdf:li>tag</rdf:li><rdf:li>map</rdf:li><rdf:li>GUI</rdf:li><rdf:li>icon</rdf:li><rdf:li>graphic</rdf:li><rdf:li>interface</rdf:li></rdf:Bag></dc:subject></cc:Work><cc:License
       rdf:about="http://creativecommons.org/licenses/publicdomain/"><cc:permits
         rdf:resource="http://creativecommons.org/ns#Reproduction" /><cc:permits
         rdf:resource="http://creativecommons.org/ns#Distribution" /><cc:permits
         rdf:resource="http://creativecommons.org/ns#DerivativeWorks" /></cc:License></rdf:RDF></metadata><path
   style="fill:#70411f;fill-opacity:1;fill-rule:evenodd;stroke:#4c2000;stroke-width:1;stroke-linejoin:round;stroke-dasharray:none"
   d="M 25.427175,94.370992 C 13.151476,68.891203 4.0858861,46.721196 1.241727,35.225197 0.27679439,31.324969 0.12006293,30.034313 0.22400631,26.844439 0.45991615,19.604703 3.1106892,13.601926 8.4033337,8.3220405 13.103004,3.6337001 18.326983,1.0964298 24.98278,0.26945608 34.990781,-0.97402451 45.431808,3.8921153 51.211644,12.493666 c 3.394645,5.051913 5.238936,11.879864 4.651936,17.222452 -1.001075,9.11131 -8.291537,28.440548 -21.131763,56.026758 -2.22975,4.79044 -6.530563,13.739977 -6.66986,13.879276 -0.03892,0.03893 -1.224577,-2.324098 -2.634782,-5.25116 z m 5.373182,-54.112816 c 0.668064,-0.139398 1.956473,-0.619422 2.863131,-1.066721 1.389008,-0.685267 1.895567,-1.061405 3.218379,-2.389766 1.272485,-1.277821 1.706159,-1.855925 2.289088,-3.051439 1.590714,-3.262355 1.81497,-6.615686 0.663801,-9.925876 -0.63348,-1.821567 -1.419057,-3.020939 -3.047851,-4.653272 -1.627349,-1.630885 -2.993371,-2.456858 -5.205694,-3.147652 -1.106361,-0.34546 -1.652537,-0.404645 -3.643986,-0.394873 -2.053381,0.01008 -2.513929,0.06844 -3.730747,0.472748 -1.947565,0.64712 -3.421672,1.560924 -4.957194,3.072982 -2.10533,2.073157 -3.277965,4.471861 -3.639426,7.44469 -0.748107,6.152794 3.3613,12.075916 9.408576,13.561118 1.570993,0.385834 4.140654,0.420527 5.781923,0.07806 z"
   id="path2" /></svg>
