<?xml version="1.0" encoding="UTF-8" standalone="no"?>
<!-- Created with Inkscape (http://www.inkscape.org/) -->

<svg
   width="128"
   height="128"
   id="svg2"
   sodipodi:version="0.32"
   inkscape:version="1.3.2 (1:1.3.2+202311252150+091e20ef0f)"
   version="1.0"
   sodipodi:docname="Statue1.svg"
   inkscape:output_extension="org.inkscape.output.svg.inkscape"
   xmlns:inkscape="http://www.inkscape.org/namespaces/inkscape"
   xmlns:sodipodi="http://sodipodi.sourceforge.net/DTD/sodipodi-0.dtd"
   xmlns:xlink="http://www.w3.org/1999/xlink"
   xmlns="http://www.w3.org/2000/svg"
   xmlns:svg="http://www.w3.org/2000/svg"
   xmlns:rdf="http://www.w3.org/1999/02/22-rdf-syntax-ns#"
   xmlns:cc="http://creativecommons.org/ns#"
   xmlns:dc="http://purl.org/dc/elements/1.1/">
  <defs
     id="defs4">
    <radialGradient
       r="8.2519293"
       fy="222.04396"
       fx="14.207293"
       cy="222.04396"
       cx="14.207293"
       gradientTransform="scale(1.39523,0.716728)"
       gradientUnits="userSpaceOnUse"
       id="radialGradient1968"
       xlink:href="#linearGradient2057"
       inkscape:collect="always" />
    <linearGradient
       inkscape:collect="always"
       id="linearGradient2057">
      <stop
         style="stop-color:#000000;stop-opacity:1;"
         offset="0"
         id="stop2059" />
      <stop
         style="stop-color:#000000;stop-opacity:0;"
         offset="1"
         id="stop2061" />
    </linearGradient>
  </defs>
  <sodipodi:namedview
     id="base"
     pagecolor="#ffffff"
     bordercolor="#666666"
     borderopacity="1.0"
     gridtolerance="10000"
     guidetolerance="10"
     objecttolerance="10"
     inkscape:pageopacity="0.0"
     inkscape:pageshadow="2"
     inkscape:zoom="5.6568542"
     inkscape:cx="53.916893"
     inkscape:cy="69.208077"
     inkscape:document-units="px"
     inkscape:current-layer="svg2"
     showgrid="false"
     width="744.09px"
     inkscape:window-width="1920"
     inkscape:window-height="1012"
     inkscape:window-x="0"
     inkscape:window-y="0"
     inkscape:showpageshadow="2"
     inkscape:pagecheckerboard="0"
     inkscape:deskcolor="#d1d1d1"
     inkscape:window-maximized="1"
     showguides="true" />
  <metadata
     id="metadata7">
    <rdf:RDF>
      <cc:Work
         rdf:about="">
        <dc:format>image/svg+xml</dc:format>
        <dc:type
           rdf:resource="http://purl.org/dc/dcmitype/StillImage" />
      </cc:Work>
    </rdf:RDF>
  </metadata>
  <path
     d="m 49.5625,18.25 0.125,-0.125 z m 13.09375,2.03125 c -0.659238,0.01691 -1.318781,0.07704 -1.96875,0.21875 -1.098382,0.672998 -0.848302,1.237906 -0.40625,2.25 0.283236,0.381065 0.720078,0.807239 1.28125,1.28125 0.01151,0.105689 0.02183,0.207463 0.03125,0.3125 -0.610598,0.479144 -0.958631,1.145856 0.0625,1.625 0.0038,0.685685 -0.02682,0.7723 -0.09375,1.4375 -0.931475,0.172372 -1.333548,1.148109 -0.15625,1.90625 -0.114516,0.735558 -0.273215,1.2129 -0.4375,1.9375 -0.570966,-0.07248 -1.093896,0.579943 -0.28125,1.4375 -0.176045,0.707238 -0.345075,1.101564 -0.53125,1.8125 L 51.3125,30.8125 c 0.944092,3.553405 -0.389552,6.281772 -2,8.90625 l 10.28125,-0.03125 -5.1875,38.125 C 54.3335,77.8028 53.82227,77.88392 53.75,77.875 l -1.1875,1.3125 c -1.487573,0.09659 -2.615458,1.3023 -3.71875,2.40625 L 48.78125,81.625 48.75,81.6875 c -0.455007,0.77498 -0.947427,1.47667 -1.5,2.125 -2.004173,-0.286987 -3.804193,-0.578309 -5.6875,0.15625 V 84 c -0.0083,0.006 -0.02303,-0.0062 -0.03125,0 -3.998916,2.018511 -8.220127,3.281755 -11.15625,6.84375 -0.359973,1.595927 -1.004899,3.316138 -1.9375,4.625 -0.950127,1.265719 -2.274065,2.172051 -2.4375,3.9375 0.130382,1.21564 0.520308,2.37219 0.96875,3.5 -2.255334,0.18306 -4.336246,1.38339 -6.34375,2.375 -0.437454,-0.3953 -2.037194,-0.0519 -2.875,-0.40625 -3.015358,-1.87166 -6.307696,-2.47032 -9.75,-2.09375 l -0.25,0.0937 c 3.350341,-0.0465 6.707657,0.87155 9.6875,2.375 0.674846,0.3336 2.244423,0.6076 3,0.71875 -2.517886,1.63934 -6.082775,2.81714 -8.09375,5.46875 L 12.5,111.40625 c 2.052772,-2.70673 5.689154,-3.10539 8.59375,-5.21875 1.825532,-1.02651 4.420895,-1.34021 6.5625,-1.65625 0.763293,1.34603 1.52137,3.19455 3.1875,4.09375 -0.32157,1.41349 0.06963,1.87608 0.53125,3 3.216915,6.21062 11.240884,7.05995 17.3125,8.84375 H 48.71875 48.75 c 2.297453,0.70895 4.119226,1.97541 6.0625,3.09375 1.943274,1.11834 4.0038,2.61676 6.65625,2.6875 2.730371,0.01 4.990857,-0.17451 7,-1.90625 1.751809,-1.78253 3.515053,-3.25485 5.6875,-4.5 3.323903,-1.92899 4.471728,-5.97465 5.25,-9.5 0.27171,-0.77425 0.506759,-1.56039 0.75,-2.34375 0.892627,1.03691 2.112681,1.98172 3.65625,2.0625 h 0.0625 0.03125 c 2.074816,-0.24372 5.310892,-0.40872 8.125,-1.125 1.675503,2.19442 5.475421,3.01631 8.09375,4.0625 -0.13076,1.89379 0.78723,4.16777 0.6875,6.0625 l 0.0937,-0.125 c 0.16167,-1.82824 0.11479,-3.66655 0.1875,-5.5 1.09936,0.57275 1.99699,1.19391 2.4375,1.78125 1.13619,1.51496 3.40581,4.0933 4.65625,5.34375 L 108.4062,120.5 c -1.18514,-1.18515 -2.98071,-4.43259 -4.0625,-5.875 -1.67237,-1.85328 -4.06741,-2.73886 -6.3437,-3.625 3.98065,-1.70421 7.44528,-1.24871 11.375,-0.59375 l -0.0625,-0.0625 c -5.66392,-1.24431 -7.96951,-0.6169 -12.75,-0.25 L 93.875,108.3125 c 3.239746,-1.31622 4.295768,-3.76667 3.03125,-7.15625 C 95.991436,97.212498 94.326083,93.695935 91.875,90.5 c -1.488011,-2.318742 -2.904825,-5.085645 -6,-5.0625 l -0.03125,0.03125 H 85.8125 C 82.219372,87.011883 76.807513,86.722399 73.1875,86.75 69.512886,84.744629 65.054421,83.237937 61,81.4375 60.531401,81.229409 60.696192,78.836227 60.21875,78.6875 L 68,41.59375 74.28125,45.1875 c -0.05116,-3.03258 0.697873,-6.061168 2.53125,-9.09375 -2.884145,0.284033 -6.033469,0.274249 -8.90625,-0.03125 0.04463,-0.227113 0.08014,-0.461232 0.125,-0.6875 0.341345,-0.226837 0.516758,-0.461498 0.15625,-0.6875 0.14981,-0.72864 0.306758,-1.435932 0.5,-2.15625 0.660156,-0.205117 0.664519,-0.561181 0.28125,-1 0.146567,-0.461532 0.312794,-0.916639 0.5,-1.375 0.411365,-0.156291 1.036367,-0.170221 0.4375,-1 0.159637,-0.324296 0.340934,-0.644598 0.53125,-0.96875 0.657181,0.09976 0.59174,-0.402739 0.5625,-0.875 0.19899,-0.290954 0.394874,-0.583645 0.625,-0.875 0.917748,0.277187 2.508655,-0.291807 3.5625,-0.6875 0.921874,-0.637421 0.668282,-0.963904 0.375,-1.84375 -2.038978,-1.494376 -4.597497,-2.136945 -7,-2.84375 -1.928412,-0.413457 -3.928536,-0.831974 -5.90625,-0.78125 z"
     style="fill:#926b2e;fill-opacity:1"
     id="path2"
     sodipodi:nodetypes="cccsccccccccccccccccccccccccccccccccccccccccccsccccccccccccccccccccccccccccscccccccccccccccccs" />
  <g
     inkscape:label="Layer 1"
     inkscape:groupmode="layer"
     id="layer1">
    <path
       style="fill:#5c2700;fill-opacity:1;fill-rule:evenodd;stroke:none;stroke-width:1px;stroke-linecap:butt;stroke-linejoin:miter;stroke-opacity:1"
       d="m 62.65625,20.28125 c -0.65927,0.01691 -1.318749,0.07703 -1.96875,0.21875 -1.098436,0.673031 -0.848324,1.237856 -0.40625,2.25 0.28325,0.381084 0.720051,0.807216 1.28125,1.28125 0.01151,0.105694 0.02183,0.207458 0.03125,0.3125 -0.610628,0.479167 -0.958681,1.145833 0.0625,1.625 0.0038,0.685719 -0.02681,0.772267 -0.09375,1.4375 -0.931521,0.17238 -1.333606,1.148072 -0.15625,1.90625 -0.114522,0.735594 -0.273207,1.212864 -0.4375,1.9375 -0.570994,-0.07249 -1.093936,0.579901 -0.28125,1.4375 -0.176054,0.707273 -0.345066,1.101529 -0.53125,1.8125 L 51.3125,30.8125 c 0.944138,3.553579 -0.389473,6.281643 -2,8.90625 l 10.28125,-0.03125 -5.1875,38.125 c -0.07275,-0.0097 -0.583976,0.07142 -0.65625,0.0625 l -1.1875,1.3125 c -1.487646,0.09659 -2.615404,1.302246 -3.71875,2.40625 L 48.78125,81.625 48.75,81.6875 c -0.455029,0.775018 -0.9474,1.476638 -1.5,2.125 -2.004271,-0.287001 -3.804101,-0.578345 -5.6875,0.15625 V 84 c -0.0083,0.006 -0.02303,-0.0062 -0.03125,0 -3.999112,2.01861 -8.219983,3.28158 -11.15625,6.84375 -0.359991,1.596005 -1.004853,3.316074 -1.9375,4.625 -0.950174,1.265781 -2.274057,2.171964 -2.4375,3.9375 0.130388,1.2157 0.520286,2.37213 0.96875,3.5 -2.255445,0.18307 -4.336148,1.38334 -6.34375,2.375 -0.437475,-0.39532 -2.037153,-0.0519 -2.875,-0.40625 -3.015506,-1.87175 -6.307527,-2.47034 -9.75,-2.09375 l -0.25,0.0937 c 3.350505,-0.0465 6.707511,0.87148 9.6875,2.375 0.674879,0.33362 2.244386,0.60759 3,0.71875 -2.518009,1.63942 -6.082676,2.81701 -8.09375,5.46875 L 12.5,111.40625 c 2.052873,-2.70686 5.689012,-3.10529 8.59375,-5.21875 1.825621,-1.02656 4.42079,-1.34019 6.5625,-1.65625 0.76333,1.3461 1.521288,3.19451 3.1875,4.09375 -0.321586,1.41356 0.06961,1.87602 0.53125,3 3.217073,6.21092 11.240586,7.05986 17.3125,8.84375 H 48.71875 48.75 c 2.297566,0.70898 4.119131,1.97536 6.0625,3.09375 1.943369,1.11839 4.00367,2.61676 6.65625,2.6875 2.730505,0.01 4.990759,-0.17443 7,-1.90625 1.751895,-1.78262 3.514947,-3.25479 5.6875,-4.5 3.324066,-1.92908 4.47169,-5.97448 5.25,-9.5 0.271723,-0.77429 0.506747,-1.56035 0.75,-2.34375 0.892671,1.03696 2.112605,1.98172 3.65625,2.0625 h 0.0625 0.03125 c 2.074918,-0.24373 5.310754,-0.40868 8.125,-1.125 1.675585,2.19453 5.475293,3.01626 8.09375,4.0625 -0.130766,1.89388 0.78723,4.16768 0.6875,6.0625 l 0.0937,-0.125 c 0.16168,-1.82833 0.11479,-3.66646 0.1875,-5.5 1.09941,0.57278 1.99697,1.19388 2.4375,1.78125 1.13625,1.51503 3.40575,4.09324 4.65625,5.34375 l 0.21875,-0.0625 c -1.1852,-1.18521 -2.98066,-4.43252 -4.0625,-5.875 C 102.67125,112.77163 100.2764,111.88618 98,111 c 3.98085,-1.70429 7.44509,-1.24874 11.375,-0.59375 l -0.0625,-0.0625 c -5.6642,-1.24437 -7.96928,-0.61692 -12.75,-0.25 L 93.875,108.3125 c 3.239905,-1.31628 4.29583,-3.7665 3.03125,-7.15625 C 95.991391,97.212305 94.326203,93.696092 91.875,90.5 c -1.488084,-2.318856 -2.904673,-5.085646 -6,-5.0625 l -0.03125,0.03125 H 85.8125 C 82.219196,87.011959 76.80769,86.722398 73.1875,86.75 69.512706,84.744531 65.05462,83.238025 61,81.4375 60.531378,81.229399 60.696215,78.836234 60.21875,78.6875 L 68,41.59375 74.28125,45.1875 c -0.05116,-3.032729 0.697783,-6.061019 2.53125,-9.09375 -2.884286,0.284047 -6.033328,0.274264 -8.90625,-0.03125 0.04463,-0.227124 0.08014,-0.461221 0.125,-0.6875 0.341362,-0.226848 0.516776,-0.461487 0.15625,-0.6875 0.149817,-0.728676 0.306749,-1.435897 0.5,-2.15625 0.660188,-0.205127 0.664538,-0.561159 0.28125,-1 0.146574,-0.461555 0.312785,-0.916617 0.5,-1.375 0.411385,-0.156299 1.036396,-0.17018 0.4375,-1 0.159645,-0.324312 0.340925,-0.644582 0.53125,-0.96875 0.657213,0.09976 0.591741,-0.402716 0.5625,-0.875 0.199,-0.290968 0.394863,-0.583631 0.625,-0.875 0.917793,0.277201 2.508603,-0.291788 3.5625,-0.6875 0.921919,-0.637452 0.668296,-0.963861 0.375,-1.84375 -2.039078,-1.494449 -4.597379,-2.13691 -7,-2.84375 -1.928506,-0.413477 -3.928439,-0.831976 -5.90625,-0.78125 z m 0.875,0.84375 c 1.598689,-0.0436 3.296151,0.214476 4.84375,0.5 2.364225,0.595207 5.200307,1.305737 6.5625,3.0625 -1.074925,0.686894 -2.268437,0.921448 -3.5625,0.90625 -3.070107,-0.505619 -6.100642,-1.090383 -8.9375,-2.0625 -0.788459,-0.479803 -1.94367,-1.082227 -1.625,-1.9375 0.825675,-0.295245 1.759536,-0.442591 2.71875,-0.46875 z m -1,3.4375 2.15625,0.71875 4.0625,4.125 c -0.24011,0.542858 -0.631008,1.646773 -0.8125,2.1875 l -5.375,-6.3125 c -0.0077,-0.240753 -0.01434,-0.474815 -0.03125,-0.71875 z m 3.6875,0.84375 2.40625,0.6875 1.15625,1.375 c -0.203652,0.333883 -0.608297,1.166294 -0.78125,1.5 z m 3.875,0.90625 0.375,0.09375 c -0.04555,0.06322 -0.330752,0.780524 -0.375,0.84375 z m -7.53125,0.625 5.21875,5.15625 c -0.14575,0.516477 -0.383424,1.768529 -0.5,2.28125 l -4.875,-5.71875 c 0.07607,-0.628117 0.131537,-1.071175 0.15625,-1.71875 z M 62.25,29.90625 67.09375,34.75 c 0.21087,-0.08524 -0.100343,0.8984 -0.15625,1.1875 -0.220437,-0.03144 -1.311183,-0.184295 -1.53125,-0.21875 L 61.8125,31.9375 c 0.151999,-0.675392 0.321587,-1.338659 0.4375,-2.03125 z M 52.59375,32.875 c 7.108751,2.967663 14.843156,4.817102 22.625,4.46875 L 73.4375,43.4375 C 64.9554,37.127425 58.253853,38.82984 51.09375,38.46875 Z m 8.9375,0.1875 L 64.5,35.53125 C 63.368143,35.31189 62.24199,35.042003 61.125,34.75 c 0.144184,-0.554678 0.268176,-1.125619 0.40625,-1.6875 z m -1.6875,6.46875 3.875,0.5625 L 56.1875,80 c -0.43906,-0.09654 -0.88588,-0.175656 -1.3125,-0.25 z m 4.0625,0.78125 3.75,0.71875 L 58.59375,80.5625 56.75,80.25 Z m -10.3125,39.09375 c 0.08725,-0.02809 0.171927,-0.01276 0.25,0 0.444061,0.07259 0.557477,1.620824 0.625,1.625 0.426362,0.730363 -0.03374,0.879942 0.71875,1.3125 0.880078,0.505898 1.883541,0.881529 2.875,1.28125 1.982919,0.799443 3.823341,1.657558 4.46875,3.40625 0.931586,1.185512 1.462951,2.589729 2.03125,3.96875 0.598993,1.878699 1.542995,4.101702 1.84375,6.1875 -0.108539,2.023872 -0.393528,4.0281 0.4375,5.875 0.526122,0.8774 0.565926,2.12234 1.0625,2.90625 0.03572,1.47966 0.307426,2.29059 -0.4375,3.5625 -1.120594,3.66565 -3.375761,5.46146 -6.25,7.4375 l 0.03125,0.25 c 3.562491,-1.21825 5.235281,-4.1273 7.09375,-7.1875 0.538829,-0.92001 0.627152,-1.78293 0.84375,-2.84375 0.318341,0.55203 1.003888,1.06594 1.375,1.71875 0.310352,0.54593 0.603951,1.07469 0.8125,1.53125 0.208549,0.45656 0.3125,0.86899 0.3125,0.96875 -0.0057,3.03656 -0.856829,6.40621 -2.5625,8.96875 -1.705671,2.56254 -4.193936,4.31262 -7.625,4.34375 -2.419673,-0.0645 -4.286819,-0.93743 -6.1875,-2.03125 -1.893185,-1.08951 -3.797518,-1.86264 -6.25,-2.625 -2.951912,-1.21161 -6.043557,-2.59079 -9.0625,-3.625 1.309851,-1.27817 1.268759,-2.47447 2.5625,-3.625 1.475635,-1.31229 2.745876,-2.57635 3.125,-4.09375 0.557373,-2.23082 1.903416,-4.9064 3.375,-7.03125 0.40787,3.60194 1.087216,7.98845 2.40625,11.4375 L 51.6875,113 c -1.397355,-3.65385 -1.154646,-7.89012 -1.59375,-11.84375 0.67338,-1.05222 1.280397,-2.168812 1.71875,-3.375 -0.0469,-1.176078 0.03283,-2.248475 0.65625,-3.1875 0.642059,-0.641462 1.909642,-1.214584 2.8125,-2.125 l -0.09375,-0.25 c -0.796109,0.802768 -2.230499,1.137463 -3,1.90625 -0.718153,0.717487 -1.206217,1.721686 -1.28125,3.1875 -1.891136,0.760579 -3.949294,0.980208 -5.9375,1.375 -1.235205,0.972349 -1.446339,2.53226 -1.78125,4 l 0.25,0.4375 c 0.151651,-1.26588 1.425278,-2.87002 2.09375,-3.90625 1.588451,-0.450729 3.163165,-0.168085 4.78125,-0.5 -1.650986,3.26969 -4.668264,6.04586 -5.59375,9.75 -0.279732,1.1196 -2.093966,2.22182 -3.53125,3.5 -1.358542,1.20816 -1.400383,2.26027 -2.84375,3.71875 -2.320492,-0.87369 -4.72005,-2.40927 -6.03125,-4.4375 -0.569197,-1.38586 -0.505503,-2.93969 0.46875,-5.15625 -0.01236,-5.59607 1.760475,-10.080322 5.375,-14.25 -0.860185,1.719116 -1.843525,3.810332 -2.375,5.9375 -0.509029,2.210269 -0.202111,4.35489 0.40625,6.5 l 0.34375,-0.15625 c -0.539772,-1.98702 -0.369475,-4.04835 -0.1875,-6.09375 0.668965,-2.607398 3.293477,-5.795722 4.25,-7.6875 3.636873,-2.289203 6.534338,-4.032722 8.9375,-8.03125 0.946033,-0.946596 1.422162,-1.526767 2.59375,-1.625 0.08559,-0.0072 0.857972,-1.084649 1.46875,-1.28125 z M 59.71875,80 c 0.05301,-0.02929 0.140973,-0.02676 0.21875,0 0.295456,0.101645 0.665704,2.517066 0.96875,2.625 3.892576,1.386389 8.522409,3.348226 11.6875,5.0625 0.242077,0.295546 1.043699,0.578085 1.5,0.84375 1.90226,1.014922 3.015588,2.326884 3.6875,3.90625 0.671912,1.579366 0.897507,3.420092 0.96875,5.46875 1.975627,4.07929 0.978526,8.01519 -0.28125,12.125 -0.517415,3.64371 -2.042229,6.57592 -4.8125,8.96875 -2.062243,0.80412 -3.160823,2.44852 -4.5625,4.0625 -0.628158,0.5214 -0.279751,-0.72003 -0.59375,-0.5625 1.959705,-2.88542 3.998914,-7.68096 4.1875,-11.09375 10e-7,-0.44523 -0.175524,-0.86989 -0.40625,-1.375 -0.230726,-0.50511 -0.526639,-1.06718 -0.84375,-1.625 -0.634222,-1.11564 -1.351534,-2.24379 -1.5625,-2.71875 -0.529629,-1.19237 -1.644959,-2.27233 -2.15625,-3.125 C 66.912672,101.21824 66.875,98.851777 66.875,97.28125 V 97.25 97.21875 c -0.173245,-1.283286 -0.717884,-4.910604 -1,-6.21875 1.342036,1.701255 3.070977,5.596187 5.03125,6.9375 1.613211,1.818769 3.15226,3.61384 4.21875,5.71875 l 0.34375,-0.21875 c -1.137743,-2.24553 -2.192394,-4.360958 -3.8125,-6.1875 l -0.0625,-0.03125 C 69.151532,95.512032 67.659989,92.890906 65.9375,90.53125 65.454094,89.108448 64.383843,87.920628 63.46875,86.6875 62.540542,84.635243 60.645782,84.005292 58.6875,83.25 57.683878,82.845377 57.528737,81.916393 56.75,81.46875 58.042511,81.188199 58.296342,81.297561 59,81.4375 59.504533,81.596641 59.347704,80.205058 59.71875,80 Z m -16.9375,4.1875 c 1.047896,0.0174 2.131497,0.602392 3.125,0.9375 -2.879875,2.763384 -5.976558,4.334336 -9.28125,6.53125 v 0.03125 h -0.03125 c -4.872885,3.902568 -3.304662,10.06438 -5.15625,15.15625 -1.41281,-0.80466 -2.323407,-1.71299 -2.96875,-2.84375 -1.776649,-3.17747 -1.600974,-5.489623 0.40625,-8.375 0.902421,-1.202166 1.883897,-2.516173 2.3125,-4.1875 2.879752,-3.204358 6.876103,-4.953788 10.5625,-7.03125 0.334066,-0.14939 0.681951,-0.224551 1.03125,-0.21875 z M 86.125,85.875 c 2.559923,0.19129 3.723744,3.404969 5.03125,5.3125 2.570639,2.876083 3.748744,6.503724 4.78125,10.21875 v 0.0312 l 0.03125,0.0625 c 1.524744,3.11924 -0.0563,4.81092 -2.8125,6.0625 -2.816868,0.99988 -6.75841,1.20914 -9.28125,1.5 -1.563887,-0.17231 -2.410459,-1.16508 -3.40625,-2.25 0.728225,-2.92942 0.05605,-5.607 -1.5,-8.84375 -0.07307,-2.101214 0.46839,-4.17543 -0.28125,-5.9375 -0.710313,-1.66963 -2.354935,-2.908867 -4.25,-4 1.82532,0.0061 4.317367,-0.189979 6.40625,-0.40625 1.981272,0.913081 2.998119,1.924323 3.75,3.96875 0.304524,1.959671 0.352911,3.925032 1.625,5.5 0.195266,1.226443 0.805999,2.830999 1.15625,4.1875 0.158624,1.04838 0.013,1.94414 -1.03125,3.46875 l 0.09375,0.3125 c 1.128849,-1.64812 2.129181,-2.67064 1.9375,-3.9375 -0.139665,-0.92308 -0.500374,-1.823423 -0.875,-2.9375 1.755436,1.171802 3.577019,2.03991 5.0625,3.53125 v -0.375 C 91.114115,98.883593 88.017919,98.195325 86.09375,96.1875 85.601942,94.738685 85.865517,92.842057 85.5625,91.34375 85.205557,89.436875 84.653563,87.886287 83.09375,86.96875 84.381945,86.754866 85.012117,86.346219 86.125,85.875 Z"
       id="path2308"
       sodipodi:nodetypes="ccsccccccccccccccccccccccccccccccccccccccccccscccccccccccccsccccccccccccccscccccccccccccccccsscccccscccccccccccccccccccccccccccccccccccccccccccccsscssccccccccccsscscsccssccccccccsccccccssccccccccccsssssccsccccccssssscccccccccccccsscccccccccscccccccccscccccccsccccccc" />
  </g>
</svg>
