<?xml version="1.0" encoding="UTF-8" standalone="no"?>
<!-- Created with Inkscape (http://www.inkscape.org/) -->

<svg
   width="128"
   height="128"
   id="svg2"
   sodipodi:version="0.32"
   inkscape:version="1.3.2 (1:1.3.2+202311252150+091e20ef0f)"
   version="1.0"
   sodipodi:docname="University.svg"
   inkscape:output_extension="org.inkscape.output.svg.inkscape"
   xmlns:inkscape="http://www.inkscape.org/namespaces/inkscape"
   xmlns:sodipodi="http://sodipodi.sourceforge.net/DTD/sodipodi-0.dtd"
   xmlns:xlink="http://www.w3.org/1999/xlink"
   xmlns="http://www.w3.org/2000/svg"
   xmlns:svg="http://www.w3.org/2000/svg"
   xmlns:rdf="http://www.w3.org/1999/02/22-rdf-syntax-ns#"
   xmlns:cc="http://creativecommons.org/ns#"
   xmlns:dc="http://purl.org/dc/elements/1.1/">
  <defs
     id="defs4">
    <radialGradient
       r="8.2519293"
       fy="222.04396"
       fx="14.207293"
       cy="222.04396"
       cx="14.207293"
       gradientTransform="scale(1.39523,0.716728)"
       gradientUnits="userSpaceOnUse"
       id="radialGradient1968"
       xlink:href="#linearGradient2057"
       inkscape:collect="always" />
    <linearGradient
       inkscape:collect="always"
       id="linearGradient2057">
      <stop
         style="stop-color:#000000;stop-opacity:1;"
         offset="0"
         id="stop2059" />
      <stop
         style="stop-color:#000000;stop-opacity:0;"
         offset="1"
         id="stop2061" />
    </linearGradient>
  </defs>
  <sodipodi:namedview
     id="base"
     pagecolor="#ffffff"
     bordercolor="#666666"
     borderopacity="1.0"
     gridtolerance="10000"
     guidetolerance="10"
     objecttolerance="10"
     inkscape:pageopacity="0.0"
     inkscape:pageshadow="2"
     inkscape:zoom="4"
     inkscape:cx="50.625"
     inkscape:cy="64.875"
     inkscape:document-units="px"
     inkscape:current-layer="layer1"
     showgrid="false"
     width="744.09px"
     inkscape:window-width="1920"
     inkscape:window-height="1012"
     inkscape:window-x="0"
     inkscape:window-y="0"
     showguides="true"
     inkscape:guide-bbox="true"
     inkscape:showpageshadow="2"
     inkscape:pagecheckerboard="0"
     inkscape:deskcolor="#d1d1d1"
     inkscape:window-maximized="1" />
  <metadata
     id="metadata7">
    <rdf:RDF>
      <cc:Work
         rdf:about="">
        <dc:format>image/svg+xml</dc:format>
        <dc:type
           rdf:resource="http://purl.org/dc/dcmitype/StillImage" />
      </cc:Work>
    </rdf:RDF>
  </metadata>
  <g
     inkscape:label="Layer 1"
     inkscape:groupmode="layer"
     id="layer1">
    <path
       d="M 84.53125,14.5625 61.46875,24.6875 52.0625,21.5 35.03125,37.15625 35,37.1875 6.625,50.5 6.78125,57.65625 9.5625,59.8125 v 1.90625 c 0.748749,0.243426 1.703107,0.660291 2.8125,0.96875 -1.046202,6.554545 -0.156939,13.016594 0.03125,19.90625 l -2.875,2.53125 v 0.125 l -7.75,3.625 0.03125,2.78125 36.53125,27.59375 26.78125,-12.53125 11.96875,9.125 33.46875,-16.03125 -0.0312,-2.375 -7.75,-5.75 -2.7188,-1.6875 26.28125,-12.59375 -0.0937,-2.625 -12.34375,-7.375 c 0.30312,-7.540778 0.31964,-12.939347 -0.0312,-18.9375 0.87954,-0.278394 1.82842,-0.688173 2.8125,-1.3125 v -1.25 l 1.28125,-0.59375 -0.0312,-7.125 z"
       style="display:inline;fill:#926b2e;fill-rule:evenodd;stroke-width:1px;fill-opacity:1"
       id="path2" />
  </g>
  <g
     inkscape:label="Layer 1 copy"
     inkscape:groupmode="layer"
     id="g1">
    <path
       style="fill:#5c2700;fill-opacity:1;fill-rule:evenodd;stroke:none;stroke-width:1px;stroke-linecap:butt;stroke-linejoin:miter;stroke-opacity:1"
       d="M 84.53125,14.5625 61.46875,24.6875 52.0625,21.5 35.03125,37.15625 35,37.1875 6.625,50.5 6.78125,57.65625 9.5625,59.8125 v 1.90625 c 0.748792,0.24344 1.703044,0.660273 2.8125,0.96875 -1.046262,6.554919 -0.15695,13.016201 0.03125,19.90625 l -2.875,2.53125 v 0.125 l -7.75,3.625 0.03125,2.78125 36.53125,27.59375 26.78125,-12.53125 11.96875,9.125 33.46875,-16.03125 -0.0312,-2.375 -7.75,-5.75 -2.7188,-1.6875 26.28125,-12.59375 -0.0937,-2.625 -12.34375,-7.375 c 0.30314,-7.541208 0.31971,-12.939005 -0.0312,-18.9375 0.87959,-0.27841 1.82836,-0.688137 2.8125,-1.3125 v -1.25 l 1.28125,-0.59375 -0.0312,-7.125 z m 31.08786,22.406714 1.64545,1.096989 L 92.125,49.625 61.65625,24.90625 84.51583,14.850814 Z M 52.34375,22.125 c 11.923586,10.019642 23.844339,20.033947 35.8125,30 l -0.125,0.71875 -11.5,17.1875 -0.65625,0.84375 -40,-33.28125 -0.46875,-0.375 16.1875,-14.6875 z m 1.4375,0.28125 7.5,2.53125 L 101.875,58.125 88.84375,52.34375 88.375,52 53.875,23 Z m -18.875,15.15625 0.4375,0.0625 30.0625,25 -25.4375,12.1875 -0.4375,0.15625 -31.75,-24.0625 -0.3125,-0.34375 z m 82.65625,0.75 0.0937,6.65625 L 97.96875,54.4375 97,53.71875 116.1875,44.40625 116,40.71875 93.625,50.875 92.46875,49.71875 Z m -2.25,2.96875 0.43755,0.25 0.125,2.625 -7,3.4375 h -0.0312 l -0.96875,0.46875 -11.0625,5.40625 -2.875,-2.4375 z m 1,4.8125 v 0.84375 c -1.57872,1.237339 -3.39437,1.663213 -5.3125,1.6875 z m -2.6875,2.46875 c 0.63493,9.76504 0.0883,15.190609 -0.0625,20.03125 -1.07963,1.090071 -3.97111,1.51008 -4.875,0.03125 -0.35161,-6.634662 -1.00169,-12.825101 -0.125,-18.84375 l 1.90625,-0.90625 c 0.51463,0.0299 1.04962,0.0327 1.625,-0.03125 0.49344,-0.05484 0.99788,-0.128383 1.53125,-0.28125 z m -5.4375,1.40625 C 107.63491,54.615446 107.95943,59.223398 108.2187,64 L 105.25,62.21875 c 0.1445,-3.700597 0.23649,-6.965854 0.21875,-9.96875 0.65481,-0.257364 1.32798,-0.553826 2.03125,-1 v -0.96875 z m -1.0625,0.5 v 0.5625 c -1.38426,1.084929 -2.96507,1.51036 -4.625,1.625 z M 7.3125,51 l 32,24.28125 -0.21875,5.9375 L 38.875,81.8125 7,57.34375 l 0.03125,-6 z m 97.9375,1.34375 c 0.0148,3.912557 -0.15507,6.871655 -0.28125,9.59375 0.002,-3.217194 -0.0959,-6.207006 -0.28125,-9.375 0.18007,-0.05699 0.37692,-0.150032 0.5625,-0.21875 z M 88.59375,52.625 102.875,58.78125 76.46875,70.71875 Z m 15.84375,0.03125 c 0.63494,9.765042 0.0883,15.190609 -0.0625,20.03125 -0.9171,0.925958 -3.13987,1.356739 -4.34375,0.5625 -0.04332,-1.200947 -0.08411,-2.392045 -0.15625,-3.625 0.87959,-0.27841 1.82836,-0.688137 2.8125,-1.3125 v -1.875 l 1.40625,-0.65625 -0.59375,-7 -4.34375,-3.375 c 0.04562,-0.40712 0.0987,-0.813716 0.15625,-1.21875 l 2.5625,-1.21875 c 0.33334,0.0049 0.6711,0.0088 1.03125,-0.03125 0.49345,-0.05484 0.99788,-0.128383 1.53125,-0.28125 z m -15.375,1.6875 -9.34375,13.1875 -0.625,0.84375 L 80,67.96875 l 20.4375,-9.125 -11,-4.34375 z m 9.875,0 c -0.03045,0.280874 -0.0384,0.563106 -0.0625,0.84375 l -0.25,-0.21875 V 54.5 Z m -9.53125,0.40625 9.875,4.125 -17.71875,8 -1.161284,0.47175 8.442534,-12.1905 z m 13.78125,4.3125 0.65625,6.5625 L 76.4375,78.25 76.25,71.1875 Z M 9.84375,60.03125 c 0.016052,0.01114 0.045624,0.02017 0.0625,0.03125 l 3.28125,2.53125 C 12.099614,62.381517 10.972296,61.998532 9.84375,61.375 Z m 91.4375,1.28125 -23.78125,10.625 0.15625,3.875 23.90625,-10.46875 z m -0.1965,0.445808 0.22775,3.210442 L 78.25,75.3125 77.875,75.1875 77.6875,72.09375 100.28125,62 Z m 4.16525,0.772942 2.96875,1.84375 c 0.0286,0.535338 0.0374,1.085252 0.0625,1.625 l -2.84375,-1.71875 -0.25,-0.1875 c 0.0246,-0.567573 0.0409,-1.019845 0.0625,-1.5625 z m -39.71875,0.15625 9.8125,8.1875 0.375,0.3125 0.0625,0.0625 0.1875,6.71875 -10.59375,-8.125 z m -52.8125,0.09375 c 0.297213,0.07345 0.616202,0.142179 0.9375,0.1875 l 2.28125,1.75 0.03125,2.125 c 0.519109,0.168764 1.175141,0.414688 1.875,0.65625 0.215259,6.837729 -0.157444,11.277065 -0.28125,15.25 -1.079625,1.09007 -3.971109,1.51008 -4.875,0.03125 -0.37403,-7.05776 -1.120011,-13.620506 0.03125,-20 z m 52.34375,0.34375 0.03125,6.75 -25.5625,12.21875 0.0625,-6.65625 z m 39.90625,1.25 H 105 l 1.125,0.6875 1.625,1.0625 c -0.97769,0.678042 -1.9516,1.115762 -2.90625,1.40625 0.0298,-1.079936 0.0799,-2.086894 0.0937,-3.09375 0.0175,-0.01333 0.0163,-0.04567 0.0312,-0.0625 z m -41.375,0.59375 -22.5625,10.90625 -0.125,3.46875 0.3125,-0.0625 0.34375,0.28125 0.09375,0.25 L 63.8125,68.96875 Z M 16.25,65.15625 c 0.193564,0.134352 0.427733,0.253814 0.71875,0.375 0.01906,0.0079 0.04308,0.02339 0.0625,0.03125 l 2.9375,2.25 C 18.764038,67.614858 17.512826,67.197723 16.25,66.5 Z m 47.125,0.25 0.219763,3.210206 -0.563513,0.352294 -21.34375,10.5 -0.5,-0.59375 -0.03125,-2.78125 z m 44.5625,0.71875 0.375,0.21875 c 0.031,0.696934 0.0745,1.388287 0.0937,2.09375 l -0.375,0.3125 -2.5,2.21875 v 2.09375 c 2.15544,1.564271 6.33672,2.776125 11.15625,0.25 l -0.0312,-1.96875 2.65625,1.53125 -19.1875,8.78125 c 0.0156,-0.995645 0.0323,-2.024664 0.0312,-2.96875 2.07637,0.355743 4.60408,0.154725 7.34375,-1.28125 l -0.0625,-2.65625 -2.75,-2.03125 c 0.0434,-1.001762 0.0606,-1.851936 0.0937,-2.78125 1.03935,-0.222779 2.125,-0.597837 3.25,-1.1875 z m -0.1875,0.21875 0.0937,2.25 c -0.90358,0.545576 -1.95897,0.943119 -3.0625,1.15625 0.023,-0.654648 0.0447,-1.344738 0.0625,-1.96875 1.16971,-0.31929 2.19713,-0.812412 2.90625,-1.4375 z m -5.4375,0.53125 v 1.21875 c -1.78092,1.395814 -3.87474,1.770559 -6.0625,1.6875 -0.196396,-0.01835 -0.394711,-0.06021 -0.59375,-0.09375 l 4,-1.84375 c 0.92315,-0.201416 1.82446,-0.492976 2.65625,-0.96875 z m -84.21875,0.71875 c 0.232316,0.07678 0.439052,0.149671 0.6875,0.21875 -0.70124,4.393312 -0.526466,8.750394 -0.28125,13.21875 l -0.5625,0.25 c 0.209638,-5.293987 0.268871,-9.555082 0.15625,-13.6875 z m 95.8125,0.25 11.4375,6.6875 L 100,86.6875 c 0.0221,-0.620685 0.045,-1.281602 0.0625,-1.875 L 120.09375,75.28125 119.90625,73 116.625,71.03125 v -0.375 l -2.75,-2.03125 c 0.0122,-0.281453 0.0199,-0.505866 0.0312,-0.78125 z M 19.125,67.90625 c 0.370494,0.09156 0.778444,0.143688 1.1875,0.1875 l 2.03125,1.5625 v 1.6875 c 0.512204,0.166524 1.155355,0.417642 1.84375,0.65625 0.263453,7.217808 -0.09102,11.776063 -0.21875,15.875 -1.079626,1.090066 -3.971109,1.51008 -4.875,0.03125 -0.374032,-7.057762 -1.120011,-13.620506 0.03125,-20 z m 89.40625,0.90625 c 1.42751,1.782031 3.89283,1.10196 5.1875,0.0625 l 2.71875,1.78125 c -3.70471,2.569289 -7.28893,2.15445 -10.46875,0.375 z M 99.625,69.71875 c 0.63493,9.76504 0.08834,15.190604 -0.0625,20.03125 -1.079628,1.090065 -3.97111,1.51008 -4.875,0.03125 -0.366713,-6.919738 -1.088214,-13.363148 -0.03125,-19.625 L 95.25,69.875 c 0.861881,0.165513 1.795422,0.241516 2.84375,0.125 0.493442,-0.05484 0.99788,-0.128383 1.53125,-0.28125 z m -77,0.15625 2.96875,2.28125 C 24.623612,71.927155 23.622438,71.551094 22.625,71 Z m 42.65625,0.40625 0.78125,0.59375 0.03125,1.875 c 0.748787,0.243437 1.70304,0.660273 2.8125,0.96875 -1.046273,6.554916 -0.15695,13.0162 0.03125,19.90625 l -2.875,2.53125 V 98.25 c 1.626617,1.180493 4.408379,2.11681 7.75,1.4375 l -1.40625,1.25 v 2.09375 c 2.155442,1.56427 6.33672,2.74487 11.15625,0.21875 l -0.0625,-2.65625 -2.75,-2 c 0.356862,-8.238952 0.37071,-13.820261 0,-20.15625 0.879592,-0.27841 1.82836,-0.688137 2.8125,-1.3125 v -1.8125 l 4,-1.84375 c 0.04145,1.892322 0.142266,3.792531 0.25,5.71875 l -0.34375,0.28125 v 2.09375 c 0.13807,0.100199 0.314305,0.184902 0.46875,0.28125 0.04903,0.987292 0.09758,1.964868 0.125,2.96875 l -2.875,2.53125 v 2.09375 c 1.626617,1.180485 4.408379,2.116808 7.75,1.4375 l -1.40625,1.25 v 2.09375 c 2.155442,1.564265 6.336722,2.74487 11.15625,0.21875 l 0.0937,-2.46875 2.15625,1.71875 -28.5,13.21875 L 65.5625,98.25 39.28125,110.875 8.25,86.5625 9.53125,85.96875 v 1.25 c 1.723486,1.250786 4.766314,2.246252 8.375,1.3125 L 15.9375,90.25 v 2.09375 c 1.559411,1.13171 4.185005,2.052182 7.34375,1.53125 L 22.3125,94.75 v 2.09375 c 1.630423,1.183253 4.429245,2.15639 7.78125,1.46875 L 28.625,99.59375 v 2.09375 c 1.800885,1.30696 5.050631,2.34854 8.875,1.1875 l -2.125,1.875 v 2.09375 c 2.155443,1.56427 6.336721,2.77612 11.15625,0.25 l -0.0625,-2.65625 -2.75,-2.03125 c 0.356863,-8.238946 0.370713,-13.820261 0,-20.15625 0.879603,-0.278411 1.828358,-0.688137 2.8125,-1.3125 v -1.75 l 0.5,-0.25 c -0.807205,6.204233 -0.02211,12.345114 0.15625,18.875 l -2.875,2.53125 v 2.09375 c 2.155441,1.56427 6.367971,2.74487 11.1875,0.21875 L 55.40625,100 l -2.75,-2 c 0.356861,-8.238938 0.370713,-13.820261 0,-20.15625 0.879601,-0.27841 1.828358,-0.688137 2.8125,-1.3125 L 55.5,74.9375 l 0.46875,-0.25 c -0.841715,6.257388 -0.05486,12.446497 0.125,19.03125 l -2.875,2.53125 v 2.09375 c 2.155442,1.564273 6.33672,2.77612 11.15625,0.25 l -0.0625,-2.65625 -2.75,-2.03125 c 0.356862,-8.238942 0.37071,-13.820261 0,-20.15625 0.879592,-0.278415 1.82836,-0.688137 2.8125,-1.3125 v -1.71875 z m 29,0.0625 c -0.35241,2.524726 -0.418744,5.028265 -0.375,7.5625 -0.05382,0.01365 -0.102921,0.05139 -0.15625,0.0625 0.04862,-2.616532 0.02197,-5.021889 -0.03125,-7.375 z M 93.5,70.6875 C 93.649044,76.948824 93.336249,81.198056 93.21875,84.96875 92.139117,86.058821 89.24764,86.47883 88.34375,85 88.130678,80.979458 87.78536,77.13146 87.75,73.375 Z M 63.96875,70.8125 64,72.21875 c -1.780916,1.395809 -3.87474,1.770559 -6.0625,1.6875 -0.07219,-0.0067 -0.146032,-0.0221 -0.21875,-0.03125 2.032886,-1.100235 4.161379,-2.101996 6.25,-3.0625 z m 52.46875,0.0625 0.0937,2.28125 C 113.2847,75.11651 108.03188,74.86515 105.8125,73 l 0.0312,-1.78125 c 3.39438,2.441391 8.43392,1.56012 10.59375,-0.34375 z m -50.0625,0.25 3.3125,2.53125 c -1.078999,-0.220194 -2.194008,-0.63202 -3.3125,-1.25 z m -41.9375,0.96875 c 0.241166,0.08013 0.460072,0.146826 0.71875,0.21875 -0.310159,1.943168 -0.46176,3.86986 -0.5,5.8125 l -0.125,0.0625 c 0.0054,-2.100514 -0.03127,-4.11577 -0.09375,-6.09375 z m 1.0625,0.3125 c 0.167382,0.04136 0.353102,0.06496 0.53125,0.09375 l 2.625,2 v 1.6875 c 0.542078,0.176233 1.230383,0.436416 1.96875,0.6875 0.234873,6.998398 -0.155761,11.473057 -0.28125,15.5 -1.079625,1.090068 -3.971109,1.51008 -4.875,0.03125 -0.374031,-7.057762 -1.120011,-13.620506 0.03125,-20 z m 79.03125,0.5625 L 107.25,74.75 c -2.45191,1.700441 -4.85974,2.070734 -7.125,1.625 -0.0147,-0.937049 -0.031,-1.885526 -0.0625,-2.8125 1.43399,0.899903 3.37578,0.28377 4.46875,-0.59375 z M 119.59375,73 119.6875,75.1875 100.09375,84.5 c 0.0174,-0.642461 0.0196,-1.915794 0.0312,-2.53125 z M 69.25,73.8125 c 0.266324,0.06581 0.555248,0.115879 0.84375,0.15625 L 72.4375,75.75 v 1.78125 c 0.534175,0.173666 1.212446,0.408389 1.9375,0.65625 0.241941,7.0555 -0.155178,11.547927 -0.28125,15.59375 -1.079633,1.090071 -3.97111,1.51008 -4.875,0.03125 -0.374033,-7.05776 -1.12002,-13.620506 0.03125,-20 z m -7.9375,0.03125 c 0.634932,9.765035 0.08834,15.190609 -0.0625,20.03125 -1.079628,1.09007 -3.97111,1.51008 -4.875,0.03125 -0.361889,-6.828716 -1.059507,-13.190712 -0.0625,-19.375 l 1,-0.46875 c 0.760154,0.116223 1.568148,0.162597 2.46875,0.0625 0.493442,-0.05485 0.99788,-0.128383 1.53125,-0.28125 z m -32.375,0.875 L 31.90625,77 C 30.937741,76.765528 29.9334,76.393994 28.9375,75.84375 Z m 96.84375,0 0.28125,2.5625 -26.25,12.5625 c 0.02859,-0.675858 0.28835,-2.138649 0.3125,-2.78125 z m -18.53125,0.25 0.0625,2.28125 c -2.02242,1.221127 -4.79801,1.566636 -7.15625,1.21875 -0.001,-0.596072 -0.0234,-1.166149 -0.0312,-1.75 2.7489,0.417759 5.63347,-0.435236 7.125,-1.75 z M 55.09375,75.125 v 1.1875 C 53.312827,77.708314 51.219012,78.083059 49.03125,78 Z m 28.09375,0.5625 v 1.21875 c -1.780921,1.395814 -3.87474,1.770559 -6.0625,1.6875 -0.154501,-0.01444 -0.311997,-0.04034 -0.46875,-0.0625 l 4.0625,-1.90625 c 0.852253,-0.20325 1.69952,-0.497512 2.46875,-0.9375 z m -10.46875,0.25 3.21875,2.46875 C 74.890877,78.181277 73.80145,77.785704 72.71875,77.1875 Z M 30.875,76.96875 c 0.202459,0.06568 0.379333,0.127883 0.59375,0.1875 -0.832818,5.21767 -0.446411,10.387514 -0.15625,15.75 l -0.65625,-0.5 C 30.923291,86.240978 31.009401,81.587302 30.875,76.96875 Z M 31.8125,77.25 c 0.158002,0.03905 0.33223,0.06358 0.5,0.09375 l 3.09375,2.375 v 1.625 c 0.436398,0.141876 0.965231,0.358608 1.53125,0.5625 0.220608,6.882029 -0.156979,11.324649 -0.28125,15.3125 -1.079622,1.090073 -3.971109,1.51008 -4.875,0.03125 -0.37403,-7.057758 -1.120011,-13.620506 0.03125,-20 z m 20.59375,0.6875 c 0.634938,9.76504 0.08835,15.190607 -0.0625,20.03125 C 51.264126,99.058823 48.372641,99.47883 47.46875,98 47.109922,91.229087 46.414731,84.916219 47.375,78.78125 l 1.25,-0.59375 c 0.699717,0.08895 1.434701,0.121866 2.25,0.03125 0.493449,-0.05484 0.997882,-0.128383 1.53125,-0.28125 z m 41.5,0.3125 c 0.01874,0.870601 0.05363,1.748463 0.09375,2.625 -0.104903,0.01714 -0.207186,0.04591 -0.3125,0.0625 0.02872,-0.92783 0.0451,-1.78611 0.0625,-2.65625 0.05113,-0.01413 0.105462,-0.01603 0.15625,-0.03125 z m -19.3125,0.03125 C 74.815868,78.3542 75.01326,78.434176 75.25,78.5 74.412694,83.74576 74.803183,88.918927 75.09375,94.3125 l -0.6875,-0.5 c 0.268238,-6.192936 0.32476,-10.892111 0.1875,-15.53125 z m 5.90625,0.25 c 0.634932,9.76504 0.08834,15.190599 -0.0625,20.03125 -1.079628,1.090073 -3.97111,1.51008 -4.875,0.03125 -0.374028,-7.057771 -1.12002,-13.620506 0.03125,-20 0.995552,0.246027 2.11481,0.358813 3.375,0.21875 0.493442,-0.05484 0.99788,-0.128383 1.53125,-0.28125 z M 24.65625,79 c -0.01538,3.118952 0.205283,6.259471 0.375,9.46875 l -0.75,-0.5625 c 0.143719,-3.3181 0.230855,-6.193807 0.25,-8.875 z m 21.53125,0.28125 -0.03125,1.4375 c -1.780921,1.395813 -3.874738,1.770559 -6.0625,1.6875 -0.09107,-0.0085 -0.187121,-0.01627 -0.28125,-0.03125 2.047278,-1.119101 4.258487,-2.148707 6.375,-3.09375 z m 41.59375,0.4375 c 0.02331,0.01677 0.03903,0.04605 0.0625,0.0625 0.0344,0.617683 0.06226,1.251827 0.09375,1.875 C 87.872238,81.607585 87.810823,81.551115 87.75,81.5 Z M 35.6875,79.9375 38.53125,82.125 C 38.089585,82.017635 37.639633,81.894768 37.1875,81.71875 36.688505,81.524485 36.189944,81.277605 35.6875,81 Z m 58.34375,1.15625 c 0.02896,0.614331 0.05991,1.225394 0.09375,1.84375 -0.176626,0.01621 -0.354621,0.01851 -0.53125,0.03125 0.0227,-0.604462 0.04418,-1.234655 0.0625,-1.8125 0.124987,-0.01869 0.24923,-0.04316 0.375,-0.0625 z m -75.5,0.75 c 0.02739,0.488999 0.06683,0.976717 0.09375,1.46875 l -0.75,-0.53125 c 0.01051,-0.242634 0.02133,-0.449379 0.03125,-0.6875 z m 18.65625,0.125 c 0.337074,0.11793 0.656908,0.239667 1.03125,0.34375 -0.831214,5.207636 -0.446245,10.367357 -0.15625,15.71875 L 36.96875,97.25 c 0.264035,-6.095811 0.346605,-10.713833 0.21875,-15.28125 z m 6.28125,0.375 c 0.63494,9.765039 0.08835,15.190612 -0.0625,20.03125 -1.079622,1.09007 -3.971109,1.51008 -4.875,0.0312 -0.374028,-7.057765 -1.120011,-13.620506 0.03125,-20 0.139762,0.03454 0.292816,0.06479 0.4375,0.09375 l 0.21875,0.15625 0.1875,-0.09375 c 0.777332,0.121125 1.610026,0.164889 2.53125,0.0625 0.493451,-0.05485 0.997882,-0.128383 1.53125,-0.28125 z m -30.9375,0.625 c 1.427512,1.78203 3.892832,1.10196 5.1875,0.0625 L 18.625,83.625 c 0.03791,0.702856 0.06255,1.414505 0.09375,2.125 -3.091414,1.418648 -6.065033,0.940024 -8.75,-0.5625 z M 94.125,83.1875 c 0.02343,0.424292 0.04806,0.853413 0.0625,1.28125 L 93.53125,84.75 c 0.01999,-0.512978 0.04314,-0.995982 0.0625,-1.5 0.176118,-0.01203 0.351154,-0.04411 0.53125,-0.0625 z m 0.09375,1.9375 c 0.0053,0.125175 -0.0067,0.249806 0,0.375 l -0.3125,-0.21875 z m -6.03125,0.0625 c 1.427507,1.782031 3.89283,1.10196 5.1875,0.0625 l 0.875,0.5625 c 0.03811,0.720241 0.06374,1.459052 0.09375,2.1875 -3.088762,1.414904 -6.035454,0.907845 -8.71875,-0.59375 z M 9.84375,85.375 c 2.680664,1.928053 6.401535,1.770881 8.90625,0.6875 0.02314,0.55457 0.04721,1.096295 0.0625,1.65625 l -0.5625,0.5 c -3.049816,0.833125 -6.687465,0.408216 -8.4375,-1.0625 z M 7.875,86.6875 39.375,111.375 39.28125,113.6875 7.8125,89.0625 Z m -0.6875,0.1875 0.09375,2.21875 31.9375,25.03125 26.0625,-12.625 11.03125,8.65625 29.78125,-14.09375 -0.125,-1.75 3.6875,2.78125 -32.5625,16.15625 -11.875,-9.5 -26.9375,12.84375 -35.90625,-27.5 z M 85.5,87.59375 c 2.671374,1.921372 6.340209,1.760665 8.84375,0.6875 0.01711,0.437843 0.05045,0.871276 0.0625,1.3125 l -1.1875,1.0625 c -2.892735,0.596693 -6.127365,0.0824 -7.75,-1.28125 z m -66.5625,0.5 c 1.42751,1.782026 3.892832,1.10196 5.1875,0.0625 l 0.90625,0.625 c 0.03594,0.694739 0.06608,1.391247 0.09375,2.09375 -3.101208,1.435077 -6.056685,0.944696 -8.75,-0.5625 z M 2.28125,89.53125 38.15625,117 l 0.25,1.75 L 2.4375,91.78125 Z m 92.25,0.4375 c 1.427512,1.782025 3.892828,1.10196 5.1875,0.0625 l 2.71875,1.78125 c -3.70471,2.569291 -7.28893,2.15445 -10.46875,0.375 z M 16.25,90.5 c 2.689951,1.93473 6.401885,1.781111 8.90625,0.6875 0.01277,0.346412 0.02173,0.68271 0.03125,1.03125 l -1.5625,1.375 c -2.80506,0.49677 -5.84519,-5.97e-4 -7.40625,-1.3125 z m 86.1875,1.53125 0.0937,2.25 c -3.246552,1.960262 -8.49937,1.74015 -10.71875,-0.125 l 0.0313,-1.78125 c 3.394382,2.441385 8.43392,1.56012 10.59375,-0.34375 z m -77.125,0.5625 c 1.427511,1.782028 3.892832,1.10196 5.1875,0.0625 l 0.84375,0.53125 c 0.04025,0.755227 0.06221,1.51703 0.09375,2.28125 -3.065102,1.375608 -6.023897,0.834319 -8.6875,-0.65625 z m 79.875,1.21875 0.46875,0.625 0.15625,1.53125 L 76.5,109.625 76.34375,107.40625 Z M 69.0625,94 c 1.427507,1.782031 3.89283,1.10196 5.1875,0.0625 l 0.875,0.5625 c 0.03811,0.720241 0.06374,1.459052 0.09375,2.1875 -3.088762,1.414913 -6.035454,0.907845 -8.71875,-0.59375 z m -12.84375,0.09375 c 1.427512,1.78203 3.89283,1.10196 5.1875,0.0625 L 64.125,95.9375 c -3.704713,2.569303 -7.28893,2.154455 -10.46875,0.375 z M 22.625,95 c 2.661914,1.914568 6.309625,1.78126 8.8125,0.71875 0.01776,0.450891 0.05009,0.88928 0.0625,1.34375 L 30.4375,98 c -2.918281,0.632163 -6.2022,0.160805 -7.84375,-1.21875 z m 41.5,1.15625 0.0625,2.28125 C 60.940953,100.39776 55.71938,100.1464 53.5,98.28125 L 53.53125,96.5 c 3.394382,2.441393 8.43392,1.560125 10.59375,-0.34375 z m 2.25,0.25 c 2.671374,1.921373 6.340209,1.760665 8.84375,0.6875 0.01711,0.437843 0.05045,0.87128 0.0625,1.3125 l -1.1875,1.0625 c -2.892735,0.59669 -6.127365,0.0824 -7.75,-1.28125 z m 43.59375,1 0.375,2.125 -32.875,15.875 V 113.4375 Z M 31.625,97.4375 c 1.427512,1.782033 3.892832,1.10196 5.1875,0.0625 l 1.28125,0.84375 c 0.03142,0.589553 0.03589,1.186322 0.0625,1.78125 -3.211213,1.61562 -6.312051,1.08791 -9.09375,-0.46875 z m 15.6875,0.75 c 1.427512,1.782033 3.892832,1.10196 5.1875,0.0625 l 2.71875,1.78125 c -3.704715,2.56929 -7.288924,2.15445 -10.46875,0.375 z m 28.09375,0.59375 c 1.427512,1.78203 3.89283,1.10196 5.1875,0.0625 l 2.71875,1.78125 c -3.70471,2.56929 -7.28893,2.15445 -10.46875,0.375 z m -10.28125,0.0625 0.09375,2.28125 -25.8125,12.375 0.15625,-2.25 z m 0.5625,0.125 10.21875,8 0.09375,2.25 -10.46875,-7.9375 z m -36.75,0.875 c 2.797895,2.01237 6.719132,1.77653 9.21875,0.5625 0.026,0.60673 0.077,1.19935 0.09375,1.8125 l -0.375,0.3125 c -3.149537,1.05016 -7.112559,0.65368 -8.96875,-0.90625 z m 26.28125,0.40625 0.09375,2.25 c -3.246551,1.96026 -8.49937,1.74015 -10.71875,-0.125 l 0.03125,-1.78125 c 3.394381,2.44139 8.433917,1.56012 10.59375,-0.34375 z m 28.09375,0.59375 0.09375,2.25 c -3.246552,1.96026 -8.49937,1.74015 -10.71875,-0.125 l 0.03125,-1.78125 c 3.394382,2.44139 8.43392,1.56012 10.59375,-0.34375 z m -44.9375,1.75 c 1.427514,1.78203 3.892832,1.10196 5.1875,0.0625 l 2.71875,1.78125 c -3.704716,2.56929 -7.288924,2.15445 -10.46875,0.375 z M 65,104.125 l 0.09375,2.125 -26.5,12.4375 v -1.75 z m 0.34375,0.4375 11.5,9.15625 L 77,115.34375 65.5,106.75 Z m -19.0625,0.0937 0.09375,2.28125 c -3.246552,1.96026 -8.49937,1.7089 -10.71875,-0.15625 L 35.6875,105 c 3.394383,2.44139 8.433917,1.56012 10.59375,-0.34375 z"
       id="path1"
       sodipodi:nodetypes="ccccccccccccccccccccccccccccccccccccccccccccccccccccccccccccccccccccccccccccccccccccccccsccccccccccccccccccccccccccccccccccccccsccccccccccccccccccccccccccccccccccccccccccccccccccccccccccccccccccccccccccccccccccccccccccccccccccccccccccccccccccccccccccccccccccccccccccccccccccccccccccccsccccccccccccccccccccccccccccccccccccccccccccccccccccccccccccccccccccccccccccccccccccccccscccscccccccccccccccccccccccccccccccccccccccccccccccscccccccccccccccccccccccccccccccccccccccccccccccccccccccccccscccsccccccccccccccccccsccccccccccccccccccccccccsccccccccccccccccccccccccccccccccccccccccccccccccccccccccccccccccccccccccccccccccccccccccccccccccccccccccccccccccccccccccccccccccccccccccccccccccccccccccccccccccccccccccccccccccccccccccccccccccc" />
  </g>
</svg>
